<?xml version="1.0" standalone="no"?>
<!DOCTYPE svg PUBLIC "-//W3C//DTD SVG 1.1//EN" "http://www.w3.org/Graphics/SVG/1.1/DTD/svg11.dtd" >
<svg xmlns="http://www.w3.org/2000/svg" xmlns:xlink="http://www.w3.org/1999/xlink" version="1.1">
<metadata>
Created by FontForge 20190801 at Wed Nov  1 13:19:01 2017
 By www-data
Copyright (c) 2017 by Charles Borges de Oliveira/Borges Lettering. All rights reserved.
</metadata>
<defs>
<font id="VersatileBold" horiz-adv-x="698" >
  <font-face 
    font-family="VersatileBold"
    font-weight="700"
    font-stretch="normal"
    units-per-em="1000"
    panose-1="0 0 0 0 0 0 0 0 0 0"
    ascent="800"
    descent="-200"
    x-height="492"
    cap-height="700"
    bbox="-110 -329 1794 1157"
    underline-thickness="50"
    underline-position="-200"
    unicode-range="U+000D-FB02"
  />
<missing-glyph horiz-adv-x="461" 
 />
    <glyph glyph-name=".notdef" horiz-adv-x="461" 
 />
    <glyph glyph-name=".null" horiz-adv-x="0" 
 />
    <glyph glyph-name="nonmarkingreturn" horiz-adv-x="333" 
 />
    <glyph glyph-name="NULL" horiz-adv-x="0" 
 />
    <glyph glyph-name="NULL" horiz-adv-x="0" 
 />
    <glyph glyph-name="CR" unicode="&#xd;" horiz-adv-x="260" 
 />
    <glyph glyph-name="space" unicode=" " horiz-adv-x="260" 
 />
    <glyph glyph-name="exclam" unicode="!" horiz-adv-x="283" 
d="M217 576l-24 -338h-104l-24 338v124h152v-124zM54 74q0 38 25 63.5t62 25.5q39 0 65 -25.5t26 -63.5q0 -36 -26 -61t-65 -25q-37 0 -62 25t-25 61z" />
    <glyph glyph-name="quotedbl" unicode="&#x22;" horiz-adv-x="458" 
d="M208 616q0 -55 -33 -108t-88 -85l-30 41q54 30 64 80q-37 0 -62 23.5t-25 58.5q0 40 25.5 63t58.5 23q36 0 63 -25t27 -71zM431 616q0 -55 -33 -108t-88 -85l-30 41q54 30 64 80q-37 0 -62 23.5t-25 58.5q0 40 25.5 63t58.5 23q36 0 63 -25t27 -71z" />
    <glyph glyph-name="numbersign" unicode="#" horiz-adv-x="814" 
d="M104 440l30 105h142l44 155h121l-45 -155h132l44 155h121l-44 -155h138l-30 -105h-138l-51 -181h140l-29 -105h-141l-44 -154h-121l44 154h-132l-44 -154h-120l44 154h-139l27 105h142l51 181h-142zM366 440l-51 -181h132l51 181h-132z" />
    <glyph glyph-name="dollar" unicode="$" horiz-adv-x="628" 
d="M30 99l84 110q76 -70 169 -86v169q-28 7 -37 10q-33 9 -58 18t-52 25.5t-44 36t-28.5 50t-11.5 67.5q0 94 67 149.5t164 62.5v55h79v-58q112 -17 206 -86l-74 -115q-68 52 -132 67v-152q50 -12 83 -24.5t71 -36.5t57.5 -63t19.5 -93q0 -96 -66.5 -152t-164.5 -64v-60h-79
v62q-149 14 -253 108zM440 199q0 47 -78 73v-151q78 11 78 78zM205 507q0 -24 20 -39t58 -26v136q-78 -10 -78 -71z" />
    <glyph glyph-name="percent" unicode="%" horiz-adv-x="801" 
d="M105 0l493 700h102l-492 -700h-103zM603 239q-34 0 -56 -24.5t-22 -61.5t22 -61.5t56 -24.5t56 24.5t22 61.5q0 38 -22 62t-56 24zM603 -12q-73 0 -121.5 47t-48.5 118t48.5 118t121.5 47q74 0 121.5 -46.5t47.5 -118.5t-47.5 -118.5t-121.5 -46.5zM198 633
q-34 0 -56 -24.5t-22 -61.5t22 -61t56 -24t56 24t22 61q0 38 -22 62t-56 24zM198 382q-73 0 -121.5 47t-48.5 118t48.5 118t121.5 47q74 0 121.5 -46.5t47.5 -118.5t-47.5 -118.5t-121.5 -46.5z" />
    <glyph glyph-name="ampersand" unicode="&#x26;" horiz-adv-x="668" 
d="M687 0h-167l-77 84q-52 -51 -98 -72t-101 -21q-96 0 -155.5 53.5t-59.5 139.5q0 71 40.5 118t110.5 83q-60 82 -60 155q0 75 56 123.5t144 48.5q86 0 138 -47t52 -126q0 -55 -31 -98.5t-103 -85.5l69 -80l79 93l97 -78q-45 -57 -92 -111q87 -100 158 -179zM257 292
q-80 -43 -80 -98q0 -33 22 -52t59 -19q44 0 100 55q-1 1 -101 114zM393 537q0 27 -19.5 45t-49.5 18q-29 0 -48 -18t-19 -46q0 -40 44 -94q45 22 68.5 44t23.5 51z" />
    <glyph glyph-name="quotesingle" unicode="'" horiz-adv-x="235" 
d="M208 616q0 -55 -33 -108t-88 -85l-30 41q54 30 64 80q-37 0 -62 23.5t-25 58.5q0 40 25.5 63t58.5 23q36 0 63 -25t27 -71z" />
    <glyph glyph-name="parenleft" unicode="(" horiz-adv-x="353" 
d="M179 250q0 -108 45 -206t119 -157l-81 -91q-106 73 -168.5 196.5t-62.5 257.5t62.5 257.5t168.5 196.5l81 -91q-74 -58 -119 -156.5t-45 -206.5z" />
    <glyph glyph-name="parenright" unicode=")" horiz-adv-x="353" 
d="M174 250q0 108 -45 206.5t-119 156.5l81 91q106 -73 168.5 -196.5t62.5 -257.5t-62.5 -257.5t-168.5 -196.5l-81 91q74 59 119 157t45 206z" />
    <glyph glyph-name="asterisk" unicode="*" horiz-adv-x="373" 
d="M32 511l87 39l-87 39l44 72l76 -54l-8 93h84l-9 -93l78 54l44 -72l-87 -39l87 -39l-44 -72l-78 54l9 -93h-84l8 93l-76 -54z" />
    <glyph glyph-name="plus" unicode="+" horiz-adv-x="499" 
d="M468 287h-162v-183h-110v183h-165v99h165v168h110v-168h162v-99z" />
    <glyph glyph-name="comma" unicode="," horiz-adv-x="252" 
d="M213 60q0 -55 -33 -108t-88 -85l-30 41q54 30 64 80q-37 0 -62 23.5t-25 58.5q0 40 25.5 63t58.5 23q36 0 63 -25t27 -71z" />
    <glyph glyph-name="hyphen" unicode="-" horiz-adv-x="394" 
d="M340 183h-286v120h286v-120z" />
    <glyph glyph-name="period" unicode="." horiz-adv-x="245" 
d="M37 72q0 35 25 59.5t60 24.5q36 0 61 -24.5t25 -59.5t-25 -59.5t-61 -24.5q-35 0 -60 24.5t-25 59.5z" />
    <glyph glyph-name="slash" unicode="/" horiz-adv-x="449" 
d="M429 720l-297 -740h-111l297 740h111z" />
    <glyph glyph-name="zero" unicode="0" horiz-adv-x="694" 
d="M655 350q0 -163 -84 -262.5t-224 -99.5t-224 100.5t-84 261.5t84 261.5t224 100.5t224 -100.5t84 -261.5zM499 350q0 106 -40 166.5t-112 60.5t-112 -60.5t-40 -166.5t40 -166.5t112 -60.5t112 60.5t40 166.5z" />
    <glyph glyph-name="one" unicode="1" horiz-adv-x="383" 
d="M58 494l-60 122l157 84h152v-700h-152v545z" />
    <glyph glyph-name="two" unicode="2" horiz-adv-x="583" 
d="M108 510l-71 114q117 88 249 88q113 0 181 -61t68 -150q0 -66 -32 -118q-61 -101 -262 -252h296v-131h-504v131q245 199 314 280q30 37 30 78q0 42 -30.5 65t-75.5 23q-81 0 -163 -67z" />
    <glyph glyph-name="three" unicode="3" horiz-adv-x="594" 
d="M277 293h-99v131h112q41 0 68 21.5t27 54.5q0 36 -30.5 56.5t-81.5 20.5q-83 0 -165 -58l-68 113q110 80 248 80q111 0 178.5 -53t67.5 -139q0 -106 -107 -158q58 -14 93.5 -60t35.5 -108q-1 -91 -75.5 -148.5t-194.5 -57.5q-156 0 -269 104l81 106q87 -77 184 -77
q57 0 90.5 23t33.5 64q0 85 -129 85z" />
    <glyph glyph-name="four" unicode="4" horiz-adv-x="650" 
d="M19 163v131l308 406h183v-406h111v-131h-111v-163h-152v163h-339zM175 294h183v240z" />
    <glyph glyph-name="five" unicode="5" horiz-adv-x="604" 
d="M171 283l-112 62l41 355h426v-131h-299l-17 -138q46 21 104 21q115 0 188 -62.5t73 -163.5q0 -106 -75 -172t-201 -66q-165 0 -276 105l79 108q84 -79 189 -79q60 0 94 28t34 73q0 46 -37 72.5t-95 26.5q-65 0 -116 -39z" />
    <glyph glyph-name="six" unicode="6" horiz-adv-x="628" 
d="M354 712q117 0 213 -75l-74 -106q-62 47 -135 47q-72 0 -115 -51.5t-50 -142.5q19 29 62 48t94 19q107 0 176.5 -63t69.5 -163q0 -106 -73.5 -171.5t-189.5 -65.5q-136 0 -214 91.5t-78 258.5q0 77 18.5 143t55 118.5t98 82.5t142.5 30zM216 222q0 -45 31.5 -74.5
t82.5 -29.5t81.5 30.5t30.5 75.5t-31.5 74.5t-82.5 29.5q-48 0 -80 -30.5t-32 -75.5z" />
    <glyph glyph-name="seven" unicode="7" horiz-adv-x="545" 
d="M366 569h-346v131h507v-131l-297 -569h-167z" />
    <glyph glyph-name="eight" unicode="8" horiz-adv-x="634" 
d="M37 202q0 118 122 178q-95 52 -95 147q0 81 71 133t182 52t182 -52t71 -132q0 -95 -96 -149q123 -59 123 -177q0 -95 -77.5 -154.5t-202.5 -59.5t-202.5 59.5t-77.5 154.5zM317 118q55 0 88 25.5t33 68.5q0 45 -34 72.5t-87 27.5t-87 -27.5t-34 -72.5q0 -43 33 -68.5
t88 -25.5zM317 432q48 0 77.5 22t29.5 58t-29 57.5t-78 21.5t-78 -21.5t-29 -57.5t29.5 -58t77.5 -22z" />
    <glyph glyph-name="nine" unicode="9" horiz-adv-x="629" 
d="M275 -12q-118 0 -213 74l74 107q62 -47 135 -47q70 0 113 49.5t51 137.5q-20 -27 -61.5 -44t-92.5 -17q-108 0 -178 63.5t-70 166.5t73.5 168.5t189.5 65.5q134 0 213.5 -91t79.5 -254q0 -81 -18 -148t-55 -119.5t-98.5 -82t-142.5 -29.5zM413 478q0 45 -31.5 74.5
t-82.5 29.5t-82 -30.5t-31 -75.5t31.5 -74.5t82.5 -29.5q48 0 80.5 30.5t32.5 75.5z" />
    <glyph glyph-name="colon" unicode=":" horiz-adv-x="282" 
d="M52 75q0 36 26 62t62 26q37 0 63.5 -26t26.5 -62q0 -35 -26.5 -61t-63.5 -26q-36 0 -62 26t-26 61zM52 416q0 36 26 62t62 26q37 0 63.5 -26t26.5 -62q0 -35 -26.5 -61t-63.5 -26q-36 0 -62 26t-26 61z" />
    <glyph glyph-name="semicolon" unicode=";" horiz-adv-x="284" 
d="M52 74q0 38 25 63.5t62 25.5q38 0 65.5 -27t27.5 -64q0 -56 -31.5 -110.5t-91.5 -90.5l-38 36q61 35 72 81q-39 0 -65 25t-26 61zM52 416q0 36 26 62t62 26q37 0 63.5 -26t26.5 -62q0 -35 -26.5 -61t-63.5 -26q-36 0 -62 26t-26 61z" />
    <glyph glyph-name="less" unicode="&#x3c;" horiz-adv-x="576" 
d="M153 342l363 -158v-117l-487 217v116l487 217v-117z" />
    <glyph glyph-name="equal" unicode="=" horiz-adv-x="519" 
d="M463 174h-407v99h407v-99zM463 403h-407v99h407v-99z" />
    <glyph glyph-name="greater" unicode="&#x3e;" horiz-adv-x="576" 
d="M423 342l-363 158v117l487 -217v-116l-487 -217v117z" />
    <glyph glyph-name="question" unicode="?" horiz-adv-x="506" 
d="M101 515l-78 107q95 90 230 90q93 0 153 -50t60 -131q0 -39 -13.5 -70.5t-34.5 -52.5t-42.5 -37.5t-41.5 -33.5t-28 -32q-7 -14 -7 -61v-22h-140v29q0 44 4 65.5t18 42.5q16 24 52.5 51t62 50.5t25.5 49.5q0 30 -21 48.5t-59 18.5q-35 0 -70 -15.5t-53 -31.5zM146 74
q0 38 25 63.5t62 25.5q39 0 65 -25.5t26 -63.5q0 -36 -26 -61t-65 -25q-37 0 -62 25t-25 61z" />
    <glyph glyph-name="at" unicode="@" horiz-adv-x="834" 
d="M646 442l-37 -238q-4 -23 -4 -41q0 -38 26 -38q47 0 83.5 57t36.5 132q0 109 -80.5 178.5t-207.5 69.5q-152 0 -259.5 -99.5t-107.5 -240.5q0 -119 81 -196t208 -77q107 0 202 62l27 -43q-104 -69 -231 -69q-150 0 -246.5 92t-96.5 233q0 160 125.5 272.5t301.5 112.5
q149 0 243.5 -82.5t94.5 -213.5q0 -103 -57.5 -173t-140.5 -70q-34 0 -59.5 15.5t-36.5 41.5q-58 -71 -138 -71q-77 0 -123.5 47.5t-46.5 127.5q0 93 60.5 156.5t149.5 63.5q39 0 72.5 -16t45.5 -40l7 47h108zM425 362q-46 0 -79.5 -37.5t-33.5 -90.5q0 -39 22 -63t58 -24
q47 0 82 37.5t35 87.5q0 40 -23 65t-61 25z" />
    <glyph glyph-name="A" unicode="A" 
d="M274 700h150l270 -700h-161l-48 133h-273l-47 -133h-161zM349 515l-90 -251h179z" />
    <glyph glyph-name="B" unicode="B" horiz-adv-x="675" 
d="M76 0v700h308q102 0 164 -50t62 -133q0 -44 -25.5 -85.5t-64.5 -61.5q57 -21 89 -69t32 -106q0 -85 -63 -140t-158 -55h-344zM228 131h169q40 0 64.5 22.5t24.5 57.5q0 36 -25.5 59t-65.5 23h-167v-162zM228 424h156q34 0 57.5 21t23.5 52t-23 51.5t-57 20.5h-157v-145z
" />
    <glyph glyph-name="C" unicode="C" horiz-adv-x="679" 
d="M399 -12q-156 0 -260 102.5t-104 259.5t104 259.5t260 102.5q149 0 258 -107l-99 -100q-29 34 -71.5 53t-87.5 19q-94 0 -151 -65.5t-57 -161.5t57 -161.5t151 -65.5q98 0 163 80l108 -88q-106 -127 -271 -127z" />
    <glyph glyph-name="D" unicode="D" horiz-adv-x="725" 
d="M228 131h106q89 0 144 60.5t55 158.5q0 99 -54.5 159t-144.5 60h-106v-438zM339 0h-263v700h262q153 0 252 -98.5t99 -251.5q0 -152 -99 -251t-251 -99z" />
    <glyph glyph-name="E" unicode="E" horiz-adv-x="603" 
d="M560 131v-131h-484v700h475v-131h-323v-152h298v-131h-298v-155h332z" />
    <glyph glyph-name="F" unicode="F" horiz-adv-x="582" 
d="M228 569v-166h287v-131h-287v-272h-152v700h475v-131h-323z" />
    <glyph glyph-name="G" unicode="G" horiz-adv-x="729" 
d="M399 -12q-158 0 -261 102.5t-103 259.5t103 259.5t261 102.5q149 0 258 -107l-99 -100q-29 34 -71.5 53t-87.5 19q-91 0 -150 -64t-59 -163t59 -163t150 -64q82 0 136 44v101h-167v131h319v-287q-50 -60 -128 -92t-160 -32z" />
    <glyph glyph-name="H" unicode="H" horiz-adv-x="739" 
d="M228 700v-296h283v296h152v-700h-152v273h-283v-273h-152v700h152z" />
    <glyph glyph-name="I" unicode="I" horiz-adv-x="304" 
d="M228 700v-700h-152v700h152z" />
    <glyph glyph-name="J" unicode="J" horiz-adv-x="512" 
d="M289 700h152v-497q0 -99 -62.5 -157t-170.5 -58q-127 0 -210 88l76 104q59 -57 125 -57q90 0 90 83v494z" />
    <glyph glyph-name="K" unicode="K" horiz-adv-x="685" 
d="M228 700v-333l273 333h184l-265 -317l272 -383h-184l-184 268l-96 -115v-153h-152v700h152z" />
    <glyph glyph-name="L" unicode="L" horiz-adv-x="558" 
d="M76 0v700h152v-569h314v-131h-466z" />
    <glyph glyph-name="M" unicode="M" horiz-adv-x="896" 
d="M498 0h-100l-170 470v-470h-152v700h209l163 -458l163 458h209v-700h-152v470z" />
    <glyph glyph-name="N" unicode="N" horiz-adv-x="756" 
d="M680 700v-700h-152l-300 454v-454h-152v700h152l300 -453v453h152z" />
    <glyph glyph-name="O" unicode="O" horiz-adv-x="798" 
d="M763 350q0 -157 -104 -259.5t-260 -102.5t-260 102.5t-104 259.5t104 259.5t260 102.5t260 -102.5t104 -259.5zM607 350q0 96 -57 161.5t-151 65.5t-151 -65.5t-57 -161.5t57 -161.5t151 -65.5t151 65.5t57 161.5z" />
    <glyph glyph-name="P" unicode="P" horiz-adv-x="641" 
d="M76 700h290q110 0 181 -66t71 -169t-71 -169.5t-181 -66.5h-138v-229h-152v700zM228 360h136q44 0 72.5 30t28.5 76q0 45 -28.5 74t-72.5 29h-136v-209z" />
    <glyph glyph-name="Q" unicode="Q" horiz-adv-x="799" 
d="M754 45l-93 -97l-81 83q-80 -43 -180 -43q-157 0 -261 102t-104 260t104 260t261 102q156 0 260 -102t104 -260q0 -135 -80 -233zM608 350q0 96 -57.5 161.5t-150.5 65.5q-94 0 -151.5 -65.5t-57.5 -161.5t57.5 -161.5t151.5 -65.5q41 0 78 14l-87 90l92 97l94 -97
q31 54 31 123z" />
    <glyph glyph-name="R" unicode="R" horiz-adv-x="674" 
d="M474 0l-125 235h-121v-235h-152v700h298q112 0 184 -64.5t72 -165.5q0 -69 -35.5 -123.5t-96.5 -84.5l146 -262h-170zM228 366h142q46 0 76 28.5t30 72.5q0 43 -30.5 72.5t-75.5 29.5h-142v-203z" />
    <glyph glyph-name="S" unicode="S" horiz-adv-x="614" 
d="M303 580q-42 0 -73.5 -17t-31.5 -56q0 -22 20 -38t46 -24t66 -17q13 -2 19 -4q40 -10 67.5 -18t62.5 -25.5t56 -39t36 -57t15 -79.5q0 -103 -77 -160t-184 -57q-83 0 -162.5 28.5t-139.5 82.5l84 110q98 -90 215 -90q111 0 111 80q0 14 -5 25.5t-16.5 20t-23.5 15
t-32 12.5t-35.5 10t-40.5 10t-41 10q-33 9 -58 18t-52 25.5t-44 36t-28.5 50t-11.5 67.5q0 100 75.5 156.5t179.5 56.5q140 0 261 -90l-74 -115q-94 73 -184 73z" />
    <glyph glyph-name="T" unicode="T" horiz-adv-x="580" 
d="M366 569v-569h-152v569h-199v131h550v-131h-199z" />
    <glyph glyph-name="U" unicode="U" horiz-adv-x="736" 
d="M368 -12q-133 0 -216 76t-83 197v439h152v-439q0 -61 41 -99.5t106 -38.5t106 38.5t41 99.5v439h152v-439q0 -121 -83 -197t-216 -76z" />
    <glyph glyph-name="V" unicode="V" 
d="M424 0h-150l-270 700h163l182 -506l182 506h163z" />
    <glyph glyph-name="W" unicode="W" horiz-adv-x="964" 
d="M416 700h132l125 -456l119 456h163l-203 -700h-146l-125 449l-123 -449h-146l-203 700h163l119 -456z" />
    <glyph glyph-name="X" unicode="X" horiz-adv-x="659" 
d="M329 232l-152 -232h-182l247 357l-236 343h181l142 -218l142 218h182l-236 -343l247 -357h-183z" />
    <glyph glyph-name="Y" unicode="Y" horiz-adv-x="684" 
d="M6 700h176l160 -311l161 311h176l-261 -460v-240h-152v240z" />
    <glyph glyph-name="Z" unicode="Z" horiz-adv-x="622" 
d="M34 131l356 438h-342v131h530v-131l-356 -438h363v-131h-551v131z" />
    <glyph glyph-name="bracketleft" unicode="[" horiz-adv-x="345" 
d="M325 605h-139v-699h139v-107h-252v913h252v-107z" />
    <glyph glyph-name="backslash" unicode="\" horiz-adv-x="449" 
d="M317 -20l-297 740h111l297 -740h-111z" />
    <glyph glyph-name="bracketright" unicode="]" horiz-adv-x="345" 
d="M159 605h-139v107h252v-913h-252v107h139v699z" />
    <glyph glyph-name="asciicircum" unicode="^" horiz-adv-x="497" 
d="M355 340l-107 239l-106 -239h-112l165 360h107l165 -360h-112z" />
    <glyph glyph-name="underscore" unicode="_" horiz-adv-x="518" 
d="M-1 -152v110h520v-110h-520z" />
    <glyph glyph-name="grave" unicode="`" horiz-adv-x="353" 
d="M215 572l-175 178h136l137 -178h-98z" />
    <glyph glyph-name="a" unicode="a" horiz-adv-x="552" 
d="M275 504q100 0 159 -49.5t59 -133.5v-321h-139v45q-55 -57 -142 -57q-78 0 -130.5 47.5t-52.5 117.5q0 75 60 120.5t159 45.5q49 0 106 -21v18q0 33 -27.5 51.5t-76.5 18.5q-38 0 -76.5 -10.5t-58.5 -26.5l-58 98q109 57 218 57zM250 90q42 0 73 22.5t31 53.5v46
q-42 16 -89 16q-45 0 -73.5 -20t-28.5 -51q0 -30 24 -48.5t63 -18.5z" />
    <glyph glyph-name="b" unicode="b" horiz-adv-x="625" 
d="M64 700h139v-261q55 65 143 65q108 0 176.5 -72.5t68.5 -185.5t-68 -185.5t-174 -72.5q-43 0 -84.5 19t-61.5 50v-57h-139v700zM451 246q0 60 -34 100t-94 40q-52 0 -86 -40t-34 -100t35 -100t87 -40q56 0 91 38.5t35 101.5z" />
    <glyph glyph-name="c" unicode="c" horiz-adv-x="510" 
d="M298 -12q-111 0 -188 73.5t-77 184.5q0 110 76 184t188 74q115 0 190 -78l-86 -86q-36 46 -103 46q-56 0 -90.5 -39t-34.5 -101t35.5 -101t91.5 -39q69 0 106 51l90 -81q-71 -88 -198 -88z" />
    <glyph glyph-name="d" unicode="d" horiz-adv-x="625" 
d="M422 0v57q-20 -31 -61.5 -50t-84.5 -19q-106 0 -174 72.5t-68 185.5t68 185.5t176 72.5q43 0 82 -18t62 -47v261h139v-700h-139zM174 246q0 -60 33.5 -100t92.5 -40q52 0 87 40t35 100t-34 100t-86 40q-58 0 -93 -38.5t-35 -101.5z" />
    <glyph glyph-name="e" unicode="e" horiz-adv-x="563" 
d="M496 68q-36 -39 -90 -59.5t-106 -20.5q-115 0 -190.5 73.5t-75.5 186.5q0 109 71.5 182.5t177.5 73.5q107 0 177.5 -70.5t70.5 -177.5v-52h-360q11 -45 47.5 -72.5t86.5 -27.5q67 0 117 50zM286 390q-40 0 -71 -25t-41 -67h226q-7 41 -39.5 66.5t-74.5 25.5z" />
    <glyph glyph-name="f" unicode="f" horiz-adv-x="377" 
d="M30 492h78v53q0 80 52 123.5t128 43.5q70 0 129 -36l-43 -97q-27 18 -58 18q-29 0 -49 -15.5t-20 -45.5v-44h115v-114h-115v-378h-139v378h-78v114z" />
    <glyph glyph-name="g" unicode="g" horiz-adv-x="623" 
d="M298 -92q57 0 90 30.5t33 86.5v44q-25 -32 -63.5 -50.5t-79.5 -18.5q-106 0 -175 69.5t-69 176.5q0 113 68 185.5t176 72.5q91 0 143 -65v53h139v-477q0 -97 -73.5 -161.5t-185.5 -64.5q-62 0 -121 20.5t-96 54.5l64 97q28 -23 70 -38t80 -15zM174 246q0 -61 36.5 -95.5
t86.5 -34.5q60 0 92 39t32 94q0 56 -31 96.5t-89 40.5q-57 0 -92 -38.5t-35 -101.5z" />
    <glyph glyph-name="h" unicode="h" horiz-adv-x="590" 
d="M203 700v-267q22 31 60 51t78 20q86 0 138 -50t52 -133v-321h-139v304q0 36 -26 59t-67 23t-68.5 -26t-27.5 -66v-294h-139v700h139z" />
    <glyph glyph-name="i" unicode="i" horiz-adv-x="267" 
d="M203 492v-492h-139v492h139zM51 628q0 35 24 59.5t58 24.5q36 0 60 -24.5t24 -59.5t-24 -58.5t-60 -23.5q-34 0 -58 24t-24 58z" />
    <glyph glyph-name="j" unicode="j" horiz-adv-x="275" 
d="M59 628q0 35 24 59.5t58 24.5q36 0 60 -24.5t24 -59.5t-24 -58.5t-60 -23.5q-34 0 -58 24t-24 58zM-39 -196l25 114q18 -7 35 -7q23 0 37 14t14 40v527h139v-523q0 -83 -43.5 -131.5t-120.5 -48.5q-41 0 -86 15z" />
    <glyph glyph-name="k" unicode="k" horiz-adv-x="551" 
d="M203 700v-397l166 189h177l-204 -210l216 -282h-169l-135 190l-51 -52v-138h-139v700h139z" />
    <glyph glyph-name="l" unicode="l" horiz-adv-x="267" 
d="M203 700v-700h-139v700h139z" />
    <glyph glyph-name="m" unicode="m" horiz-adv-x="890" 
d="M517 294v-294h-139v308q0 35 -24.5 56.5t-60.5 21.5q-39 0 -64.5 -26.5t-25.5 -65.5v-294h-139v492h139v-60q54 72 141 72q98 0 145 -77q70 77 162 77q81 0 130.5 -50t49.5 -133v-321h-139v308q0 34 -25 56t-61 22q-39 0 -64 -26.5t-25 -65.5z" />
    <glyph glyph-name="n" unicode="n" horiz-adv-x="590" 
d="M203 492v-59q50 71 148 71q80 0 130 -50.5t50 -132.5v-321h-139v304q0 36 -25.5 59t-65.5 23q-42 0 -70 -25.5t-28 -66.5v-294h-139v492h139z" />
    <glyph glyph-name="o" unicode="o" horiz-adv-x="594" 
d="M421 246q0 62 -34.5 101t-89.5 39t-89.5 -39t-34.5 -101t34.5 -101t89.5 -39t89.5 39t34.5 101zM561 246q0 -109 -76 -183.5t-188 -74.5t-188 74.5t-76 183.5t76 183.5t188 74.5t188 -74.5t76 -183.5z" />
    <glyph glyph-name="p" unicode="p" horiz-adv-x="625" 
d="M203 56v-257h-139v693h139v-54q53 66 143 66q108 0 176.5 -72.5t68.5 -185.5t-68.5 -185.5t-173.5 -72.5q-43 0 -84.5 18.5t-61.5 49.5zM451 246q0 60 -34 100t-94 40q-52 0 -86 -40t-34 -100t35 -100t87 -40q56 0 91 38.5t35 101.5z" />
    <glyph glyph-name="q" unicode="q" horiz-adv-x="624" 
d="M422 -201v258q-20 -31 -61.5 -50t-84.5 -19q-106 0 -174 72.5t-68 185.5t68 185.5t176 72.5q43 0 82 -18t62 -47v53h139v-693h-139zM174 246q0 -60 33.5 -100t92.5 -40q52 0 87 40t35 100t-34 100t-86 40q-58 0 -93 -38.5t-35 -101.5z" />
    <glyph glyph-name="r" unicode="r" horiz-adv-x="388" 
d="M203 492v-86q23 42 68 70t93 28h10v-131q-14 3 -31 3q-54 0 -97 -36.5t-43 -91.5v-248h-139v492h139z" />
    <glyph glyph-name="s" unicode="s" horiz-adv-x="490" 
d="M242 400q-74 0 -74 -45q0 -21 30 -32.5t73 -19t86 -20t73 -47t30 -88.5q0 -79 -59.5 -119.5t-141.5 -40.5q-133 0 -232 85l65 88q75 -69 167 -69q77 0 77 46q0 19 -21.5 31t-54 17t-70.5 15t-70.5 23.5t-54 44.5t-21.5 76q0 78 59.5 118.5t140.5 40.5q107 0 194 -67
l-62 -89q-63 52 -134 52z" />
    <glyph glyph-name="t" unicode="t" horiz-adv-x="388" 
d="M24 492h77v132h139v-132h111v-111h-111v-216q0 -59 58 -59q25 0 40 15l32 -107q-16 -11 -47.5 -18.5t-56.5 -7.5q-165 0 -165 171v222h-77v111z" />
    <glyph glyph-name="u" unicode="u" horiz-adv-x="590" 
d="M388 0v59q-22 -32 -63.5 -51.5t-84.5 -19.5q-80 0 -130 50t-50 132v322h139v-307q0 -36 25.5 -57.5t65.5 -21.5q42 0 69 23t29 64v299h139v-492h-139z" />
    <glyph glyph-name="v" unicode="v" horiz-adv-x="546" 
d="M330 0h-114l-211 492h152l116 -312l116 312h152z" />
    <glyph glyph-name="w" unicode="w" horiz-adv-x="790" 
d="M454 492l91 -279l89 279h151l-182 -492h-101l-107 303l-107 -303h-101l-182 492h151l89 -279l91 279h118z" />
    <glyph glyph-name="x" unicode="x" horiz-adv-x="514" 
d="M257 144l-97 -144h-155l176 252l-170 240h155l91 -136l91 136h155l-170 -240l176 -252h-155z" />
    <glyph glyph-name="y" unicode="y" horiz-adv-x="547" 
d="M330 -1q-50 -115 -96 -162.5t-110 -47.5q-59 0 -107 28l49 109q22 -14 50 -14q35 0 55.5 28t38.5 75l-204 477h152l116 -313l116 313h152z" />
    <glyph glyph-name="z" unicode="z" horiz-adv-x="484" 
d="M447 0h-410v114l231 264h-221v114h389v-114l-231 -264h242v-114z" />
    <glyph glyph-name="braceleft" unicode="{" horiz-adv-x="362" 
d="M212 149v-187q0 -56 51 -56h78v-107h-90q-69 0 -110.5 41.5t-41.5 110.5v216q0 21 -15.5 34t-42.5 13h-19v83h19q27 0 42.5 13t15.5 34v216q0 69 41.5 110.5t110.5 41.5h90v-107h-78q-51 0 -51 -56v-187q0 -34 -16 -62.5t-43 -44.5q27 -16 43 -44.5t16 -61.5z" />
    <glyph glyph-name="bar" unicode="|" horiz-adv-x="253" 
d="M72 720h109v-740h-109v740z" />
    <glyph glyph-name="braceright" unicode="}" horiz-adv-x="362" 
d="M150 -38v187q0 33 16 61.5t43 44.5q-27 16 -43 44.5t-16 62.5v187q0 56 -51 56h-78v107h90q69 0 110.5 -41.5t41.5 -110.5v-216q0 -21 15.5 -34t42.5 -13h19v-83h-19q-27 0 -42.5 -13t-15.5 -34v-216q0 -69 -41.5 -110.5t-110.5 -41.5h-90v107h78q51 0 51 56z" />
    <glyph glyph-name="asciitilde" unicode="~" horiz-adv-x="475" 
d="M323 515q-22 0 -43 11.5t-32.5 23.5t-28.5 33q-12 15 -19 23t-17.5 15t-20.5 7q-17 0 -29.5 -28t-16.5 -56l-4 -27l-72 13q18 97 44 134.5t77 37.5q22 0 43.5 -12t33 -24t30.5 -34q36 -43 54 -43q17 0 29.5 27.5t16.5 55.5l4 28l72 -13q-18 -97 -44 -134.5t-77 -37.5z
" />
    <glyph glyph-name="exclamdown" unicode="&#xa1;" horiz-adv-x="271" 
d="M187 262l24 -338v-124h-152v124l24 338h104zM48 426q0 36 25 61t62 25q39 0 65 -25t26 -61q0 -38 -26 -63.5t-65 -25.5q-37 0 -62 25.5t-25 63.5z" />
    <glyph glyph-name="cent" unicode="&#xa2;" horiz-adv-x="531" 
d="M255 644h68v-48q101 -8 168 -75l-87 -86q-29 35 -81 43v-276q56 8 86 49l92 -80q-64 -80 -178 -88v-56h-68v58q-97 15 -157 85t-60 170q0 99 60.5 170t156.5 85v49zM173 340q0 -48 22 -83t60 -49v264q-38 -14 -60 -49t-22 -83z" />
    <glyph glyph-name="sterling" unicode="&#xa3;" horiz-adv-x="597" 
d="M43 276v101h91q-36 68 -36 114q0 97 65 159t179 62q129 0 225 -88l-79 -100q-66 53 -140 53q-48 0 -73 -28.5t-25 -67.5q0 -17 3.5 -33t7 -24.5t11 -24.5t10.5 -22h170v-101h-159q-12 -95 -79 -146q33 16 66 16q30 0 76 -12.5t69 -12.5q42 0 88 33l53 -121
q-77 -45 -151 -45q-51 0 -112 22.5t-97 22.5q-47 0 -107 -37l-58 111q110 61 119 169h-117z" />
    <glyph glyph-name="currency" unicode="&#xa4;" horiz-adv-x="628" 
d="M555 343q0 -74 -38 -133l69 -68l-71 -71l-69 70q-57 -34 -132 -34t-132 34l-69 -70l-71 71l69 68q-37 59 -37 133q0 76 38 132l-70 69l71 71l69 -71q59 35 132 35q74 0 131 -35l70 71l71 -71l-70 -68q39 -59 39 -133zM432 343q0 53 -31.5 90.5t-86.5 37.5t-86 -37.5
t-31 -90.5t31.5 -91t85.5 -38q55 0 86.5 38t31.5 91z" />
    <glyph glyph-name="yen" unicode="&#xa5;" horiz-adv-x="733" 
d="M289 298h-172v78h120l-215 324h174l169 -265l169 265h175l-216 -324h132v-78h-184v-65h184v-78h-184v-155h-152v155h-172v78h172v65z" />
    <glyph glyph-name="brokenbar" unicode="&#xa6;" horiz-adv-x="253" 
d="M72 720h109v-310h-109v310zM72 290h109v-310h-109v310z" />
    <glyph glyph-name="section" unicode="&#xa7;" horiz-adv-x="495" 
d="M347 312q0 53 -111 73q-32 0 -56 -17t-24 -49t36.5 -50t69.5 -18q32 0 58.5 15t26.5 46zM255 -81q-122 0 -215 82l54 84q77 -70 166 -70q32 0 58.5 15t26.5 46q0 29 -30.5 45t-74 24.5t-87 21t-74 47.5t-30.5 92q0 35 23 69t57 49q-78 41 -78 123t54.5 123.5t136.5 41.5
q115 0 191 -67l-53 -82q-63 52 -139 52q-33 0 -58 -13t-25 -44q0 -26 30 -40.5t73 -23t86.5 -22.5t73.5 -51t30 -96q0 -34 -21 -63t-52 -46q37 -25 54 -54t17 -73q0 -78 -57.5 -124t-136.5 -46z" />
    <glyph glyph-name="dieresis" unicode="&#xa8;" horiz-adv-x="471" 
d="M47 633q0 33 23 56t57 23t57.5 -23t23.5 -56t-23.5 -56t-57.5 -23t-57 23t-23 56zM262 633q0 33 23 56t57 23t57.5 -23t23.5 -56t-23.5 -56t-57.5 -23t-57 23t-23 56z" />
    <glyph glyph-name="copyright" unicode="&#xa9;" horiz-adv-x="792" 
d="M529 241l43 -34q-62 -72 -168 -72q-95 0 -157 61.5t-62 156.5t62 156.5t157 61.5q99 0 161 -65l-38 -40q-47 54 -123 54q-70 0 -116.5 -47.5t-46.5 -119.5t46.5 -119.5t116.5 -47.5q76 0 125 55zM34 350q0 150 106 256t256 106t256 -106t106 -256t-106 -256t-256 -106
t-256 106t-106 256zM88 350q0 -128 90.5 -220.5t217.5 -92.5t217.5 92.5t90.5 220.5t-90.5 220.5t-217.5 92.5t-217.5 -92.5t-90.5 -220.5z" />
    <glyph glyph-name="ordfeminine" unicode="&#xaa;" horiz-adv-x="393" 
d="M196 693q66 0 104.5 -32.5t38.5 -88.5v-211h-92v29q-36 -36 -92 -36q-52 0 -86.5 31t-34.5 77q0 49 39.5 79t104.5 30q33 0 69 -14v13q0 21 -17.5 33.5t-50.5 12.5q-57 0 -89 -25l-37 64q68 38 143 38zM179 421q27 0 46.5 13t21.5 33v34q-27 10 -58 10q-29 0 -48 -13
t-19 -34q0 -19 15.5 -31t41.5 -12z" />
    <glyph glyph-name="guillemotleft" unicode="&#xab;" horiz-adv-x="661" 
d="M28 347l180 222h140l-183 -222l183 -222h-140zM303 347l180 222h140l-183 -222l183 -222h-140z" />
    <glyph glyph-name="logicalnot" unicode="&#xac;" horiz-adv-x="530" 
d="M470 461v-306h-110v207h-330v99h440z" />
    <glyph glyph-name="registered" unicode="&#xae;" horiz-adv-x="428" 
d="M144 631h84q32 0 49.5 -18.5t17.5 -43.5q0 -44 -45 -59l43 -74h-29l-39 72h-55v-72h-26v195zM170 529h56q20 0 32 12t12 29q0 16 -12 28t-32 12h-56v-81zM33 531q0 75 53 128t128 53t128 -53t53 -128t-53 -128t-128 -53t-128 53t-53 128zM56 531q0 -66 46 -113t112 -47
t112 47t46 113t-46 113t-112 47t-112 -47t-46 -113z" />
    <glyph glyph-name="macron" unicode="&#xaf;" horiz-adv-x="433" 
d="M398 577h-363v81h363v-81z" />
    <glyph glyph-name="degree" unicode="&#xb0;" horiz-adv-x="372" 
d="M342 560q0 -65 -43.5 -108.5t-112.5 -43.5t-112.5 43.5t-43.5 108.5t43.5 108.5t112.5 43.5t112.5 -43.5t43.5 -108.5zM262 560q0 34 -20.5 58t-55.5 24t-55.5 -24t-20.5 -58t20.5 -58t55.5 -24t55.5 24t20.5 58z" />
    <glyph glyph-name="plusminus" unicode="&#xb1;" horiz-adv-x="531" 
d="M484 347h-162v-183h-110v183h-165v99h165v168h110v-168h162v-99zM484 0h-437v99h437v-99z" />
    <glyph glyph-name="twosuperior" unicode="&#xb2;" horiz-adv-x="386" 
d="M84 749l-43 68q70 53 151 53q66 0 107 -37.5t41 -92.5q0 -70 -86 -145q-35 -30 -92 -73h179v-79h-303v79q162 129 192 166q17 20 17 44t-16.5 40.5t-44.5 16.5q-53 0 -102 -40z" />
    <glyph glyph-name="threesuperior" unicode="&#xb3;" horiz-adv-x="369" 
d="M168 619h-55v79h67q25 0 39.5 12.5t14.5 35.5q0 20 -18 31.5t-45 11.5q-55 0 -105 -36l-37 67q66 50 157 50q50 0 93.5 -28t43.5 -80q0 -62 -62 -102q35 -8 56 -36t21 -64q0 -54 -45 -89t-113 -35q-99 0 -165 62l47 64q52 -46 117 -46q30 0 49 13.5t20 35.5q-2 54 -80 54
z" />
    <glyph glyph-name="acute" unicode="&#xb4;" horiz-adv-x="353" 
d="M313 750l-175 -178h-98l137 178h136z" />
    <glyph glyph-name="mu" unicode="&#xb5;" horiz-adv-x="604" 
d="M397 0v55q-23 -31 -62.5 -49t-78.5 -18q-23 0 -48 5v-116h-138v615h138v-317q0 -40 28.5 -58.5t60.5 -18.5q39 0 68.5 20.5t31.5 58.5v315h138v-492h-138z" />
    <glyph glyph-name="paragraph" unicode="&#xb6;" horiz-adv-x="634" 
d="M26 511q0 79 56.5 134t136.5 55h328v-807h-106v720h-117v-720h-106v429q-79 0 -135.5 55.5t-56.5 133.5z" />
    <glyph glyph-name="periodcentered" unicode="&#xb7;" horiz-adv-x="260" 
d="M41 359q0 38 25 63.5t62 25.5q39 0 65 -25.5t26 -63.5q0 -36 -26 -61t-65 -25q-37 0 -62 25t-25 61z" />
    <glyph glyph-name="cedilla" unicode="&#xb8;" horiz-adv-x="289" 
d="M109 0h56l-39 -54q18 4 30 4q38 0 65.5 -20t27.5 -59q0 -35 -27.5 -58.5t-79.5 -23.5q-61 0 -102 37l33 38q32 -24 69 -24q22 0 36 10t14 23q0 17 -14 26.5t-34 9.5q-29 0 -47 -16l-39 27z" />
    <glyph glyph-name="onesuperior" unicode="&#xb9;" horiz-adv-x="246" 
d="M39 745l-36 74l96 44h91v-420h-91v329z" />
    <glyph glyph-name="ordmasculine" unicode="&#xba;" horiz-adv-x="408" 
d="M377 523q0 -73 -49.5 -121t-123.5 -48q-76 0 -124.5 47.5t-48.5 121.5t48.5 122t124.5 48q75 0 124 -48t49 -122zM288 523q0 41 -23.5 67t-60.5 26t-60.5 -26t-23.5 -67q0 -40 23.5 -66t60.5 -26t60.5 26t23.5 66z" />
    <glyph glyph-name="guillemotright" unicode="&#xbb;" horiz-adv-x="661" 
d="M453 569l180 -222l-180 -222h-140l183 222l-183 222h140zM178 569l180 -222l-180 -222h-140l183 222l-183 222h140z" />
    <glyph glyph-name="onequarter" unicode="&#xbc;" horiz-adv-x="814" 
d="M422 98v78l185 244h110v-244h66v-78h-66v-98h-91v98h-204zM86 0l493 700h90l-493 -700h-90zM63 582l-36 74l96 44h91v-420h-91v329zM514 176h112v147z" />
    <glyph glyph-name="onehalf" unicode="&#xbd;" horiz-adv-x="845" 
d="M549 306l-43 68q70 53 151 53q91 0 130.5 -66t-4.5 -140q-29 -48 -156 -142h179v-79h-303v79q163 130 192 166q27 30 12.5 65.5t-56.5 35.5q-53 0 -102 -40zM86 0l493 700h90l-493 -700h-90zM63 582l-36 74l96 44h91v-420h-91v329z" />
    <glyph glyph-name="threequarters" unicode="&#xbe;" horiz-adv-x="907" 
d="M517 98v78l185 244h110v-244h66v-78h-66v-98h-91v98h-204zM180 456h-55v79h67q25 0 39.5 12.5t14.5 35.5q0 20 -18 31.5t-45 11.5q-55 0 -105 -36l-37 67q66 50 157 50q57 0 95.5 -28.5t41.5 -70.5q5 -69 -62 -111q36 -8 57 -36t20 -64q0 -54 -45 -89t-113 -35
q-99 0 -165 62l47 64q52 -46 117 -46q30 0 49 13.5t20 35.5q-2 54 -80 54zM181 0l493 700h90l-493 -700h-90zM609 176h112v147z" />
    <glyph glyph-name="questiondown" unicode="&#xbf;" horiz-adv-x="496" 
d="M19 -122l78 107q7 -7 19 -17.5t49 -27.5t72 -17q38 0 59 18.5t21 48.5q0 26 -25.5 49.5t-62 50.5t-52.5 51q-14 21 -18 42.5t-4 65.5v29h140v-15q0 -54 7 -68q8 -15 28 -32t41.5 -33.5t42.5 -37.5t34.5 -52.5t13.5 -70.5q0 -81 -59.5 -131t-153.5 -50q-135 0 -230 90z
M142 426q0 36 25 61t62 25q39 0 65 -25t26 -61q0 -38 -26 -63.5t-65 -25.5q-37 0 -62 25.5t-25 63.5z" />
    <glyph glyph-name="Agrave" unicode="&#xc0;" 
d="M274 700h150l270 -700h-161l-48 133h-273l-47 -133h-161zM349 515l-90 -251h179zM296 769l-175 178h136l137 -178h-98z" />
    <glyph glyph-name="Aacute" unicode="&#xc1;" 
d="M274 700h150l270 -700h-161l-48 133h-273l-47 -133h-161zM349 515l-90 -251h179zM577 947l-175 -178h-98l137 178h136z" />
    <glyph glyph-name="Acircumflex" unicode="&#xc2;" 
d="M274 700h150l270 -700h-161l-48 133h-273l-47 -133h-161zM438 769l-89 111l-89 -111h-88l123 178h108l123 -178h-88zM349 515l-90 -251h179z" />
    <glyph glyph-name="Atilde" unicode="&#xc3;" 
d="M274 700h150l270 -700h-161l-48 133h-273l-47 -133h-161zM424 778q-36 0 -84.5 25t-70.5 25t-36 -13.5t-29 -40.5l-60 41q54 103 129 103q35 0 86 -25t69 -25q22 0 36 13.5t29 40.5l61 -41q-54 -103 -130 -103zM349 515l-90 -251h179z" />
    <glyph glyph-name="Adieresis" unicode="&#xc4;" 
d="M274 700h150l270 -700h-161l-48 133h-273l-47 -133h-161zM349 515l-90 -251h179zM162 857q0 33 23 56t57 23t57.5 -23t23.5 -56t-23.5 -56t-57.5 -23t-57 23t-23 56zM377 857q0 33 23 56t57 23t57.5 -23t23.5 -56t-23.5 -56t-57.5 -23t-57 23t-23 56z" />
    <glyph glyph-name="Aring" unicode="&#xc5;" 
d="M274 700h150l270 -700h-161l-48 133h-273l-47 -133h-161zM447 845q0 -41 -27.5 -68t-70.5 -27t-70 27.5t-27 67.5q0 41 27 68.5t70 27.5q44 0 71 -27.5t27 -68.5zM349 515l-90 -251h179zM394 845q0 21 -12 35t-33 14t-32.5 -14t-11.5 -35q0 -20 11.5 -34.5t32.5 -14.5
t33 14.5t12 34.5z" />
    <glyph glyph-name="AE" unicode="&#xc6;" horiz-adv-x="985" 
d="M933 700v-131h-323v-152h298v-131h-298v-155h332v-131h-484v133h-227l-77 -133h-169l408 700h540zM458 529l-151 -265h151v265z" />
    <glyph glyph-name="Ccedilla" unicode="&#xc7;" horiz-adv-x="679" 
d="M344 -108l-41 27l46 72q-139 17 -226.5 116.5t-87.5 242.5q0 157 103 259.5t261 102.5q149 0 258 -107l-99 -100q-29 34 -71.5 53t-87.5 19q-91 0 -150 -64t-59 -163t59 -163t150 -64q98 0 163 80l108 -88q-103 -124 -266 -127l-31 -43q18 4 30 4q38 0 65.5 -20t27.5 -59
q0 -35 -27.5 -58.5t-79.5 -23.5q-61 0 -102 37l33 38q32 -24 69 -24q22 0 36 10t14 23q0 17 -14 26.5t-34 9.5q-29 0 -47 -16z" />
    <glyph glyph-name="Egrave" unicode="&#xc8;" horiz-adv-x="603" 
d="M312 769l-175 178h136l137 -178h-98zM560 131v-131h-484v700h475v-131h-323v-152h298v-131h-298v-155h332z" />
    <glyph glyph-name="Eacute" unicode="&#xc9;" horiz-adv-x="603" 
d="M506 947l-175 -178h-98l137 178h136zM560 131v-131h-484v700h475v-131h-323v-152h298v-131h-298v-155h332z" />
    <glyph glyph-name="Ecircumflex" unicode="&#xca;" horiz-adv-x="603" 
d="M403 769l-89 111l-89 -111h-88l123 178h108l123 -178h-88zM560 131v-131h-484v700h475v-131h-323v-152h298v-131h-298v-155h332z" />
    <glyph glyph-name="Edieresis" unicode="&#xcb;" horiz-adv-x="603" 
d="M560 131v-131h-484v700h475v-131h-323v-152h298v-131h-298v-155h332zM130 857q0 33 23 56t57 23t57.5 -23t23.5 -56t-23.5 -56t-57.5 -23t-57 23t-23 56zM345 857q0 33 23 56t57 23t57.5 -23t23.5 -56t-23.5 -56t-57.5 -23t-57 23t-23 56z" />
    <glyph glyph-name="Igrave" unicode="&#xcc;" horiz-adv-x="304" 
d="M228 700v-700h-152v700h152zM107 769l-175 178h136l137 -178h-98z" />
    <glyph glyph-name="Iacute" unicode="&#xcd;" horiz-adv-x="304" 
d="M76 0v700h152v-700h-152zM372 947l-175 -178h-98l137 178h136z" />
    <glyph glyph-name="Icircumflex" unicode="&#xce;" horiz-adv-x="304" 
d="M228 700v-700h-152v700h152zM241 769l-89 111l-89 -111h-88l123 178h108l123 -178h-88z" />
    <glyph glyph-name="Idieresis" unicode="&#xcf;" horiz-adv-x="304" 
d="M228 700v-700h-152v700h152zM-36 857q0 33 23 56t57 23t57.5 -23t23.5 -56t-23.5 -56t-57.5 -23t-57 23t-23 56zM179 857q0 33 23 56t57 23t57.5 -23t23.5 -56t-23.5 -56t-57.5 -23t-57 23t-23 56z" />
    <glyph glyph-name="Eth" unicode="&#xd0;" horiz-adv-x="753" 
d="M367 0h-263v290h-90v120h90v290h262q153 0 252 -98.5t99 -251.5q0 -152 -99 -251t-251 -99zM256 131h106q89 0 144 60.5t55 158.5q0 99 -54.5 159t-144.5 60h-106v-159h136v-120h-136v-159z" />
    <glyph glyph-name="Ntilde" unicode="&#xd1;" horiz-adv-x="756" 
d="M680 700v-700h-152l-300 454v-454h-152v700h152l300 -453v453h152zM449 778q-36 0 -84.5 25t-70.5 25t-36 -13.5t-29 -40.5l-60 41q54 103 129 103q36 0 87 -25t68 -25q22 0 36 13.5t29 40.5l61 -41q-54 -103 -130 -103z" />
    <glyph glyph-name="Ograve" unicode="&#xd2;" horiz-adv-x="798" 
d="M763 350q0 -157 -104 -259.5t-260 -102.5t-260 102.5t-104 259.5t104 259.5t260 102.5t260 -102.5t104 -259.5zM607 350q0 96 -57 161.5t-151 65.5t-151 -65.5t-57 -161.5t57 -161.5t151 -65.5t151 65.5t57 161.5zM352 769l-175 178h136l137 -178h-98z" />
    <glyph glyph-name="Oacute" unicode="&#xd3;" horiz-adv-x="798" 
d="M763 350q0 -157 -104 -259.5t-260 -102.5t-260 102.5t-104 259.5t104 259.5t260 102.5t260 -102.5t104 -259.5zM607 350q0 96 -57 161.5t-151 65.5t-151 -65.5t-57 -161.5t57 -161.5t151 -65.5t151 65.5t57 161.5zM621 947l-175 -178h-98l137 178h136z" />
    <glyph glyph-name="Ocircumflex" unicode="&#xd4;" horiz-adv-x="798" 
d="M763 350q0 -157 -104 -259.5t-260 -102.5t-260 102.5t-104 259.5t104 259.5t260 102.5t260 -102.5t104 -259.5zM607 350q0 96 -57 161.5t-151 65.5t-151 -65.5t-57 -161.5t57 -161.5t151 -65.5t151 65.5t57 161.5zM488 769l-89 111l-89 -111h-88l123 178h108l123 -178
h-88z" />
    <glyph glyph-name="Otilde" unicode="&#xd5;" horiz-adv-x="798" 
d="M763 350q0 -157 -104 -259.5t-260 -102.5t-260 102.5t-104 259.5t104 259.5t260 102.5t260 -102.5t104 -259.5zM607 350q0 96 -57 161.5t-151 65.5t-151 -65.5t-57 -161.5t57 -161.5t151 -65.5t151 65.5t57 161.5zM474 778q-36 0 -84.5 25t-70.5 25t-36 -13.5t-29 -40.5
l-60 41q54 103 129 103q35 0 86 -25t69 -25q22 0 36 13.5t29 40.5l61 -41q-54 -103 -130 -103z" />
    <glyph glyph-name="Odieresis" unicode="&#xd6;" horiz-adv-x="798" 
d="M763 350q0 -157 -104 -259.5t-260 -102.5t-260 102.5t-104 259.5t104 259.5t260 102.5t260 -102.5t104 -259.5zM607 350q0 96 -57 161.5t-151 65.5t-151 -65.5t-57 -161.5t57 -161.5t151 -65.5t151 65.5t57 161.5zM211 857q0 33 23 56t57 23t57.5 -23t23.5 -56t-23.5 -56
t-57.5 -23t-57 23t-23 56zM426 857q0 33 23 56t57 23t57.5 -23t23.5 -56t-23.5 -56t-57.5 -23t-57 23t-23 56z" />
    <glyph glyph-name="multiply" unicode="&#xd7;" horiz-adv-x="512" 
d="M256 248l-93 -141h-135l161 226l-149 217h130l86 -136l86 136h131l-150 -217l161 -226h-134z" />
    <glyph glyph-name="Oslash" unicode="&#xd8;" horiz-adv-x="798" 
d="M65 0l72 92q-102 102 -102 258q0 157 104 259.5t260 102.5q101 0 186 -47l28 35h117l-71 -91q104 -102 104 -259t-104 -259.5t-260 -102.5q-104 0 -189 48l-28 -36h-117zM607 350q0 78 -41 140l-268 -342q45 -25 101 -25q94 0 151 65.5t57 161.5zM191 350q0 -79 39 -138
l268 341q-46 24 -99 24q-94 0 -151 -65.5t-57 -161.5z" />
    <glyph glyph-name="Ugrave" unicode="&#xd9;" horiz-adv-x="736" 
d="M368 -12q-133 0 -216 76t-83 197v439h152v-439q0 -61 41 -99.5t106 -38.5t106 38.5t41 99.5v439h152v-439q0 -121 -83 -197t-216 -76zM317 769l-175 178h136l137 -178h-98z" />
    <glyph glyph-name="Uacute" unicode="&#xda;" horiz-adv-x="736" 
d="M368 -12q-133 0 -216 76t-83 197v439h152v-439q0 -61 41 -99.5t106 -38.5t106 38.5t41 99.5v439h152v-439q0 -121 -83 -197t-216 -76zM594 947l-175 -178h-98l137 178h136z" />
    <glyph glyph-name="Ucircumflex" unicode="&#xdb;" horiz-adv-x="736" 
d="M368 -12q-133 0 -216 76t-83 197v439h152v-439q0 -61 41 -99.5t106 -38.5t106 38.5t41 99.5v439h152v-439q0 -121 -83 -197t-216 -76zM457 769l-89 111l-89 -111h-88l123 178h108l123 -178h-88z" />
    <glyph glyph-name="Udieresis" unicode="&#xdc;" horiz-adv-x="736" 
d="M368 -12q-133 0 -216 76t-83 197v439h152v-439q0 -61 41 -99.5t106 -38.5t106 38.5t41 99.5v439h152v-439q0 -121 -83 -197t-216 -76zM180 857q0 33 23 56t57 23t57.5 -23t23.5 -56t-23.5 -56t-57.5 -23t-57 23t-23 56zM395 857q0 33 23 56t57 23t57.5 -23t23.5 -56
t-23.5 -56t-57.5 -23t-57 23t-23 56z" />
    <glyph glyph-name="Yacute" unicode="&#xdd;" horiz-adv-x="684" 
d="M6 700h176l160 -311l161 311h176l-261 -461v-239h-152v239zM558 947l-175 -178h-98l137 178h136z" />
    <glyph glyph-name="Thorn" unicode="&#xde;" horiz-adv-x="657" 
d="M228 700v-116h145q121 0 188 -69t67 -164t-66.5 -164t-187.5 -69h-146v-118h-152v700h152zM228 249h142q48 0 75.5 30.5t27.5 71.5q0 42 -27 72t-76 30h-142v-204z" />
    <glyph glyph-name="germandbls" unicode="&#xdf;" horiz-adv-x="613" 
d="M312 712q108 0 171.5 -54.5t63.5 -133.5q0 -55 -29 -101.5t-71 -63.5q62 -16 97.5 -64.5t35.5 -114.5q0 -86 -60.5 -139t-155.5 -53q-54 0 -108 22l31 107q33 -11 60 -11q48 0 74 27t26 63q0 38 -28 65.5t-79 27.5h-39v119h20q42 0 65.5 26.5t23.5 64.5q0 40 -26.5 67.5
t-74.5 27.5q-106 0 -106 -138v-456h-139v448q0 125 65 194.5t183 69.5z" />
    <glyph glyph-name="agrave" unicode="&#xe0;" horiz-adv-x="552" 
d="M259 572l-175 178h136l137 -178h-98zM275 504q100 0 159 -49.5t59 -133.5v-321h-139v45q-55 -57 -142 -57q-78 0 -130.5 47.5t-52.5 117.5q0 75 60 120.5t159 45.5q49 0 106 -21v18q0 33 -27.5 51.5t-76.5 18.5q-38 0 -76.5 -10.5t-58.5 -26.5l-58 98q109 57 218 57z
M250 90q42 0 73 22.5t31 53.5v46q-42 16 -89 16q-45 0 -73.5 -20t-28.5 -51q0 -30 24 -48.5t63 -18.5z" />
    <glyph glyph-name="aacute" unicode="&#xe1;" horiz-adv-x="552" 
d="M481 750l-175 -178h-98l137 178h136zM275 504q100 0 159 -49.5t59 -133.5v-321h-139v45q-55 -57 -142 -57q-78 0 -130.5 47.5t-52.5 117.5q0 75 60 120.5t159 45.5q49 0 106 -21v18q0 33 -27.5 51.5t-76.5 18.5q-38 0 -76.5 -10.5t-58.5 -26.5l-58 98q109 57 218 57z
M250 90q42 0 73 22.5t31 53.5v46q-42 16 -89 16q-45 0 -73.5 -20t-28.5 -51q0 -30 24 -48.5t63 -18.5z" />
    <glyph glyph-name="acircumflex" unicode="&#xe2;" horiz-adv-x="552" 
d="M364 572l-89 111l-89 -111h-88l123 178h108l123 -178h-88zM275 504q100 0 159 -49.5t59 -133.5v-321h-139v45q-55 -57 -142 -57q-78 0 -130.5 47.5t-52.5 117.5q0 75 60 120.5t159 45.5q49 0 106 -21v18q0 33 -27.5 51.5t-76.5 18.5q-38 0 -76.5 -10.5t-58.5 -26.5
l-58 98q109 57 218 57zM250 90q42 0 73 22.5t31 53.5v46q-42 16 -89 16q-45 0 -73.5 -20t-28.5 -51q0 -30 24 -48.5t63 -18.5z" />
    <glyph glyph-name="atilde" unicode="&#xe3;" horiz-adv-x="552" 
d="M339 587q-36 0 -84.5 25t-70.5 25t-36 -13.5t-29 -40.5l-60 41q54 103 129 103q36 0 87 -25t68 -25q22 0 36 13.5t29 40.5l61 -41q-54 -103 -130 -103zM275 504q100 0 159 -49.5t59 -133.5v-321h-139v45q-55 -57 -142 -57q-78 0 -130.5 47.5t-52.5 117.5q0 75 60 120.5
t159 45.5q49 0 106 -21v18q0 33 -27.5 51.5t-76.5 18.5q-38 0 -76.5 -10.5t-58.5 -26.5l-58 98q109 57 218 57zM250 90q42 0 73 22.5t31 53.5v46q-42 16 -89 16q-45 0 -73.5 -20t-28.5 -51q0 -30 24 -48.5t63 -18.5z" />
    <glyph glyph-name="adieresis" unicode="&#xe4;" horiz-adv-x="552" 
d="M275 504q100 0 159 -49.5t59 -133.5v-321h-139v45q-55 -57 -142 -57q-78 0 -130.5 47.5t-52.5 117.5q0 75 60 120.5t159 45.5q49 0 106 -21v18q0 33 -27.5 51.5t-76.5 18.5q-38 0 -76.5 -10.5t-58.5 -26.5l-58 98q109 57 218 57zM250 90q42 0 73 22.5t31 53.5v46
q-42 16 -89 16q-45 0 -73.5 -20t-28.5 -51q0 -30 24 -48.5t63 -18.5zM90 659q0 31 22.5 53t53.5 22q32 0 54.5 -22t22.5 -53t-22.5 -53t-54.5 -22q-31 0 -53.5 22t-22.5 53zM313 659q0 31 22.5 53t53.5 22q32 0 54.5 -22t22.5 -53t-22.5 -53t-54.5 -22q-31 0 -53.5 22
t-22.5 53z" />
    <glyph glyph-name="aring" unicode="&#xe5;" horiz-adv-x="552" 
d="M379 661q0 -41 -27.5 -68t-70.5 -27t-70 27.5t-27 67.5q0 41 27 68.5t70 27.5q44 0 71 -27.5t27 -68.5zM326 661q0 21 -12 35t-33 14t-32.5 -14t-11.5 -35q0 -20 11.5 -34.5t32.5 -14.5t33 14.5t12 34.5zM275 504q100 0 159 -49.5t59 -133.5v-321h-139v45
q-55 -57 -142 -57q-78 0 -130.5 47.5t-52.5 117.5q0 75 60 120.5t159 45.5q49 0 106 -21v18q0 33 -27.5 51.5t-76.5 18.5q-38 0 -76.5 -10.5t-58.5 -26.5l-58 98q109 57 218 57zM250 90q42 0 73 22.5t31 53.5v46q-42 16 -89 16q-45 0 -73.5 -20t-28.5 -51q0 -30 24 -48.5
t63 -18.5z" />
    <glyph glyph-name="ae" unicode="&#xe6;" horiz-adv-x="886" 
d="M609 390q-40 0 -71 -25t-41 -67h226q-7 41 -39.5 66.5t-74.5 25.5zM250 90q42 0 73 22.5t31 53.5v46q-42 16 -89 16q-45 0 -73.5 -20t-28.5 -51q0 -30 24 -48.5t63 -18.5zM57 447q108 57 203 57q101 0 168 -74q72 74 178 74q107 0 177.5 -70.5t70.5 -177.5v-52h-360
q11 -45 47.5 -72.5t86.5 -27.5q67 0 117 50l74 -86q-36 -39 -90 -59.5t-106 -20.5q-70 0 -127.5 28.5t-92.5 79.5q-66 -108 -191 -108q-78 0 -130.5 47.5t-52.5 117.5q0 75 60 120.5t159 45.5q49 0 106 -21v18q0 33 -27.5 51.5t-76.5 18.5q-38 0 -76.5 -10.5t-58.5 -26.5z
" />
    <glyph glyph-name="ccedilla" unicode="&#xe7;" horiz-adv-x="510" 
d="M242 -107l-39 27l45 72q-94 16 -154.5 86t-60.5 168q0 110 76 184t188 74q115 0 190 -78l-86 -86q-36 46 -103 46q-56 0 -90.5 -39t-34.5 -101t35.5 -101t91.5 -39q69 0 106 51l90 -81q-69 -86 -195 -88l-30 -42q18 4 30 4q38 0 65.5 -20t27.5 -59q0 -35 -27.5 -58.5
t-79.5 -23.5q-61 0 -102 37l33 38q32 -24 69 -24q22 0 36 10t14 23q0 17 -14 26.5t-34 9.5q-29 0 -47 -16z" />
    <glyph glyph-name="egrave" unicode="&#xe8;" horiz-adv-x="563" 
d="M263 572l-175 178h136l137 -178h-98zM496 68q-36 -39 -90 -59.5t-106 -20.5q-115 0 -190.5 73.5t-75.5 186.5q0 109 71.5 182.5t177.5 73.5q107 0 177.5 -70.5t70.5 -177.5v-52h-360q11 -45 47.5 -72.5t86.5 -27.5q67 0 117 50zM286 390q-40 0 -71 -25t-41 -67h226
q-7 41 -39.5 66.5t-74.5 25.5z" />
    <glyph glyph-name="eacute" unicode="&#xe9;" horiz-adv-x="563" 
d="M490 750l-175 -178h-98l137 178h136zM496 68q-36 -39 -90 -59.5t-106 -20.5q-115 0 -190.5 73.5t-75.5 186.5q0 109 71.5 182.5t177.5 73.5q107 0 177.5 -70.5t70.5 -177.5v-52h-360q11 -45 47.5 -72.5t86.5 -27.5q67 0 117 50zM286 390q-40 0 -71 -25t-41 -67h226
q-7 41 -39.5 66.5t-74.5 25.5z" />
    <glyph glyph-name="ecircumflex" unicode="&#xea;" horiz-adv-x="563" 
d="M372 572l-89 111l-89 -111h-88l123 178h108l123 -178h-88zM496 68q-36 -39 -90 -59.5t-106 -20.5q-115 0 -190.5 73.5t-75.5 186.5q0 109 71.5 182.5t177.5 73.5q107 0 177.5 -70.5t70.5 -177.5v-52h-360q11 -45 47.5 -72.5t86.5 -27.5q67 0 117 50zM286 390
q-40 0 -71 -25t-41 -67h226q-7 41 -39.5 66.5t-74.5 25.5z" />
    <glyph glyph-name="edieresis" unicode="&#xeb;" horiz-adv-x="563" 
d="M496 68q-36 -39 -90 -59.5t-106 -20.5q-115 0 -190.5 73.5t-75.5 186.5q0 109 71.5 182.5t177.5 73.5q107 0 177.5 -70.5t70.5 -177.5v-52h-360q11 -45 47.5 -72.5t86.5 -27.5q67 0 117 50zM286 390q-40 0 -71 -25t-41 -67h226q-7 41 -39.5 66.5t-74.5 25.5zM94 659
q0 31 22.5 53t53.5 22q32 0 54.5 -22t22.5 -53t-22.5 -53t-54.5 -22q-31 0 -53.5 22t-22.5 53zM317 659q0 31 22.5 53t53.5 22q32 0 54.5 -22t22.5 -53t-22.5 -53t-54.5 -22q-31 0 -53.5 22t-22.5 53z" />
    <glyph glyph-name="igrave" unicode="&#xec;" horiz-adv-x="267" 
d="M203 492v-492h-139v492h139zM105 572l-175 178h136l137 -178h-98z" />
    <glyph glyph-name="iacute" unicode="&#xed;" horiz-adv-x="267" 
d="M203 492v-492h-139v492h139zM337 750l-175 -178h-98l137 178h136z" />
    <glyph glyph-name="icircumflex" unicode="&#xee;" horiz-adv-x="267" 
d="M203 492v-492h-139v492h139zM222 572l-89 111l-89 -111h-88l123 178h108l123 -178h-88z" />
    <glyph glyph-name="idieresis" unicode="&#xef;" horiz-adv-x="267" 
d="M203 492v-492h-139v492h139zM-55 659q0 31 22.5 53t53.5 22q32 0 54.5 -22t22.5 -53t-22.5 -53t-54.5 -22q-31 0 -53.5 22t-22.5 53zM168 659q0 31 22.5 53t53.5 22q32 0 54.5 -22t22.5 -53t-22.5 -53t-54.5 -22q-31 0 -53.5 22t-22.5 53z" />
    <glyph glyph-name="eth" unicode="&#xf0;" horiz-adv-x="594" 
d="M150 472l-35 46l88 54q-34 20 -65 32l66 98q61 -27 110 -61l107 67l35 -46l-92 -57q90 -74 142.5 -168.5t52.5 -202.5q0 -103 -69 -174.5t-194 -71.5q-114 0 -188.5 68.5t-74.5 172.5q0 105 72.5 170t186.5 65q25 0 50 -7q-36 43 -86 81zM424 229q0 58 -35.5 94.5
t-92.5 36.5q-56 0 -92 -36.5t-36 -94.5q0 -57 36 -93.5t92 -36.5t92 36.5t36 93.5z" />
    <glyph glyph-name="ntilde" unicode="&#xf1;" horiz-adv-x="590" 
d="M203 492v-59q50 71 148 71q80 0 130 -50.5t50 -132.5v-321h-139v304q0 36 -25.5 59t-65.5 23q-42 0 -70 -25.5t-28 -66.5v-294h-139v492h139zM377 587q-36 0 -84.5 25t-70.5 25t-36 -13.5t-29 -40.5l-60 41q54 103 129 103q36 0 87 -25t68 -25q22 0 36 13.5t29 40.5
l61 -41q-54 -103 -130 -103z" />
    <glyph glyph-name="ograve" unicode="&#xf2;" horiz-adv-x="594" 
d="M250 572l-175 178h136l137 -178h-98zM421 246q0 62 -34.5 101t-89.5 39t-89.5 -39t-34.5 -101t34.5 -101t89.5 -39t89.5 39t34.5 101zM561 246q0 -109 -76 -183.5t-188 -74.5t-188 74.5t-76 183.5t76 183.5t188 74.5t188 -74.5t76 -183.5z" />
    <glyph glyph-name="oacute" unicode="&#xf3;" horiz-adv-x="594" 
d="M516 750l-175 -178h-98l137 178h136zM421 246q0 62 -34.5 101t-89.5 39t-89.5 -39t-34.5 -101t34.5 -101t89.5 -39t89.5 39t34.5 101zM561 246q0 -109 -76 -183.5t-188 -74.5t-188 74.5t-76 183.5t76 183.5t188 74.5t188 -74.5t76 -183.5z" />
    <glyph glyph-name="ocircumflex" unicode="&#xf4;" horiz-adv-x="594" 
d="M386 572l-89 111l-89 -111h-88l123 178h108l123 -178h-88zM421 246q0 62 -34.5 101t-89.5 39t-89.5 -39t-34.5 -101t34.5 -101t89.5 -39t89.5 39t34.5 101zM561 246q0 -109 -76 -183.5t-188 -74.5t-188 74.5t-76 183.5t76 183.5t188 74.5t188 -74.5t76 -183.5z" />
    <glyph glyph-name="otilde" unicode="&#xf5;" horiz-adv-x="594" 
d="M372 587q-36 0 -84.5 25t-70.5 25t-36 -13.5t-29 -40.5l-60 41q54 103 129 103q35 0 86 -25t69 -25q22 0 36 13.5t29 40.5l61 -41q-54 -103 -130 -103zM421 246q0 62 -34.5 101t-89.5 39t-89.5 -39t-34.5 -101t34.5 -101t89.5 -39t89.5 39t34.5 101zM561 246
q0 -109 -76 -183.5t-188 -74.5t-188 74.5t-76 183.5t76 183.5t188 74.5t188 -74.5t76 -183.5z" />
    <glyph glyph-name="odieresis" unicode="&#xf6;" horiz-adv-x="594" 
d="M421 246q0 62 -34.5 101t-89.5 39t-89.5 -39t-34.5 -101t34.5 -101t89.5 -39t89.5 39t34.5 101zM561 246q0 -109 -76 -183.5t-188 -74.5t-188 74.5t-76 183.5t76 183.5t188 74.5t188 -74.5t76 -183.5zM109 659q0 31 22.5 53t53.5 22q32 0 54.5 -22t22.5 -53t-22.5 -53
t-54.5 -22q-31 0 -53.5 22t-22.5 53zM332 659q0 31 22.5 53t53.5 22q32 0 54.5 -22t22.5 -53t-22.5 -53t-54.5 -22q-31 0 -53.5 22t-22.5 53z" />
    <glyph glyph-name="divide" unicode="&#xf7;" horiz-adv-x="501" 
d="M180 516q0 31 20 51.5t50 20.5q32 0 53 -20.5t21 -51.5q0 -30 -21 -50t-53 -20q-30 0 -50 20.5t-20 49.5zM469 287h-437v99h437v-99zM180 155q0 31 20 51.5t50 20.5q32 0 53 -20.5t21 -51.5q0 -30 -21 -50t-53 -20q-30 0 -50 20.5t-20 49.5z" />
    <glyph glyph-name="oslash" unicode="&#xf8;" horiz-adv-x="595" 
d="M441 463l24 29h82l-57 -68q71 -74 71 -178q0 -109 -76 -183.5t-188 -74.5q-76 0 -141 38l-21 -26h-82l54 64q-74 74 -74 182q0 109 76 183.5t188 74.5q79 0 144 -41zM297 386q-55 0 -89.5 -39t-34.5 -101q0 -45 19 -80l169 202q-27 18 -64 18zM421 246q0 43 -17 75
l-168 -200q27 -15 61 -15q55 0 89.5 39t34.5 101z" />
    <glyph glyph-name="ugrave" unicode="&#xf9;" horiz-adv-x="590" 
d="M388 0v59q-22 -32 -63.5 -51.5t-84.5 -19.5q-80 0 -130 50t-50 132v322h139v-307q0 -36 25.5 -57.5t65.5 -21.5q42 0 69 23t29 64v299h139v-492h-139zM241 572l-175 178h136l137 -178h-98z" />
    <glyph glyph-name="uacute" unicode="&#xfa;" horiz-adv-x="590" 
d="M388 0v59q-22 -32 -63.5 -51.5t-84.5 -19.5q-80 0 -130 50t-50 132v322h139v-307q0 -36 25.5 -57.5t65.5 -21.5q42 0 69 23t29 64v299h139v-492h-139zM514 750l-175 -178h-98l137 178h136z" />
    <glyph glyph-name="ucircumflex" unicode="&#xfb;" horiz-adv-x="590" 
d="M388 0v59q-22 -32 -63.5 -51.5t-84.5 -19.5q-80 0 -130 50t-50 132v322h139v-307q0 -36 25.5 -57.5t65.5 -21.5q42 0 69 23t29 64v299h139v-492h-139zM379 572l-89 111l-89 -111h-88l123 178h108l123 -178h-88z" />
    <glyph glyph-name="udieresis" unicode="&#xfc;" horiz-adv-x="590" 
d="M388 0v59q-22 -32 -63.5 -51.5t-84.5 -19.5q-80 0 -130 50t-50 132v322h139v-307q0 -36 25.5 -57.5t65.5 -21.5q42 0 69 23t29 64v299h139v-492h-139zM102 659q0 31 22.5 53t53.5 22q32 0 54.5 -22t22.5 -53t-22.5 -53t-54.5 -22q-31 0 -53.5 22t-22.5 53zM325 659
q0 31 22.5 53t53.5 22q32 0 54.5 -22t22.5 -53t-22.5 -53t-54.5 -22q-31 0 -53.5 22t-22.5 53z" />
    <glyph glyph-name="yacute" unicode="&#xfd;" horiz-adv-x="547" 
d="M330 -1q-50 -115 -96 -162.5t-110 -47.5q-59 0 -107 28l49 109q22 -14 50 -14q35 0 55.5 28t38.5 75l-204 477h152l116 -313l116 313h152zM499 750l-175 -178h-98l137 178h136z" />
    <glyph glyph-name="thorn" unicode="&#xfe;" horiz-adv-x="625" 
d="M203 56v-257h-139v901h139v-262q53 66 143 66q108 0 176.5 -72.5t68.5 -185.5t-68.5 -185.5t-173.5 -72.5q-43 0 -84.5 18.5t-61.5 49.5zM451 246q0 60 -34 100t-94 40q-52 0 -86 -40t-34 -100t35 -100t87 -40q56 0 91 38.5t35 101.5z" />
    <glyph glyph-name="ydieresis" unicode="&#xff;" horiz-adv-x="547" 
d="M330 -1q-50 -115 -96 -162.5t-110 -47.5q-59 0 -107 28l49 109q22 -14 50 -14q35 0 55.5 28t38.5 75l-204 477h152l116 -313l116 313h152zM86 659q0 31 22.5 53t53.5 22q32 0 54.5 -22t22.5 -53t-22.5 -53t-54.5 -22q-31 0 -53.5 22t-22.5 53zM309 659q0 31 22.5 53
t53.5 22q32 0 54.5 -22t22.5 -53t-22.5 -53t-54.5 -22q-31 0 -53.5 22t-22.5 53z" />
    <glyph glyph-name="Amacron" unicode="&#x100;" 
d="M274 700h150l270 -700h-161l-48 133h-273l-47 -133h-161zM531 784h-363v81h363v-81zM349 515l-90 -251h179z" />
    <glyph glyph-name="amacron" unicode="&#x101;" horiz-adv-x="552" 
d="M275 504q100 0 159 -49.5t59 -133.5v-321h-139v45q-55 -57 -142 -57q-78 0 -130.5 47.5t-52.5 117.5q0 75 60 120.5t159 45.5q49 0 106 -21v18q0 33 -27.5 51.5t-76.5 18.5q-38 0 -76.5 -10.5t-58.5 -26.5l-58 98q109 57 218 57zM464 577h-363v81h363v-81zM250 90
q43 0 73.5 23t30.5 56v43q-42 16 -89 16q-45 0 -73.5 -20t-28.5 -51q0 -30 24 -48.5t63 -18.5z" />
    <glyph glyph-name="Abreve" unicode="&#x102;" 
d="M274 700h150l270 -700h-161l-48 133h-273l-47 -133h-161zM349 856q80 0 123 64l63 -50q-64 -92 -186 -92t-186 92l63 50q43 -64 123 -64zM349 515l-90 -251h179z" />
    <glyph glyph-name="abreve" unicode="&#x103;" horiz-adv-x="552" 
d="M275 504q100 0 159 -49.5t59 -133.5v-321h-139v45q-55 -57 -142 -57q-78 0 -130.5 47.5t-52.5 117.5q0 75 60 120.5t159 45.5q49 0 106 -21v18q0 33 -27.5 51.5t-76.5 18.5q-38 0 -76.5 -10.5t-58.5 -26.5l-58 98q109 57 218 57zM268 642q80 0 123 64l63 -50
q-64 -92 -186 -92t-186 92l63 50q43 -64 123 -64zM250 90q42 0 73 22.5t31 53.5v46q-42 16 -89 16q-45 0 -73.5 -20t-28.5 -51q0 -30 24 -48.5t63 -18.5z" />
    <glyph glyph-name="Aogonek" unicode="&#x104;" 
d="M694 0h-4q-23 0 -60 -26t-37 -59q0 -32 39 -32q18 0 30 6l32 -76q-48 -24 -94 -24q-48 0 -76 25t-28 63q0 37 26 70t58 53h-47l-48 133h-273l-47 -133h-161l270 700h150zM349 515l-90 -251h179z" />
    <glyph glyph-name="aogonek" unicode="&#x105;" horiz-adv-x="552" 
d="M250 90q43 0 73.5 23t30.5 56v43q-42 16 -89 16q-45 0 -73.5 -20t-28.5 -51q0 -30 24 -48.5t63 -18.5zM493 0h-4q-23 0 -60 -26t-37 -59q0 -32 39 -32q18 0 30 6l32 -76q-48 -24 -94 -24q-48 0 -76 25t-28 63q0 37 26 70t58 53h-25v45q-55 -57 -142 -57
q-78 0 -130.5 47.5t-52.5 117.5q0 75 60 120.5t159 45.5q49 0 106 -21v18q0 33 -27.5 51.5t-76.5 18.5q-38 0 -76.5 -10.5t-58.5 -26.5l-58 98q109 57 218 57q100 0 159 -49.5t59 -133.5v-321z" />
    <glyph glyph-name="Cacute" unicode="&#x106;" horiz-adv-x="679" 
d="M608 947l-175 -178h-98l137 178h136zM399 -12q-156 0 -260 102.5t-104 259.5t104 259.5t260 102.5q149 0 258 -107l-99 -100q-29 34 -71.5 53t-87.5 19q-94 0 -151 -65.5t-57 -161.5t57 -161.5t151 -65.5q98 0 163 80l108 -88q-106 -127 -271 -127z" />
    <glyph glyph-name="cacute" unicode="&#x107;" horiz-adv-x="510" 
d="M463 750l-175 -178h-98l137 178h136zM298 -12q-111 0 -188 73.5t-77 184.5q0 110 76 184t188 74q115 0 190 -78l-86 -86q-36 46 -103 46q-56 0 -90.5 -39t-34.5 -101t35.5 -101t91.5 -39q69 0 106 51l90 -81q-71 -88 -198 -88z" />
    <glyph glyph-name="Ccircumflex" unicode="&#x108;" horiz-adv-x="679" 
d="M488 769l-89 111l-89 -111h-88l123 178h108l123 -178h-88zM399 -12q-156 0 -260 102.5t-104 259.5t104 259.5t260 102.5q149 0 258 -107l-99 -100q-29 34 -71.5 53t-87.5 19q-94 0 -151 -65.5t-57 -161.5t57 -161.5t151 -65.5q98 0 163 80l108 -88q-106 -127 -271 -127z
" />
    <glyph glyph-name="ccircumflex" unicode="&#x109;" horiz-adv-x="510" 
d="M381 572l-89 111l-89 -111h-88l123 178h108l123 -178h-88zM298 -12q-111 0 -188 73.5t-77 184.5q0 110 76 184t188 74q115 0 190 -78l-86 -86q-36 46 -103 46q-56 0 -90.5 -39t-34.5 -101t35.5 -101t91.5 -39q69 0 106 51l90 -81q-71 -88 -198 -88z" />
    <glyph glyph-name="Cdotaccent" unicode="&#x10a;" horiz-adv-x="679" 
d="M320 857q0 33 23 56.5t56 23.5t56.5 -23.5t23.5 -56.5t-23.5 -56t-56.5 -23t-56 23t-23 56zM399 -12q-156 0 -260 102.5t-104 259.5t104 259.5t260 102.5q149 0 258 -107l-99 -100q-29 34 -71.5 53t-87.5 19q-94 0 -151 -65.5t-57 -161.5t57 -161.5t151 -65.5
q98 0 163 80l108 -88q-106 -127 -271 -127z" />
    <glyph glyph-name="cdotaccent" unicode="&#x10b;" horiz-adv-x="510" 
d="M213 643q0 33 23 56.5t56 23.5t56.5 -23.5t23.5 -56.5t-23.5 -56t-56.5 -23t-56 23t-23 56zM298 -12q-111 0 -188 73.5t-77 184.5q0 110 76 184t188 74q115 0 190 -78l-86 -86q-36 46 -103 46q-56 0 -90.5 -39t-34.5 -101t35.5 -101t91.5 -39q69 0 106 51l90 -81
q-71 -88 -198 -88z" />
    <glyph glyph-name="Ccaron" unicode="&#x10c;" horiz-adv-x="679" 
d="M384 836l89 111h88l-123 -178h-108l-123 178h88zM399 -12q-156 0 -260 102.5t-104 259.5t104 259.5t260 102.5q149 0 258 -107l-99 -100q-29 34 -71.5 53t-87.5 19q-94 0 -151 -65.5t-57 -161.5t57 -161.5t151 -65.5q98 0 163 80l108 -88q-106 -127 -271 -127z" />
    <glyph glyph-name="ccaron" unicode="&#x10d;" horiz-adv-x="510" 
d="M277 639l89 111h88l-123 -178h-108l-123 178h88zM298 -12q-111 0 -188 73.5t-77 184.5q0 110 76 184t188 74q115 0 190 -78l-86 -86q-36 46 -103 46q-56 0 -90.5 -39t-34.5 -101t35.5 -101t91.5 -39q69 0 106 51l90 -81q-71 -88 -198 -88z" />
    <glyph glyph-name="Dcaron" unicode="&#x10e;" horiz-adv-x="725" 
d="M228 131h106q89 0 144 60.5t55 158.5q0 99 -54.5 159t-144.5 60h-106v-438zM339 0h-263v700h262q153 0 252 -98.5t99 -251.5q0 -152 -99 -251t-251 -99zM353 836l89 111h88l-123 -178h-108l-123 178h88z" />
    <glyph glyph-name="dcaron" unicode="&#x10f;" horiz-adv-x="716" 
d="M621 633q0 33 22.5 55t53.5 22q34 0 54.5 -24t20.5 -59q0 -100 -103 -169l-29 33q49 29 56 64q-32 0 -53.5 22.5t-21.5 55.5zM422 0v57q-20 -31 -61.5 -50t-84.5 -19q-106 0 -174 72.5t-68 185.5t68 185.5t176 72.5q43 0 82 -18t62 -47v261h139v-700h-139zM174 246
q0 -60 33.5 -100t92.5 -40q52 0 87 40t35 100t-34 100t-86 40q-58 0 -93 -38.5t-35 -101.5z" />
    <glyph glyph-name="Dcroat" unicode="&#x110;" horiz-adv-x="752" 
d="M366 0h-263v290h-89v120h89v290h262q153 0 252 -98.5t99 -251.5q0 -152 -99 -251t-251 -99zM255 131h106q89 0 144 60.5t55 158.5q0 99 -54.5 159t-144.5 60h-106v-159h137v-120h-137v-159z" />
    <glyph glyph-name="dcroat" unicode="&#x111;" horiz-adv-x="625" 
d="M621 557h-60v-557h-139v57q-20 -31 -61.5 -50t-84.5 -19q-106 0 -174 72.5t-68 185.5t68 185.5t176 72.5q43 0 82 -18t62 -47v118h-154v74h154v69h139v-69h60v-74zM174 246q0 -60 33.5 -100t92.5 -40q52 0 87 40t35 100t-34 100t-86 40q-58 0 -93 -38.5t-35 -101.5z" />
    <glyph glyph-name="Emacron" unicode="&#x112;" horiz-adv-x="603" 
d="M488 784h-363v81h363v-81zM560 131v-131h-484v700h475v-131h-323v-152h298v-131h-298v-155h332z" />
    <glyph glyph-name="emacron" unicode="&#x113;" horiz-adv-x="563" 
d="M465 577h-363v81h363v-81zM496 68q-36 -39 -90 -59.5t-106 -20.5q-115 0 -190.5 73.5t-75.5 186.5q0 109 71.5 182.5t177.5 73.5q107 0 177.5 -70.5t70.5 -177.5v-52h-360q11 -45 47.5 -72.5t86.5 -27.5q67 0 117 50zM286 390q-40 0 -71 -25t-41 -67h226
q-7 41 -39.5 66.5t-74.5 25.5z" />
    <glyph glyph-name="Ebreve" unicode="&#x114;" horiz-adv-x="603" 
d="M303 856q80 0 123 64l63 -50q-64 -92 -186 -92t-186 92l63 50q43 -64 123 -64zM560 131v-131h-484v700h475v-131h-323v-152h298v-131h-298v-155h332z" />
    <glyph glyph-name="ebreve" unicode="&#x115;" horiz-adv-x="563" 
d="M283 642q80 0 123 64l63 -50q-64 -92 -186 -92t-186 92l63 50q43 -64 123 -64zM496 68q-36 -39 -90 -59.5t-106 -20.5q-115 0 -190.5 73.5t-75.5 186.5q0 109 71.5 182.5t177.5 73.5q107 0 177.5 -70.5t70.5 -177.5v-52h-360q11 -45 47.5 -72.5t86.5 -27.5q67 0 117 50z
M286 390q-40 0 -71 -25t-41 -67h226q-7 41 -39.5 66.5t-74.5 25.5z" />
    <glyph glyph-name="Edotaccent" unicode="&#x116;" horiz-adv-x="603" 
d="M232 857q0 33 23 56.5t56 23.5t56.5 -23.5t23.5 -56.5t-23.5 -56t-56.5 -23t-56 23t-23 56zM560 131v-131h-484v700h475v-131h-323v-152h298v-131h-298v-155h332z" />
    <glyph glyph-name="edotaccent" unicode="&#x117;" horiz-adv-x="563" 
d="M204 643q0 33 23 56.5t56 23.5t56.5 -23.5t23.5 -56.5t-23.5 -56t-56.5 -23t-56 23t-23 56zM496 68q-36 -39 -90 -59.5t-106 -20.5q-115 0 -190.5 73.5t-75.5 186.5q0 109 71.5 182.5t177.5 73.5q107 0 177.5 -70.5t70.5 -177.5v-52h-360q11 -45 47.5 -72.5t86.5 -27.5
q67 0 117 50zM286 390q-40 0 -71 -25t-41 -67h226q-7 41 -39.5 66.5t-74.5 25.5z" />
    <glyph glyph-name="Eogonek" unicode="&#x118;" horiz-adv-x="603" 
d="M560 0q-25 0 -62.5 -26t-37.5 -59q0 -32 39 -32q18 0 30 6l32 -76q-48 -24 -94 -24q-48 0 -76 25t-28 63q0 37 26 70t58 53h-371v700h475v-131h-323v-152h298v-131h-298v-155h332v-131z" />
    <glyph glyph-name="eogonek" unicode="&#x119;" horiz-adv-x="563" 
d="M422 154l74 -86q-55 -53 -80 -87.5t-25 -65.5q0 -32 39 -32q18 0 30 6l32 -76q-48 -24 -94 -24q-48 0 -76 25t-28 63q0 62 65 127q-23 -16 -59 -16q-115 0 -190.5 73.5t-75.5 186.5q0 109 71.5 182.5t177.5 73.5q107 0 177.5 -70.5t70.5 -177.5v-52h-360
q11 -45 47.5 -72.5t86.5 -27.5q67 0 117 50zM286 390q-40 0 -71 -25t-41 -67h226q-7 41 -39.5 66.5t-74.5 25.5z" />
    <glyph glyph-name="Ecaron" unicode="&#x11a;" horiz-adv-x="603" 
d="M313 836l89 111h88l-123 -178h-108l-123 178h88zM560 131v-131h-484v700h475v-131h-323v-152h298v-131h-298v-155h332z" />
    <glyph glyph-name="ecaron" unicode="&#x11b;" horiz-adv-x="563" 
d="M283 639l89 111h88l-123 -178h-108l-123 178h88zM496 68q-36 -39 -90 -59.5t-106 -20.5q-115 0 -190.5 73.5t-75.5 186.5q0 109 71.5 182.5t177.5 73.5q107 0 177.5 -70.5t70.5 -177.5v-52h-360q11 -45 47.5 -72.5t86.5 -27.5q67 0 117 50zM286 390q-40 0 -71 -25
t-41 -67h226q-7 41 -39.5 66.5t-74.5 25.5z" />
    <glyph glyph-name="Gcircumflex" unicode="&#x11c;" horiz-adv-x="729" 
d="M399 -12q-158 0 -261 102.5t-103 259.5t103 259.5t261 102.5q149 0 258 -107l-99 -100q-29 34 -71.5 53t-87.5 19q-91 0 -150 -64t-59 -163t59 -163t150 -64q82 0 136 44v101h-167v131h319v-287q-50 -60 -128 -92t-160 -32zM488 769l-89 111l-89 -111h-88l123 178h108
l123 -178h-88z" />
    <glyph glyph-name="gcircumflex" unicode="&#x11d;" horiz-adv-x="623" 
d="M401 572l-89 111l-89 -111h-88l123 178h108l123 -178h-88zM298 -92q57 0 90 30.5t33 86.5v44q-25 -32 -63.5 -50.5t-79.5 -18.5q-106 0 -175 69.5t-69 176.5q0 113 68 185.5t176 72.5q91 0 143 -65v53h139v-477q0 -97 -73.5 -161.5t-185.5 -64.5q-62 0 -121 20.5
t-96 54.5l64 97q28 -23 70 -38t80 -15zM174 246q0 -61 36.5 -95.5t86.5 -34.5q60 0 92 39t32 94q0 56 -31 96.5t-89 40.5q-57 0 -92 -38.5t-35 -101.5z" />
    <glyph glyph-name="Gbreve" unicode="&#x11e;" horiz-adv-x="729" 
d="M399 -12q-158 0 -261 102.5t-103 259.5t103 259.5t261 102.5q149 0 258 -107l-99 -100q-29 34 -71.5 53t-87.5 19q-91 0 -150 -64t-59 -163t59 -163t150 -64q82 0 136 44v101h-167v131h319v-287q-50 -60 -128 -92t-160 -32zM374 856q80 0 123 64l63 -50q-64 -92 -186 -92
t-186 92l63 50q43 -64 123 -64z" />
    <glyph glyph-name="gbreve" unicode="&#x11f;" horiz-adv-x="623" 
d="M312 642q80 0 123 64l63 -50q-64 -92 -186 -92t-186 92l63 50q43 -64 123 -64zM298 -92q57 0 90 30.5t33 86.5v44q-25 -32 -63.5 -50.5t-79.5 -18.5q-106 0 -175 69.5t-69 176.5q0 113 68 185.5t176 72.5q91 0 143 -65v53h139v-477q0 -97 -73.5 -161.5t-185.5 -64.5
q-62 0 -121 20.5t-96 54.5l64 97q28 -23 70 -38t80 -15zM174 246q0 -61 36.5 -95.5t86.5 -34.5q60 0 92 39t32 94q0 56 -31 96.5t-89 40.5q-57 0 -92 -38.5t-35 -101.5z" />
    <glyph glyph-name="Gdotaccent" unicode="&#x120;" horiz-adv-x="729" 
d="M399 -12q-158 0 -261 102.5t-103 259.5t103 259.5t261 102.5q149 0 258 -107l-99 -100q-29 34 -71.5 53t-87.5 19q-91 0 -150 -64t-59 -163t59 -163t150 -64q82 0 136 44v101h-167v131h319v-287q-50 -60 -128 -92t-160 -32zM320 857q0 33 23 56.5t56 23.5t56.5 -23.5
t23.5 -56.5t-23.5 -56t-56.5 -23t-56 23t-23 56z" />
    <glyph glyph-name="gdotaccent" unicode="&#x121;" horiz-adv-x="623" 
d="M216 643q0 33 23 56.5t56 23.5t56.5 -23.5t23.5 -56.5t-23.5 -56t-56.5 -23t-56 23t-23 56zM298 -92q57 0 90 30.5t33 86.5v44q-25 -32 -63.5 -50.5t-79.5 -18.5q-106 0 -175 69.5t-69 176.5q0 113 68 185.5t176 72.5q91 0 143 -65v53h139v-477q0 -97 -73.5 -161.5
t-185.5 -64.5q-62 0 -121 20.5t-96 54.5l64 97q28 -23 70 -38t80 -15zM174 246q0 -61 36.5 -95.5t86.5 -34.5q60 0 92 39t32 94q0 56 -31 96.5t-89 40.5q-57 0 -92 -38.5t-35 -101.5z" />
    <glyph glyph-name="uni0122" unicode="&#x122;" horiz-adv-x="729" 
d="M399 -12q-158 0 -261 102.5t-103 259.5t103 259.5t261 102.5q149 0 258 -107l-99 -100q-29 34 -71.5 53t-87.5 19q-91 0 -150 -64t-59 -163t59 -163t150 -64q82 0 136 44v101h-167v131h319v-287q-50 -60 -128 -92t-160 -32zM323 -130q0 33 22.5 55t53.5 22q34 0 54.5 -24
t20.5 -59q0 -100 -103 -169l-29 33q49 29 56 64q-32 0 -53.5 22.5t-21.5 55.5z" />
    <glyph glyph-name="uni0123" unicode="&#x123;" horiz-adv-x="623" 
d="M366 641q0 -33 -22 -55t-52 -22q-35 0 -56 24t-21 59q0 100 103 169l29 -33q-49 -29 -56 -64q32 0 53.5 -22.5t21.5 -55.5zM298 -92q57 0 90 30.5t33 86.5v44q-25 -32 -63.5 -50.5t-79.5 -18.5q-106 0 -175 69.5t-69 176.5q0 113 68 185.5t176 72.5q91 0 143 -65v53h139
v-477q0 -97 -73.5 -161.5t-185.5 -64.5q-62 0 -121 20.5t-96 54.5l64 97q28 -23 70 -38t80 -15zM174 246q0 -61 36.5 -95.5t86.5 -34.5q60 0 92 39t32 94q0 56 -31 96.5t-89 40.5q-57 0 -92 -38.5t-35 -101.5z" />
    <glyph glyph-name="Hcircumflex" unicode="&#x124;" horiz-adv-x="739" 
d="M228 700v-296h283v296h152v-700h-152v273h-283v-273h-152v700h152zM458 769l-89 111l-89 -111h-88l123 178h108l123 -178h-88z" />
    <glyph glyph-name="hcircumflex" unicode="&#x125;" horiz-adv-x="590" 
d="M203 700v-267q22 31 60 51t78 20q86 0 138 -50t52 -133v-321h-139v304q0 36 -26 59t-67 23t-68.5 -26t-27.5 -66v-294h-139v700h139zM387 769l-89 111l-89 -111h-88l123 178h108l123 -178h-88z" />
    <glyph glyph-name="Hbar" unicode="&#x126;" horiz-adv-x="754" 
d="M236 700v-110h283v110h152v-110h65v-74h-65v-516h-152v273h-283v-273h-152v516h-67v74h67v110h152zM236 516v-112h283v112h-283z" />
    <glyph glyph-name="hbar" unicode="&#x127;" horiz-adv-x="590" 
d="M359 557h-156v-124q22 31 60 51t78 20q86 0 138 -50t52 -133v-321h-139v304q0 36 -26 59t-67 23t-68.5 -26t-27.5 -66v-294h-139v557h-58v74h58v69h139v-69h156v-74z" />
    <glyph glyph-name="Itilde" unicode="&#x128;" horiz-adv-x="304" 
d="M228 700v-700h-152v700h152zM227 778q-36 0 -84.5 25t-70.5 25t-36 -13.5t-29 -40.5l-60 41q54 103 129 103q36 0 87 -25t68 -25q22 0 36 13.5t29 40.5l61 -41q-54 -103 -130 -103z" />
    <glyph glyph-name="itilde" unicode="&#x129;" horiz-adv-x="267" 
d="M203 492v-492h-139v492h139zM207 587q-36 0 -84.5 25t-70.5 25t-36 -13.5t-29 -40.5l-60 41q54 103 129 103q35 0 86.5 -25t68.5 -25q22 0 36 13.5t29 40.5l61 -41q-54 -103 -130 -103z" />
    <glyph glyph-name="Imacron" unicode="&#x12a;" horiz-adv-x="304" 
d="M228 700v-700h-152v700h152zM334 784h-363v81h363v-81z" />
    <glyph glyph-name="imacron" unicode="&#x12b;" horiz-adv-x="267" 
d="M203 492v-492h-139v492h139zM314 577h-363v81h363v-81z" />
    <glyph glyph-name="Ibreve" unicode="&#x12c;" horiz-adv-x="304" 
d="M228 700v-700h-152v700h152zM152 856q80 0 123 64l63 -50q-64 -92 -186 -92t-186 92l63 50q43 -64 123 -64z" />
    <glyph glyph-name="ibreve" unicode="&#x12d;" horiz-adv-x="267" 
d="M203 492v-492h-139v492h139zM133 642q80 0 123 64l63 -50q-64 -92 -186 -92t-186 92l63 50q43 -64 123 -64z" />
    <glyph glyph-name="Iogonek" unicode="&#x12e;" horiz-adv-x="304" 
d="M228 700v-700q-23 0 -60 -26t-37 -59q0 -32 39 -32q18 0 30 6l32 -76q-48 -24 -94 -24q-48 0 -76 25t-28 63q0 37 26 70t58 53h-42v700h152z" />
    <glyph glyph-name="iogonek" unicode="&#x12f;" horiz-adv-x="267" 
d="M50 628q0 35 24 59.5t58 24.5q36 0 60 -24.5t24 -59.5t-24 -58.5t-60 -23.5q-34 0 -58 24t-24 58zM203 0h-4q-23 0 -60 -26t-37 -59q0 -32 39 -32q18 0 30 6l32 -76q-48 -24 -94 -24q-48 0 -76 25t-28 63q0 37 26 70t58 53h-25v492h139v-492z" />
    <glyph glyph-name="Idotaccent" unicode="&#x130;" horiz-adv-x="304" 
d="M228 700v-700h-152v700h152zM73 857q0 33 23 56.5t56 23.5t56.5 -23.5t23.5 -56.5t-23.5 -56t-56.5 -23t-56 23t-23 56z" />
    <glyph glyph-name="dotlessi" unicode="&#x131;" horiz-adv-x="267" 
d="M203 492v-492h-139v492h139z" />
    <glyph glyph-name="IJ" unicode="&#x132;" horiz-adv-x="600" 
d="M224 700v-484h-152v484h152zM79 76l75 104q60 -57 136 -57q42 0 64.5 21.5t22.5 62.5v493h152v-498q0 -104 -65.5 -159t-164.5 -55q-61 0 -119.5 23t-100.5 65z" />
    <glyph glyph-name="ij" unicode="&#x133;" horiz-adv-x="538" 
d="M47 628q0 35 24 59.5t58 24.5q36 0 60 -24.5t24 -59.5t-24 -58.5t-60 -23.5q-34 0 -58 24t-24 58zM322 628q0 35 24 59.5t58 24.5q36 0 60 -24.5t24 -59.5t-24 -58.5t-60 -23.5q-34 0 -58 24t-24 58zM224 -196l25 114q18 -7 35 -7q23 0 37 14t14 40v527h139v-523
q0 -83 -43.5 -131.5t-120.5 -48.5q-41 0 -86 15zM281 115l29 -112q-45 -15 -85 -15q-165 0 -165 171v333h139v-329q0 -57 48 -57q8 0 16.5 2t12.5 4z" />
    <glyph glyph-name="Jcircumflex" unicode="&#x134;" horiz-adv-x="512" 
d="M289 700h152v-497q0 -99 -62.5 -157t-170.5 -58q-127 0 -210 88l76 104q59 -57 125 -57q90 0 90 83v494zM331 769l-89 111l-89 -111h-88l123 178h108l123 -178h-88z" />
    <glyph glyph-name="jcircumflex" unicode="&#x135;" horiz-adv-x="275" 
d="M230 572l-89 111l-89 -111h-88l123 178h108l123 -178h-88zM-39 -196l25 114q18 -7 35 -7q23 0 37 14t14 40v527h139v-523q0 -83 -43.5 -131.5t-120.5 -48.5q-41 0 -86 15z" />
    <glyph glyph-name="uni0136" unicode="&#x136;" horiz-adv-x="685" 
d="M228 700v-333l273 333h184l-265 -317l272 -383h-184l-184 268l-96 -115v-153h-152v700h152zM292 -130q0 33 22.5 55t53.5 22q34 0 54.5 -24t20.5 -59q0 -100 -103 -169l-29 33q49 29 56 64q-32 0 -53.5 22.5t-21.5 55.5z" />
    <glyph glyph-name="uni0137" unicode="&#x137;" horiz-adv-x="551" 
d="M220 -130q0 33 22.5 55t53.5 22q34 0 54.5 -24t20.5 -59q0 -100 -103 -169l-29 33q49 29 56 64q-32 0 -53.5 22.5t-21.5 55.5zM203 700v-397l166 189h177l-204 -210l216 -282h-169l-135 190l-51 -52v-138h-139v700h139z" />
    <glyph glyph-name="kgreenlandic" unicode="&#x138;" horiz-adv-x="553" 
d="M203 492v-189l169 189h177l-206 -211l218 -281h-169l-138 190l-51 -52v-138h-139v492h139z" />
    <glyph glyph-name="Lacute" unicode="&#x139;" horiz-adv-x="558" 
d="M520 947l-175 -178h-98l137 178h136zM76 0v700h152v-569h314v-131h-466z" />
    <glyph glyph-name="lacute" unicode="&#x13a;" horiz-adv-x="267" 
d="M203 700v-700h-139v700h139zM352 947l-175 -178h-98l137 178h136z" />
    <glyph glyph-name="uni013B" unicode="&#x13b;" horiz-adv-x="558" 
d="M240 -130q0 33 22.5 55t53.5 22q34 0 54.5 -24t20.5 -59q0 -100 -103 -169l-29 33q49 29 56 64q-32 0 -53.5 22.5t-21.5 55.5zM76 0v700h152v-569h314v-131h-466z" />
    <glyph glyph-name="uni013C" unicode="&#x13c;" horiz-adv-x="267" 
d="M203 700v-700h-139v700h139zM56 -130q0 33 22.5 55t53.5 22q34 0 54.5 -24t20.5 -59q0 -100 -103 -169l-29 33q49 29 56 64q-32 0 -53.5 22.5t-21.5 55.5z" />
    <glyph glyph-name="Lcaron" unicode="&#x13d;" horiz-adv-x="560" 
d="M308 635q0 33 22.5 55t53.5 22q34 0 54.5 -24t20.5 -59q0 -100 -103 -169l-29 33q49 29 56 64q-32 0 -53.5 22.5t-21.5 55.5zM76 0v700h152v-569h314v-131h-466z" />
    <glyph glyph-name="lcaron" unicode="&#x13e;" horiz-adv-x="356" 
d="M203 700v-700h-139v700h139zM261 633q0 33 22.5 55t53.5 22q34 0 54.5 -24t20.5 -59q0 -100 -103 -169l-29 33q49 29 56 64q-32 0 -53.5 22.5t-21.5 55.5z" />
    <glyph glyph-name="Ldot" unicode="&#x13f;" horiz-adv-x="563" 
d="M349 350q0 35 24 59.5t58 24.5q36 0 60 -24.5t24 -59.5t-24 -58.5t-60 -23.5q-34 0 -58 24t-24 58zM76 0v700h152v-569h314v-131h-466z" />
    <glyph glyph-name="ldot" unicode="&#x140;" horiz-adv-x="411" 
d="M203 700v-700h-139v700h139zM258 247q0 35 24 59.5t58 24.5q36 0 60 -24.5t24 -59.5t-24 -58.5t-60 -23.5q-34 0 -58 24t-24 58z" />
    <glyph glyph-name="Lslash" unicode="&#x141;" horiz-adv-x="584" 
d="M24 199v125l78 37v339h152v-266l94 46v-125l-94 -46v-178h314v-131h-466v236z" />
    <glyph glyph-name="lslash" unicode="&#x142;" horiz-adv-x="379" 
d="M30 222v102l93 45v331h139v-264l92 44v-102l-92 -44v-334h-139v267z" />
    <glyph glyph-name="Nacute" unicode="&#x143;" horiz-adv-x="756" 
d="M680 700v-700h-152l-300 454v-454h-152v700h152l300 -453v453h152zM566 947l-175 -178h-98l137 178h136z" />
    <glyph glyph-name="nacute" unicode="&#x144;" horiz-adv-x="590" 
d="M203 492v-59q50 71 148 71q80 0 130 -50.5t50 -132.5v-321h-139v304q0 36 -25.5 59t-65.5 23q-42 0 -70 -25.5t-28 -66.5v-294h-139v492h139zM479 750l-175 -178h-98l137 178h136z" />
    <glyph glyph-name="uni0145" unicode="&#x145;" horiz-adv-x="756" 
d="M680 700v-700h-152l-300 454v-454h-152v700h152l300 -453v453h152zM305 -130q0 33 22.5 55t53.5 22q34 0 54.5 -24t20.5 -59q0 -100 -103 -169l-29 33q49 29 56 64q-32 0 -53.5 22.5t-21.5 55.5z" />
    <glyph glyph-name="uni0146" unicode="&#x146;" horiz-adv-x="590" 
d="M203 492v-59q50 71 148 71q80 0 130 -50.5t50 -132.5v-321h-139v304q0 36 -25.5 59t-65.5 23q-42 0 -70 -25.5t-28 -66.5v-294h-139v492h139zM225 -130q0 33 22.5 55t53.5 22q34 0 54.5 -24t20.5 -59q0 -100 -103 -169l-29 33q49 29 56 64q-32 0 -53.5 22.5t-21.5 55.5z
" />
    <glyph glyph-name="Ncaron" unicode="&#x147;" horiz-adv-x="756" 
d="M680 700v-700h-152l-300 454v-454h-152v700h152l300 -453v453h152zM379 836l89 111h88l-123 -178h-108l-123 178h88z" />
    <glyph glyph-name="ncaron" unicode="&#x148;" horiz-adv-x="590" 
d="M203 492v-59q50 71 148 71q80 0 130 -50.5t50 -132.5v-321h-139v304q0 36 -25.5 59t-65.5 23q-42 0 -70 -25.5t-28 -66.5v-294h-139v492h139zM295 639l89 111h88l-123 -178h-108l-123 178h88z" />
    <glyph glyph-name="napostrophe" unicode="&#x149;" horiz-adv-x="590" 
d="M203 492v-59q50 71 148 71q80 0 130 -50.5t50 -132.5v-321h-139v304q0 36 -25.5 59t-65.5 23q-42 0 -70 -25.5t-28 -66.5v-294h-139v492h139zM55 720q0 33 22.5 55t53.5 22q34 0 54.5 -24t20.5 -59q0 -100 -103 -169l-29 33q49 29 56 64q-32 0 -53.5 22.5t-21.5 55.5z
" />
    <glyph glyph-name="Eng" unicode="&#x14a;" horiz-adv-x="756" 
d="M680 700v-703q0 -97 -63.5 -156t-169.5 -59q-127 0 -210 88l76 104q59 -57 125 -57q44 0 67 23.5t23 59.5l-300 454v-454h-152v700h152l300 -453v453h152z" />
    <glyph glyph-name="eng" unicode="&#x14b;" horiz-adv-x="590" 
d="M215 -168l50 100q3 -3 11.5 -8t25.5 -11t33 -6q27 0 42 16.5t15 45.5v335q0 36 -25.5 59t-65.5 23q-42 0 -70 -25.5t-28 -66.5v-294h-139v492h139v-59q50 71 148 71q80 0 130 -50.5t50 -132.5v-345q0 -88 -46.5 -137.5t-130.5 -49.5q-39 0 -73.5 10.5t-50.5 21.5z" />
    <glyph glyph-name="Omacron" unicode="&#x14c;" horiz-adv-x="798" 
d="M763 350q0 -157 -104 -259.5t-260 -102.5t-260 102.5t-104 259.5t104 259.5t260 102.5t260 -102.5t104 -259.5zM607 350q0 96 -57 161.5t-151 65.5t-151 -65.5t-57 -161.5t57 -161.5t151 -65.5t151 65.5t57 161.5zM581 784h-363v81h363v-81z" />
    <glyph glyph-name="omacron" unicode="&#x14d;" horiz-adv-x="594" 
d="M478 577h-363v81h363v-81zM421 246q0 62 -34.5 101t-89.5 39t-89.5 -39t-34.5 -101t34.5 -101t89.5 -39t89.5 39t34.5 101zM561 246q0 -109 -76 -183.5t-188 -74.5t-188 74.5t-76 183.5t76 183.5t188 74.5t188 -74.5t76 -183.5z" />
    <glyph glyph-name="Obreve" unicode="&#x14e;" horiz-adv-x="798" 
d="M763 350q0 -157 -104 -259.5t-260 -102.5t-260 102.5t-104 259.5t104 259.5t260 102.5t260 -102.5t104 -259.5zM607 350q0 96 -57 161.5t-151 65.5t-151 -65.5t-57 -161.5t57 -161.5t151 -65.5t151 65.5t57 161.5zM399 856q80 0 123 64l63 -50q-64 -92 -186 -92t-186 92
l63 50q43 -64 123 -64z" />
    <glyph glyph-name="obreve" unicode="&#x14f;" horiz-adv-x="594" 
d="M297 642q80 0 123 64l63 -50q-64 -92 -186 -92t-186 92l63 50q43 -64 123 -64zM421 246q0 62 -34.5 101t-89.5 39t-89.5 -39t-34.5 -101t34.5 -101t89.5 -39t89.5 39t34.5 101zM561 246q0 -109 -76 -183.5t-188 -74.5t-188 74.5t-76 183.5t76 183.5t188 74.5t188 -74.5
t76 -183.5z" />
    <glyph glyph-name="Ohungarumlaut" unicode="&#x150;" horiz-adv-x="798" 
d="M763 350q0 -157 -104 -259.5t-260 -102.5t-260 102.5t-104 259.5t104 259.5t260 102.5t260 -102.5t104 -259.5zM607 350q0 96 -57 161.5t-151 65.5t-151 -65.5t-57 -161.5t57 -161.5t151 -65.5t151 65.5t57 161.5zM452 947l-123 -178h-95l85 178h133zM642 947l-123 -178
h-95l85 178h133z" />
    <glyph glyph-name="ohungarumlaut" unicode="&#x151;" horiz-adv-x="594" 
d="M354 750l-123 -178h-95l85 178h133zM544 750l-123 -178h-95l85 178h133zM421 246q0 62 -34.5 101t-89.5 39t-89.5 -39t-34.5 -101t34.5 -101t89.5 -39t89.5 39t34.5 101zM561 246q0 -109 -76 -183.5t-188 -74.5t-188 74.5t-76 183.5t76 183.5t188 74.5t188 -74.5
t76 -183.5z" />
    <glyph glyph-name="OE" unicode="&#x152;" horiz-adv-x="1134" 
d="M1091 131v-131h-484v48q-93 -60 -208 -60q-156 0 -260 102.5t-104 259.5t104 259.5t260 102.5q116 0 208 -61v49h475v-131h-323v-152h298v-131h-298v-155h332zM607 350q0 96 -57 161.5t-151 65.5t-151 -65.5t-57 -161.5t57 -161.5t151 -65.5t151 65.5t57 161.5z" />
    <glyph glyph-name="oe" unicode="&#x153;" horiz-adv-x="950" 
d="M809 154l74 -86q-36 -39 -90 -59.5t-106 -20.5q-123 0 -197 85q-73 -85 -193 -85q-112 0 -188 74.5t-76 183.5t76 183.5t188 74.5q118 0 191 -82q71 82 182 82q107 0 177.5 -70.5t70.5 -177.5v-52h-360q11 -45 47.5 -72.5t86.5 -27.5q67 0 117 50zM421 246
q0 62 -34.5 101t-89.5 39t-89.5 -39t-34.5 -101t34.5 -101t89.5 -39t89.5 39t34.5 101zM673 390q-40 0 -71 -25t-41 -67h226q-7 41 -39.5 66.5t-74.5 25.5z" />
    <glyph glyph-name="Racute" unicode="&#x154;" horiz-adv-x="674" 
d="M76 700h298q112 0 184 -64.5t72 -165.5q0 -69 -35.5 -123.5t-96.5 -84.5l146 -262h-170l-125 235h-121v-235h-152v700zM228 366h142q46 0 76 28.5t30 72.5q0 43 -30.5 72.5t-75.5 29.5h-142v-203zM499 958l-175 -178h-98l137 178h136z" />
    <glyph glyph-name="racute" unicode="&#x155;" horiz-adv-x="388" 
d="M203 492v-86q23 42 68 70t93 28h10v-131q-14 3 -31 3q-54 0 -97 -36.5t-43 -91.5v-248h-139v492h139zM425 750l-175 -178h-98l137 178h136z" />
    <glyph glyph-name="uni0156" unicode="&#x156;" horiz-adv-x="674" 
d="M76 700h298q112 0 184 -64.5t72 -165.5q0 -69 -35.5 -123.5t-96.5 -84.5l146 -262h-170l-125 235h-121v-235h-152v700zM228 366h142q46 0 76 28.5t30 72.5q0 43 -30.5 72.5t-75.5 29.5h-142v-203zM280 -130q0 33 22.5 55t53.5 22q34 0 54.5 -24t20.5 -59
q0 -100 -103 -169l-29 33q49 29 56 64q-32 0 -53.5 22.5t-21.5 55.5z" />
    <glyph glyph-name="uni0157" unicode="&#x157;" horiz-adv-x="388" 
d="M203 492v-86q23 42 68 70t93 28h10v-131q-14 3 -31 3q-54 0 -97 -36.5t-43 -91.5v-248h-139v492h139zM59 -130q0 33 22.5 55t53.5 22q34 0 54.5 -24t20.5 -59q0 -100 -103 -169l-29 33q49 29 56 64q-32 0 -53.5 22.5t-21.5 55.5z" />
    <glyph glyph-name="Rcaron" unicode="&#x158;" horiz-adv-x="674" 
d="M76 700h298q112 0 184 -64.5t72 -165.5q0 -69 -35.5 -123.5t-96.5 -84.5l146 -262h-170l-125 235h-121v-235h-152v700zM228 366h142q46 0 76 28.5t30 72.5q0 43 -30.5 72.5t-75.5 29.5h-142v-203zM316 836l89 111h88l-123 -178h-108l-123 178h88z" />
    <glyph glyph-name="rcaron" unicode="&#x159;" horiz-adv-x="388" 
d="M196 639l89 111h88l-123 -178h-108l-123 178h88zM203 492v-86q23 42 68 70t93 28h10v-131q-14 3 -31 3q-54 0 -97 -36.5t-43 -91.5v-248h-139v492h139z" />
    <glyph glyph-name="Sacute" unicode="&#x15a;" horiz-adv-x="614" 
d="M524 947l-175 -178h-98l137 178h136zM23 99l84 110q98 -90 215 -90q111 0 111 80q0 14 -5 25.5t-16.5 20t-23.5 15t-32 12.5t-35.5 10t-40.5 10t-41 10q-33 9 -58 18t-52 25.5t-44 36t-28.5 50t-11.5 67.5q0 100 75.5 156.5t179.5 56.5q140 0 261 -90l-74 -115
q-94 73 -184 73q-42 0 -73.5 -17t-31.5 -56q0 -22 20 -38t46 -24t66 -17q13 -2 19 -4q40 -10 67.5 -18t62.5 -25.5t56 -39t36 -57t15 -79.5q0 -103 -77 -160t-184 -57q-83 0 -162.5 28.5t-139.5 82.5z" />
    <glyph glyph-name="sacute" unicode="&#x15b;" horiz-adv-x="490" 
d="M463 750l-175 -178h-98l137 178h136zM242 400q-74 0 -74 -45q0 -21 30 -32.5t73 -19t86 -20t73 -47t30 -88.5q0 -79 -59.5 -119.5t-141.5 -40.5q-133 0 -232 85l65 88q75 -69 167 -69q77 0 77 46q0 19 -21.5 31t-54 17t-70.5 15t-70.5 23.5t-54 44.5t-21.5 76
q0 78 59.5 118.5t140.5 40.5q107 0 194 -67l-62 -89q-63 52 -134 52z" />
    <glyph glyph-name="Scircumflex" unicode="&#x15c;" horiz-adv-x="614" 
d="M388 769l-89 111l-89 -111h-88l123 178h108l123 -178h-88zM23 99l84 110q98 -90 215 -90q111 0 111 80q0 14 -5 25.5t-16.5 20t-23.5 15t-32 12.5t-35.5 10t-40.5 10t-41 10q-33 9 -58 18t-52 25.5t-44 36t-28.5 50t-11.5 67.5q0 100 75.5 156.5t179.5 56.5
q140 0 261 -90l-74 -115q-94 73 -184 73q-42 0 -73.5 -17t-31.5 -56q0 -22 20 -38t46 -24t66 -17q13 -2 19 -4q40 -10 67.5 -18t62.5 -25.5t56 -39t36 -57t15 -79.5q0 -103 -77 -160t-184 -57q-83 0 -162.5 28.5t-139.5 82.5z" />
    <glyph glyph-name="scircumflex" unicode="&#x15d;" horiz-adv-x="490" 
d="M341 572l-89 111l-89 -111h-88l123 178h108l123 -178h-88zM242 400q-74 0 -74 -45q0 -21 30 -32.5t73 -19t86 -20t73 -47t30 -88.5q0 -79 -59.5 -119.5t-141.5 -40.5q-133 0 -232 85l65 88q75 -69 167 -69q77 0 77 46q0 19 -21.5 31t-54 17t-70.5 15t-70.5 23.5t-54 44.5
t-21.5 76q0 78 59.5 118.5t140.5 40.5q107 0 194 -67l-62 -89q-63 52 -134 52z" />
    <glyph glyph-name="Scedilla" unicode="&#x15e;" horiz-adv-x="614" 
d="M23 99l84 110q98 -90 215 -90q111 0 111 80q0 14 -5 25.5t-16.5 20t-23.5 15t-32 12.5t-35.5 10t-40.5 10t-41 10q-33 9 -58 18t-52 25.5t-44 36t-28.5 50t-11.5 67.5q0 100 75.5 156.5t179.5 56.5q140 0 261 -90l-74 -115q-94 73 -184 73q-42 0 -73.5 -17t-31.5 -56
q0 -22 20 -38t46 -24t66 -17q13 -2 19 -4q40 -10 67.5 -18t62.5 -25.5t56 -39t36 -57t15 -79.5q0 -99 -70.5 -155t-172.5 -61l-31 -44q18 4 30 4q38 0 65.5 -20t27.5 -59q0 -35 -27.5 -58.5t-79.5 -23.5q-61 0 -102 37l33 38q32 -24 69 -24q22 0 36 10t14 23q0 17 -14 26.5
t-34 9.5q-29 0 -47 -16l-41 27l45 71q-156 11 -264 109z" />
    <glyph glyph-name="scedilla" unicode="&#x15f;" horiz-adv-x="490" 
d="M242 400q-74 0 -74 -45q0 -21 30 -32.5t73 -19t86 -20t73 -47t30 -88.5q0 -79 -59 -119t-140 -41l-31 -43q18 4 30 4q38 0 65.5 -20t27.5 -59q0 -35 -27.5 -58.5t-79.5 -23.5q-61 0 -102 37l33 38q32 -24 69 -24q22 0 36 10t14 23q0 17 -14 26.5t-34 9.5q-29 0 -47 -16
l-41 27l46 73q-101 14 -179 81l65 88q75 -69 167 -69q77 0 77 46q0 19 -21.5 31t-54 17t-70.5 15t-70.5 23.5t-54 44.5t-21.5 76q0 78 59.5 118.5t140.5 40.5q107 0 194 -67l-62 -89q-63 52 -134 52z" />
    <glyph glyph-name="Scaron" unicode="&#x160;" horiz-adv-x="614" 
d="M305 836l89 111h88l-123 -178h-108l-123 178h88zM23 99l84 110q98 -90 215 -90q111 0 111 80q0 14 -5 25.5t-16.5 20t-23.5 15t-32 12.5t-35.5 10t-40.5 10t-41 10q-33 9 -58 18t-52 25.5t-44 36t-28.5 50t-11.5 67.5q0 100 75.5 156.5t179.5 56.5q140 0 261 -90
l-74 -115q-94 73 -184 73q-42 0 -73.5 -17t-31.5 -56q0 -22 20 -38t46 -24t66 -17q13 -2 19 -4q40 -10 67.5 -18t62.5 -25.5t56 -39t36 -57t15 -79.5q0 -103 -77 -160t-184 -57q-83 0 -162.5 28.5t-139.5 82.5z" />
    <glyph glyph-name="scaron" unicode="&#x161;" horiz-adv-x="490" 
d="M244 639l89 111h88l-123 -178h-108l-123 178h88zM242 400q-74 0 -74 -45q0 -21 30 -32.5t73 -19t86 -20t73 -47t30 -88.5q0 -79 -59.5 -119.5t-141.5 -40.5q-133 0 -232 85l65 88q75 -69 167 -69q77 0 77 46q0 19 -21.5 31t-54 17t-70.5 15t-70.5 23.5t-54 44.5t-21.5 76
q0 78 59.5 118.5t140.5 40.5q107 0 194 -67l-62 -89q-63 52 -134 52z" />
    <glyph glyph-name="uni0162" unicode="&#x162;" horiz-adv-x="580" 
d="M366 569v-569h-152v569h-199v131h550v-131h-199zM219 -130q0 33 22.5 55t53.5 22q34 0 54.5 -24t20.5 -59q0 -100 -103 -169l-29 33q49 29 56 64q-32 0 -53.5 22.5t-21.5 55.5z" />
    <glyph glyph-name="uni0163" unicode="&#x163;" horiz-adv-x="388" 
d="M24 492h77v132h139v-132h111v-111h-111v-216q0 -59 58 -59q25 0 40 15l32 -107q-16 -11 -47.5 -18.5t-56.5 -7.5q-165 0 -165 171v222h-77v111zM131 -130q0 33 22.5 55t53.5 22q34 0 54.5 -24t20.5 -59q0 -100 -103 -169l-29 33q49 29 56 64q-32 0 -53.5 22.5t-21.5 55.5
z" />
    <glyph glyph-name="Tcaron" unicode="&#x164;" horiz-adv-x="580" 
d="M366 569v-569h-152v569h-199v131h550v-131h-199zM290 836l89 111h88l-123 -178h-108l-123 178h88z" />
    <glyph glyph-name="tcaron" unicode="&#x165;" horiz-adv-x="388" 
d="M24 492h77v132h139v-132h111v-111h-111v-216q0 -59 58 -59q25 0 40 15l32 -107q-16 -11 -47.5 -18.5t-56.5 -7.5q-165 0 -165 171v222h-77v111zM452 743q0 -55 -33 -108t-88 -85l-30 41q54 30 64 80q-37 0 -62 23.5t-25 58.5q0 40 25.5 63t58.5 23q36 0 63 -25t27 -71z
" />
    <glyph glyph-name="Tbar" unicode="&#x166;" horiz-adv-x="604" 
d="M512 271h-134v-271h-152v271h-133v74h133v224h-199v131h550v-131h-199v-224h134v-74z" />
    <glyph glyph-name="tbar" unicode="&#x167;" horiz-adv-x="390" 
d="M326 219h-84v-54q0 -59 58 -59q25 0 40 15l32 -107q-16 -11 -47.5 -18.5t-56.5 -7.5q-165 0 -165 171v60h-69v74h69v88h-77v111h77v132h139v-132h111v-111h-111v-88h84v-74z" />
    <glyph glyph-name="Utilde" unicode="&#x168;" horiz-adv-x="736" 
d="M368 -12q-133 0 -216 76t-83 197v439h152v-439q0 -61 41 -99.5t106 -38.5t106 38.5t41 99.5v439h152v-439q0 -121 -83 -197t-216 -76zM443 778q-36 0 -84.5 25t-70.5 25t-36 -13.5t-29 -40.5l-60 41q54 103 129 103q36 0 87 -25t68 -25q22 0 36 13.5t29 40.5l61 -41
q-54 -103 -130 -103z" />
    <glyph glyph-name="utilde" unicode="&#x169;" horiz-adv-x="590" 
d="M388 0v59q-22 -32 -63.5 -51.5t-84.5 -19.5q-80 0 -130 50t-50 132v322h139v-307q0 -36 25.5 -57.5t65.5 -21.5q42 0 69 23t29 64v299h139v-492h-139zM365 587q-36 0 -84.5 25t-70.5 25t-36 -13.5t-29 -40.5l-60 41q54 103 129 103q36 0 87 -25t68 -25q22 0 36 13.5
t29 40.5l61 -41q-54 -103 -130 -103z" />
    <glyph glyph-name="Umacron" unicode="&#x16a;" horiz-adv-x="736" 
d="M368 -12q-133 0 -216 76t-83 197v439h152v-439q0 -61 41 -99.5t106 -38.5t106 38.5t41 99.5v439h152v-439q0 -121 -83 -197t-216 -76zM550 784h-363v81h363v-81z" />
    <glyph glyph-name="umacron" unicode="&#x16b;" horiz-adv-x="590" 
d="M388 0v59q-22 -32 -63.5 -51.5t-84.5 -19.5q-80 0 -130 50t-50 132v322h139v-307q0 -36 25.5 -57.5t65.5 -21.5q42 0 69 23t29 64v299h139v-492h-139zM475 577h-363v81h363v-81z" />
    <glyph glyph-name="Ubreve" unicode="&#x16c;" horiz-adv-x="736" 
d="M368 -12q-133 0 -216 76t-83 197v439h152v-439q0 -61 41 -99.5t106 -38.5t106 38.5t41 99.5v439h152v-439q0 -121 -83 -197t-216 -76zM368 856q80 0 123 64l63 -50q-64 -92 -186 -92t-186 92l63 50q43 -64 123 -64z" />
    <glyph glyph-name="ubreve" unicode="&#x16d;" horiz-adv-x="590" 
d="M388 0v59q-22 -32 -63.5 -51.5t-84.5 -19.5q-80 0 -130 50t-50 132v322h139v-307q0 -36 25.5 -57.5t65.5 -21.5q42 0 69 23t29 64v299h139v-492h-139zM290 642q80 0 123 64l63 -50q-64 -92 -186 -92t-186 92l63 50q43 -64 123 -64z" />
    <glyph glyph-name="Uring" unicode="&#x16e;" horiz-adv-x="736" 
d="M368 -12q-133 0 -216 76t-83 197v439h152v-439q0 -61 41 -99.5t106 -38.5t106 38.5t41 99.5v439h152v-439q0 -121 -83 -197t-216 -76zM466 845q0 -41 -27 -68t-71 -27q-43 0 -70 27.5t-27 67.5q0 41 27 68.5t70 27.5q44 0 71 -27.5t27 -68.5zM413 845q0 21 -12 35t-33 14
t-32.5 -14t-11.5 -35q0 -20 11.5 -34.5t32.5 -14.5t33 14.5t12 34.5z" />
    <glyph glyph-name="uring" unicode="&#x16f;" horiz-adv-x="590" 
d="M388 0v59q-22 -32 -63.5 -51.5t-84.5 -19.5q-80 0 -130 50t-50 132v322h139v-307q0 -36 25.5 -57.5t65.5 -21.5q42 0 69 23t29 64v299h139v-492h-139zM388 644q0 -40 -27 -67.5t-71 -27.5q-43 0 -70 27.5t-27 67.5q0 41 27 68.5t70 27.5q44 0 71 -27.5t27 -68.5zM335 644
q0 21 -12 35t-33 14t-32.5 -14t-11.5 -35q0 -20 11.5 -34.5t32.5 -14.5t33 14.5t12 34.5z" />
    <glyph glyph-name="Uhungarumlaut" unicode="&#x170;" horiz-adv-x="736" 
d="M368 -12q-133 0 -216 76t-83 197v439h152v-439q0 -61 41 -99.5t106 -38.5t106 38.5t41 99.5v439h152v-439q0 -121 -83 -197t-216 -76zM421 947l-123 -178h-95l85 178h133zM611 947l-123 -178h-95l85 178h133z" />
    <glyph glyph-name="uhungarumlaut" unicode="&#x171;" horiz-adv-x="590" 
d="M388 0v59q-22 -32 -63.5 -51.5t-84.5 -19.5q-80 0 -130 50t-50 132v322h139v-307q0 -36 25.5 -57.5t65.5 -21.5q42 0 69 23t29 64v299h139v-492h-139zM351 750l-123 -178h-95l85 178h133zM541 750l-123 -178h-95l85 178h133z" />
    <glyph glyph-name="Uogonek" unicode="&#x172;" horiz-adv-x="736" 
d="M405 -10q-14 -2 -37 -2q-133 0 -216 76t-83 197v439h152v-439q0 -61 41 -99.5t106 -38.5t106 38.5t41 99.5v439h152v-439q0 -76 -31.5 -131t-96.5 -99q-28 -19 -41 -28t-32 -25.5t-27 -31.5t-8 -31q0 -32 39 -32q18 0 30 6l32 -76q-48 -24 -94 -24q-48 0 -76 25t-28 63
q0 63 71 113z" />
    <glyph glyph-name="uogonek" unicode="&#x173;" horiz-adv-x="590" 
d="M527 0h-4q-23 0 -60 -26t-37 -59q0 -32 39 -32q18 0 30 6l32 -76q-48 -24 -94 -24q-48 0 -76 25t-28 63q0 37 26 70t58 53h-25v59q-22 -32 -63.5 -51.5t-84.5 -19.5q-80 0 -130 50t-50 132v322h139v-307q0 -36 25.5 -57.5t65.5 -21.5q42 0 69 23t29 64v299h139v-492z" />
    <glyph glyph-name="Wcircumflex" unicode="&#x174;" horiz-adv-x="964" 
d="M416 700h132l125 -456l119 456h163l-203 -700h-146l-125 449l-123 -449h-146l-203 700h163l119 -456zM571 769l-89 111l-89 -111h-88l123 178h108l123 -178h-88z" />
    <glyph glyph-name="wcircumflex" unicode="&#x175;" horiz-adv-x="790" 
d="M484 572l-89 111l-89 -111h-88l123 178h108l123 -178h-88zM454 492l91 -279l89 279h151l-182 -492h-101l-107 303l-107 -303h-101l-182 492h151l89 -279l91 279h118z" />
    <glyph glyph-name="Ycircumflex" unicode="&#x176;" horiz-adv-x="684" 
d="M431 769l-89 111l-89 -111h-88l123 178h108l123 -178h-88zM6 700h176l160 -311l161 311h176l-261 -460v-240h-152v240z" />
    <glyph glyph-name="ycircumflex" unicode="&#x177;" horiz-adv-x="547" 
d="M330 -1q-50 -115 -96 -162.5t-110 -47.5q-59 0 -107 28l49 109q22 -14 50 -14q35 0 55.5 28t38.5 75l-204 477h152l116 -313l116 313h152zM363 572l-89 111l-89 -111h-88l123 178h108l123 -178h-88z" />
    <glyph glyph-name="Ydieresis" unicode="&#x178;" horiz-adv-x="684" 
d="M6 700h176l160 -311l161 311h176l-261 -461v-239h-152v239zM154 857q0 33 23 56t57 23t57.5 -23t23.5 -56t-23.5 -56t-57.5 -23t-57 23t-23 56zM369 857q0 33 23 56t57 23t57.5 -23t23.5 -56t-23.5 -56t-57.5 -23t-57 23t-23 56z" />
    <glyph glyph-name="Zacute" unicode="&#x179;" horiz-adv-x="622" 
d="M34 131l356 438h-342v131h530v-131l-356 -438h363v-131h-551v131zM512 947l-175 -178h-98l137 178h136z" />
    <glyph glyph-name="zacute" unicode="&#x17a;" horiz-adv-x="484" 
d="M458 750l-175 -178h-98l137 178h136zM447 0h-410v114l231 264h-221v114h389v-114l-231 -264h242v-114z" />
    <glyph glyph-name="Zdotaccent" unicode="&#x17b;" horiz-adv-x="622" 
d="M34 131l356 438h-342v131h530v-131l-356 -438h363v-131h-551v131zM230 857q0 33 23 56.5t56 23.5t56.5 -23.5t23.5 -56.5t-23.5 -56t-56.5 -23t-56 23t-23 56z" />
    <glyph glyph-name="zdotaccent" unicode="&#x17c;" horiz-adv-x="484" 
d="M163 643q0 33 23 56.5t56 23.5t56.5 -23.5t23.5 -56.5t-23.5 -56t-56.5 -23t-56 23t-23 56zM447 0h-410v114l231 264h-221v114h389v-114l-231 -264h242v-114z" />
    <glyph glyph-name="Zcaron" unicode="&#x17d;" horiz-adv-x="622" 
d="M34 131l356 438h-342v131h530v-131l-356 -438h363v-131h-551v131zM315 836l89 111h88l-123 -178h-108l-123 178h88z" />
    <glyph glyph-name="zcaron" unicode="&#x17e;" horiz-adv-x="484" 
d="M245 639l89 111h88l-123 -178h-108l-123 178h88zM447 0h-410v114l231 264h-221v114h389v-114l-231 -264h242v-114z" />
    <glyph glyph-name="uni018F" unicode="&#x18f;" horiz-adv-x="771" 
d="M28 331v59h549q-12 82 -68.5 134.5t-136.5 52.5q-109 0 -188 -85l-97 104q50 55 127 85.5t158 30.5q157 0 260.5 -100t103.5 -262q0 -157 -104 -259.5t-260 -102.5q-153 0 -247 94t-97 249zM194 259q17 -64 62 -100t116 -36q69 0 119.5 37t72.5 99h-370z" />
    <glyph glyph-name="florin" unicode="&#x192;" horiz-adv-x="612" 
d="M359 394h120l-33 -128h-119l-111 -444h-148l111 444h-94l33 128h93l37 148q19 77 81.5 123.5t144.5 46.5q72 0 126 -40l-73 -104q-24 20 -55 20q-29 0 -50 -15t-28 -42z" />
    <glyph glyph-name="Gcaron" unicode="&#x1e6;" horiz-adv-x="729" 
d="M399 -12q-158 0 -261 102.5t-103 259.5t103 259.5t261 102.5q149 0 258 -107l-99 -100q-29 34 -71.5 53t-87.5 19q-91 0 -150 -64t-59 -163t59 -163t150 -64q82 0 136 44v101h-167v131h319v-287q-50 -60 -128 -92t-160 -32zM371 836l89 111h88l-123 -178h-108l-123 178
h88z" />
    <glyph glyph-name="gcaron" unicode="&#x1e7;" horiz-adv-x="623" 
d="M298 -92q57 0 90 30.5t33 86.5v44q-25 -32 -63.5 -50.5t-79.5 -18.5q-106 0 -175 69.5t-69 176.5q0 113 68 185.5t176 72.5q91 0 143 -65v53h139v-477q0 -97 -73.5 -161.5t-185.5 -64.5q-62 0 -121 20.5t-96 54.5l64 97q28 -23 70 -38t80 -15zM174 246q0 -61 36.5 -95.5
t86.5 -34.5q60 0 92 39t32 94q0 56 -31 96.5t-89 40.5q-57 0 -92 -38.5t-35 -101.5zM311 639l89 111h88l-123 -178h-108l-123 178h88z" />
    <glyph glyph-name="uni01EA" unicode="&#x1ea;" horiz-adv-x="798" 
d="M763 350q0 -98 -44 -176t-120 -127q-13 -8 -45 -25t-50.5 -28.5t-35 -33t-16.5 -45.5q0 -32 39 -32q18 0 30 6l32 -76q-48 -24 -94 -24q-48 0 -76 25t-28 63q0 62 67 112q-15 -1 -23 -1q-156 0 -260 102.5t-104 259.5t104 259.5t260 102.5t260 -102.5t104 -259.5z
M607 350q0 96 -57 161.5t-151 65.5t-151 -65.5t-57 -161.5t57 -161.5t151 -65.5t151 65.5t57 161.5z" />
    <glyph glyph-name="uni01EB" unicode="&#x1eb;" horiz-adv-x="594" 
d="M33 246q0 109 76 183.5t188 74.5t188 -74.5t76 -183.5q0 -72 -35 -131t-94 -92q-92 -51 -92 -108q0 -32 39 -32q18 0 30 6l32 -76q-48 -24 -94 -24q-48 0 -76 25t-28 63q0 59 66 111h-12q-112 0 -188 74.5t-76 183.5zM421 246q0 62 -34.5 101t-89.5 39t-89.5 -39
t-34.5 -101t34.5 -101t89.5 -39t89.5 39t34.5 101z" />
    <glyph glyph-name="Aringacute" unicode="&#x1fa;" 
d="M274 700h150l270 -700h-161l-48 133h-273l-47 -133h-161zM447 845q0 -41 -27.5 -68t-70.5 -27t-70 27.5t-27 67.5q0 41 27 68.5t70 27.5q44 0 71 -27.5t27 -68.5zM349 515l-90 -251h179zM566 1157l-175 -178h-98l137 178h136zM394 845q0 21 -12 35t-33 14t-32.5 -14
t-11.5 -35q0 -20 11.5 -34.5t32.5 -14.5t33 14.5t12 34.5z" />
    <glyph glyph-name="aringacute" unicode="&#x1fb;" horiz-adv-x="552" 
d="M275 504q100 0 159 -49.5t59 -133.5v-321h-139v45q-55 -57 -142 -57q-78 0 -130.5 47.5t-52.5 117.5q0 75 60 120.5t159 45.5q49 0 106 -21v18q0 33 -27.5 51.5t-76.5 18.5q-38 0 -76.5 -10.5t-58.5 -26.5l-58 98q109 57 218 57zM373 644q0 -40 -27.5 -67.5t-70.5 -27.5
t-70 27.5t-27 67.5q0 41 27 68.5t70 27.5q44 0 71 -27.5t27 -68.5zM492 956l-175 -178h-98l137 178h136zM320 644q0 21 -12 35t-33 14t-32.5 -14t-11.5 -35q0 -20 11.5 -34.5t32.5 -14.5t33 14.5t12 34.5zM250 90q42 0 73 22.5t31 53.5v46q-42 16 -89 16q-45 0 -73.5 -20
t-28.5 -51q0 -30 24 -48.5t63 -18.5z" />
    <glyph glyph-name="AEacute" unicode="&#x1fc;" horiz-adv-x="985" 
d="M782 958l-175 -178h-98l137 178h136zM933 700v-131h-323v-152h298v-131h-298v-155h332v-131h-484v133h-227l-77 -133h-169l408 700h540zM458 529l-151 -265h151v265z" />
    <glyph glyph-name="aeacute" unicode="&#x1fd;" horiz-adv-x="886" 
d="M622 750l-175 -178h-98l137 178h136zM609 390q-40 0 -71 -25t-41 -67h226q-7 41 -39.5 66.5t-74.5 25.5zM250 90q42 0 73 22.5t31 53.5v46q-42 16 -89 16q-45 0 -73.5 -20t-28.5 -51q0 -30 24 -48.5t63 -18.5zM57 447q108 57 203 57q101 0 168 -74q72 74 178 74
q107 0 177.5 -70.5t70.5 -177.5v-52h-360q11 -45 47.5 -72.5t86.5 -27.5q67 0 117 50l74 -86q-36 -39 -90 -59.5t-106 -20.5q-70 0 -127.5 28.5t-92.5 79.5q-66 -108 -191 -108q-78 0 -130.5 47.5t-52.5 117.5q0 75 60 120.5t159 45.5q49 0 106 -21v18q0 33 -27.5 51.5
t-76.5 18.5q-38 0 -76.5 -10.5t-58.5 -26.5z" />
    <glyph glyph-name="Oslashacute" unicode="&#x1fe;" horiz-adv-x="798" 
d="M763 350q0 -157 -104 -259.5t-260 -102.5q-104 0 -189 48l-28 -36h-117l72 92q-102 102 -102 258q0 157 104 259.5t260 102.5q101 0 186 -47l28 35h117l-71 -91q104 -102 104 -259zM607 350q0 78 -41 140l-268 -342q45 -25 101 -25q94 0 151 65.5t57 161.5zM191 350
q0 -79 39 -138l268 341q-46 24 -99 24q-94 0 -151 -65.5t-57 -161.5zM621 947l-175 -178h-98l137 178h136z" />
    <glyph glyph-name="oslashacute" unicode="&#x1ff;" horiz-adv-x="595" 
d="M517 750l-175 -178h-98l137 178h136zM297 386q-55 0 -89.5 -39t-34.5 -101q0 -45 19 -80l169 202q-27 18 -64 18zM421 246q0 43 -17 75l-168 -200q27 -15 61 -15q55 0 89.5 39t34.5 101zM441 463l24 29h82l-57 -68q71 -74 71 -178q0 -109 -76 -183.5t-188 -74.5
q-76 0 -141 38l-21 -26h-82l54 64q-74 74 -74 182q0 109 76 183.5t188 74.5q79 0 144 -41z" />
    <glyph glyph-name="uni0218" unicode="&#x218;" horiz-adv-x="614" 
d="M248 -130q0 33 22.5 55t53.5 22q34 0 54.5 -24t20.5 -59q0 -100 -103 -169l-29 33q49 29 56 64q-32 0 -53.5 22.5t-21.5 55.5zM303 580q-42 0 -73.5 -17t-31.5 -56q0 -22 20 -38t46 -24t66 -17q13 -2 19 -4q40 -10 67.5 -18t62.5 -25.5t56 -39t36 -57t15 -79.5
q0 -103 -77 -160t-184 -57q-83 0 -162.5 28.5t-139.5 82.5l84 110q98 -90 215 -90q111 0 111 80q0 14 -5 25.5t-16.5 20t-23.5 15t-32 12.5t-35.5 10t-40.5 10t-41 10q-33 9 -58 18t-52 25.5t-44 36t-28.5 50t-11.5 67.5q0 100 75.5 156.5t179.5 56.5q140 0 261 -90
l-74 -115q-94 73 -184 73z" />
    <glyph glyph-name="uni0219" unicode="&#x219;" horiz-adv-x="490" 
d="M178 -130q0 33 22.5 55t53.5 22q34 0 54.5 -24t20.5 -59q0 -100 -103 -169l-29 33q49 29 56 64q-32 0 -53.5 22.5t-21.5 55.5zM242 400q-74 0 -74 -45q0 -21 30 -32.5t73 -19t86 -20t73 -47t30 -88.5q0 -79 -59.5 -119.5t-141.5 -40.5q-133 0 -232 85l65 88
q75 -69 167 -69q77 0 77 46q0 19 -21.5 31t-54 17t-70.5 15t-70.5 23.5t-54 44.5t-21.5 76q0 78 59.5 118.5t140.5 40.5q107 0 194 -67l-62 -89q-63 52 -134 52z" />
    <glyph glyph-name="uni021A" unicode="&#x21a;" horiz-adv-x="580" 
d="M366 569v-569h-152v569h-199v131h550v-131h-199zM219 -130q0 33 22.5 55t53.5 22q34 0 54.5 -24t20.5 -59q0 -100 -103 -169l-29 33q49 29 56 64q-32 0 -53.5 22.5t-21.5 55.5z" />
    <glyph glyph-name="uni021B" unicode="&#x21b;" horiz-adv-x="388" 
d="M24 492h77v132h139v-132h111v-111h-111v-216q0 -59 58 -59q25 0 40 15l32 -107q-16 -11 -47.5 -18.5t-56.5 -7.5q-165 0 -165 171v222h-77v111zM131 -130q0 33 22.5 55t53.5 22q34 0 54.5 -24t20.5 -59q0 -100 -103 -169l-29 33q49 29 56 64q-32 0 -53.5 22.5t-21.5 55.5
z" />
    <glyph glyph-name="uni0232" unicode="&#x232;" horiz-adv-x="684" 
d="M6 700h176l160 -311l161 311h176l-261 -460v-240h-152v240zM523 784h-363v81h363v-81z" />
    <glyph glyph-name="uni0233" unicode="&#x233;" horiz-adv-x="547" 
d="M330 -1q-50 -115 -96 -162.5t-110 -47.5q-59 0 -107 28l49 109q22 -14 50 -14q35 0 55.5 28t38.5 75l-204 477h152l116 -313l116 313h152zM454 577h-363v81h363v-81z" />
    <glyph glyph-name="uni0237" unicode="&#x237;" horiz-adv-x="275" 
d="M-39 -196l25 114q18 -7 35 -7q23 0 37 14t14 40v527h139v-523q0 -83 -43.5 -131.5t-120.5 -48.5q-41 0 -86 15z" />
    <glyph glyph-name="uni0259" unicode="&#x259;" horiz-adv-x="562" 
d="M141 338l-74 86q36 39 90 59.5t106 20.5q115 0 190.5 -73.5t75.5 -186.5q0 -109 -71.5 -182.5t-177.5 -73.5q-107 0 -177.5 70.5t-70.5 177.5v52h360q-11 45 -47.5 72.5t-86.5 27.5q-67 0 -117 -50zM277 102q40 0 71 25t41 67h-226q7 -41 39.5 -66.5t74.5 -25.5z" />
    <glyph glyph-name="h.sups" unicode="&#x2b0;" horiz-adv-x="455" 
d="M167 833v-180q34 48 92 48q59 0 94 -34t35 -90v-216h-94v205q0 24 -17.5 40t-44.5 16q-28 0 -46.5 -18t-18.5 -46v-197h-94v472h94z" />
    <glyph glyph-name="circumflex" unicode="&#x2c6;" horiz-adv-x="434" 
d="M306 572l-89 111l-89 -111h-88l123 178h108l123 -178h-88z" />
    <glyph glyph-name="caron" unicode="&#x2c7;" horiz-adv-x="434" 
d="M217 639l89 111h88l-123 -178h-108l-123 178h88z" />
    <glyph glyph-name="uni02C9" unicode="&#x2c9;" horiz-adv-x="429" 
d="M396 619h-363v81h363v-81z" />
    <glyph glyph-name="breve" unicode="&#x2d8;" horiz-adv-x="452" 
d="M226 642q80 0 123 64l63 -50q-64 -92 -186 -92t-186 92l63 50q43 -64 123 -64z" />
    <glyph glyph-name="dotaccent" unicode="&#x2d9;" horiz-adv-x="239" 
d="M40 643q0 33 23 56.5t56 23.5t56.5 -23.5t23.5 -56.5t-23.5 -56t-56.5 -23t-56 23t-23 56z" />
    <glyph glyph-name="ring" unicode="&#x2da;" horiz-adv-x="275" 
d="M235 661q0 -41 -27.5 -68t-70.5 -27t-70 27.5t-27 67.5q0 41 27 68.5t70 27.5q44 0 71 -27.5t27 -68.5zM182 661q0 21 -12 35t-33 14t-32.5 -14t-11.5 -35q0 -20 11.5 -34.5t32.5 -14.5t33 14.5t12 34.5z" />
    <glyph glyph-name="ogonek" unicode="&#x2db;" horiz-adv-x="288" 
d="M110 0h108q-24 -1 -59.5 -27t-35.5 -58t39 -32q18 0 30 6l32 -76q-48 -24 -94 -24q-48 0 -76 25t-28 63q0 37 26 70t58 53z" />
    <glyph glyph-name="tilde" unicode="&#x2dc;" horiz-adv-x="490" 
d="M320 587q-36 0 -84.5 25t-70.5 25t-36 -13.5t-29 -40.5l-60 41q54 103 129 103q35 0 86 -25t69 -25q22 0 36 13.5t29 40.5l61 -41q-54 -103 -130 -103z" />
    <glyph glyph-name="hungarumlaut" unicode="&#x2dd;" horiz-adv-x="488" 
d="M258 750l-123 -178h-95l85 178h133zM448 750l-123 -178h-95l85 178h133z" />
    <glyph glyph-name="uni0374" unicode="&#x374;" horiz-adv-x="259" 
d="M216 764l-73 -281h-81l35 281h119z" />
    <glyph glyph-name="uni0375" unicode="&#x375;" horiz-adv-x="305" 
d="M60 -184l73 281h81l-35 -281h-119z" />
    <glyph glyph-name="uni037E" unicode="&#x37e;" horiz-adv-x="284" 
d="M52 74q0 38 25 63.5t62 25.5q38 0 65.5 -27t27.5 -64q0 -56 -31.5 -110.5t-91.5 -90.5l-38 36q61 35 72 81q-39 0 -65 25t-26 61zM52 416q0 36 26 62t62 26q37 0 63.5 -26t26.5 -62q0 -35 -26.5 -61t-63.5 -26q-36 0 -62 26t-26 61z" />
    <glyph glyph-name="tonos" unicode="&#x384;" horiz-adv-x="479" 
d="M330 769l-77 -199h-81l39 199h119z" />
    <glyph glyph-name="dieresistonos" unicode="&#x385;" horiz-adv-x="596" 
d="M35 641q0 31 22.5 53t53.5 22q32 0 54.5 -22t22.5 -53t-22.5 -53t-54.5 -22q-31 0 -53.5 22t-22.5 53zM398 641q0 31 22.5 53t53.5 22q32 0 54.5 -22t22.5 -53t-22.5 -53t-54.5 -22q-31 0 -53.5 22t-22.5 53zM387 769l-77 -199h-81l39 199h119z" />
    <glyph glyph-name="Alphatonos" unicode="&#x386;" horiz-adv-x="715" 
d="M291 700h150l270 -700h-161l-48 133h-273l-47 -133h-161zM366 515l-90 -251h179zM207 700l-77 -199h-81l39 199h119z" />
    <glyph glyph-name="anoteleia" unicode="&#x387;" horiz-adv-x="257" 
d="M41 360q0 37 25 62.5t62 25.5t62.5 -25.5t25.5 -62.5t-25.5 -62t-62.5 -25t-62 25t-25 62z" />
    <glyph glyph-name="Epsilontonos" unicode="&#x388;" horiz-adv-x="739" 
d="M698 131v-131h-484v700h475v-131h-323v-152h298v-131h-298v-155h332zM155 700l-77 -199h-81l39 199h119z" />
    <glyph glyph-name="Etatonos" unicode="&#x389;" horiz-adv-x="877" 
d="M366 700v-296h283v296h152v-700h-152v273h-283v-273h-152v700h152zM155 700l-77 -199h-81l39 199h119z" />
    <glyph glyph-name="Iotatonos" unicode="&#x38a;" horiz-adv-x="442" 
d="M366 700v-700h-152v700h152zM155 700l-77 -199h-81l39 199h119z" />
    <glyph glyph-name="Omicrontonos" unicode="&#x38c;" horiz-adv-x="901" 
d="M866 350q0 -157 -104 -259.5t-260 -102.5t-260 102.5t-104 259.5t104 259.5t260 102.5t260 -102.5t104 -259.5zM710 350q0 96 -57 161.5t-151 65.5t-151 -65.5t-57 -161.5t57 -161.5t151 -65.5t151 65.5t57 161.5zM159 700l-77 -199h-81l39 199h119z" />
    <glyph glyph-name="Upsilontonos" unicode="&#x38e;" horiz-adv-x="902" 
d="M223 700h176l160 -311l161 311h176l-261 -460v-240h-152v240zM183 700l-77 -199h-81l39 199h119z" />
    <glyph glyph-name="Omegatonos" unicode="&#x38f;" horiz-adv-x="933" 
d="M165 700l-77 -199h-81l39 199h119zM517 712q157 0 258 -92t101 -231q0 -82 -43.5 -150.5t-106.5 -107.5h169v-131h-318v146q70 29 106.5 87.5t36.5 133.5q0 87 -54 148.5t-149 61.5q-99 0 -151 -61t-52 -149q0 -75 36.5 -133.5t106.5 -87.5v-146h-318v131h161
q-61 38 -101.5 106.5t-40.5 151.5q0 138 101.5 230.5t257.5 92.5z" />
    <glyph glyph-name="iotadieresistonos" unicode="&#x390;" horiz-adv-x="295" 
d="M-110 641q0 31 22.5 53t53.5 22q32 0 54.5 -22t22.5 -53t-22.5 -53t-54.5 -22q-31 0 -53.5 22t-22.5 53zM253 641q0 31 22.5 53t53.5 22q32 0 54.5 -22t22.5 -53t-22.5 -53t-54.5 -22q-31 0 -53.5 22t-22.5 53zM242 769l-77 -199h-81l39 199h119zM263 107l14 -113
q-42 -6 -64 -6q-75 0 -114 38.5t-39 129.5v336h139v-335q0 -51 50 -51z" />
    <glyph glyph-name="Alpha" unicode="&#x391;" 
d="M274 700h150l270 -700h-161l-48 133h-273l-47 -133h-161zM349 515l-90 -251h179z" />
    <glyph glyph-name="Beta" unicode="&#x392;" horiz-adv-x="677" 
d="M76 0v700h308q102 0 164 -50t62 -133q0 -44 -25.5 -85.5t-64.5 -61.5q57 -21 89 -69t32 -106q0 -85 -63 -140t-158 -55h-344zM228 131h169q40 0 64.5 22.5t24.5 57.5q0 36 -25.5 59t-65.5 23h-167v-162zM228 424h156q34 0 57.5 21t23.5 52t-23 51.5t-57 20.5h-157v-145z
" />
    <glyph glyph-name="Gamma" unicode="&#x393;" horiz-adv-x="567" 
d="M228 569v-569h-152v700h475v-131h-323z" />
    <glyph glyph-name="uni0394" unicode="&#x394;" horiz-adv-x="701" 
d="M4 0l267 700h161l264 -700h-692zM349 531l-141 -400h279z" />
    <glyph glyph-name="Epsilon" unicode="&#x395;" horiz-adv-x="601" 
d="M560 131v-131h-484v700h475v-131h-323v-152h298v-131h-298v-155h332z" />
    <glyph glyph-name="Zeta" unicode="&#x396;" horiz-adv-x="622" 
d="M34 131l356 438h-342v131h530v-131l-356 -438h363v-131h-551v131z" />
    <glyph glyph-name="Eta" unicode="&#x397;" horiz-adv-x="739" 
d="M228 700v-296h283v296h152v-700h-152v273h-283v-273h-152v700h152z" />
    <glyph glyph-name="Theta" unicode="&#x398;" horiz-adv-x="798" 
d="M763 350q0 -157 -104 -259.5t-260 -102.5t-260 102.5t-104 259.5t104 259.5t260 102.5t260 -102.5t104 -259.5zM607 350q0 96 -57 161.5t-151 65.5t-151 -65.5t-57 -161.5t57 -161.5t151 -65.5t151 65.5t57 161.5zM531 288h-264v127h264v-127z" />
    <glyph glyph-name="Iota" unicode="&#x399;" horiz-adv-x="304" 
d="M228 700v-700h-152v700h152z" />
    <glyph glyph-name="Kappa" unicode="&#x39a;" horiz-adv-x="685" 
d="M228 700v-333l273 333h184l-265 -317l272 -383h-184l-184 268l-96 -115v-153h-152v700h152z" />
    <glyph glyph-name="Lambda" unicode="&#x39b;" 
d="M274 700h150l270 -700h-161l-184 515l-184 -515h-161z" />
    <glyph glyph-name="Mu" unicode="&#x39c;" horiz-adv-x="896" 
d="M498 0h-100l-170 470v-470h-152v700h209l163 -458l163 458h209v-700h-152v470z" />
    <glyph glyph-name="Nu" unicode="&#x39d;" horiz-adv-x="756" 
d="M680 700v-700h-152l-300 454v-454h-152v700h152l300 -453v453h152z" />
    <glyph glyph-name="Xi" unicode="&#x39e;" horiz-adv-x="650" 
d="M612 0h-574v140h574v-140zM559 284h-468v135h468v-135zM47 700h556v-140h-556v140z" />
    <glyph glyph-name="Omicron" unicode="&#x39f;" horiz-adv-x="798" 
d="M763 350q0 -157 -104 -259.5t-260 -102.5t-260 102.5t-104 259.5t104 259.5t260 102.5t260 -102.5t104 -259.5zM607 350q0 96 -57 161.5t-151 65.5t-151 -65.5t-57 -161.5t57 -161.5t151 -65.5t151 65.5t57 161.5z" />
    <glyph glyph-name="Pi" unicode="&#x3a0;" horiz-adv-x="759" 
d="M76 700h607v-700h-152v565h-303v-565h-152v700z" />
    <glyph glyph-name="Rho" unicode="&#x3a1;" horiz-adv-x="641" 
d="M76 700h290q110 0 181 -66t71 -169t-71 -169.5t-181 -66.5h-138v-229h-152v700zM228 360h136q44 0 72.5 30t28.5 76q0 45 -28.5 74t-72.5 29h-136v-209z" />
    <glyph glyph-name="Sigma" unicode="&#x3a3;" horiz-adv-x="595" 
d="M48 569v131h503v-131h-315l192 -214l-188 -224h321v-131h-518v116l201 234z" />
    <glyph glyph-name="Tau" unicode="&#x3a4;" horiz-adv-x="580" 
d="M366 569v-569h-152v569h-199v131h550v-131h-199z" />
    <glyph glyph-name="Upsilon" unicode="&#x3a5;" horiz-adv-x="685" 
d="M6 700h176l160 -311l161 311h176l-261 -460v-240h-152v240z" />
    <glyph glyph-name="Phi" unicode="&#x3a6;" horiz-adv-x="866" 
d="M509 88v-88h-152v88q-154 7 -240 77t-86 188q0 117 85.5 185.5t240.5 74.5v87h152v-87q155 -6 240.5 -74.5t85.5 -185.5q0 -118 -86 -188t-240 -77zM191 353q0 -62 42 -100.5t124 -39.5v277q-82 -2 -124 -39.5t-42 -97.5zM675 353q0 60 -42 97.5t-124 39.5v-277
q82 1 124 39.5t42 100.5z" />
    <glyph glyph-name="Chi" unicode="&#x3a7;" horiz-adv-x="659" 
d="M329 232l-152 -232h-182l247 357l-236 343h181l142 -218l142 218h182l-236 -343l247 -357h-183z" />
    <glyph glyph-name="Psi" unicode="&#x3a8;" horiz-adv-x="804" 
d="M478 209v-209h-152v209q-136 9 -213 80.5t-77 186.5v224h152v-220q0 -61 36.5 -98.5t101.5 -44.5v363h152v-363q65 7 101.5 44.5t36.5 98.5v220h152v-224q0 -114 -77.5 -186t-212.5 -81z" />
    <glyph glyph-name="uni03A9" unicode="&#x3a9;" horiz-adv-x="832" 
d="M416 712q157 0 258 -92t101 -231q0 -82 -43.5 -150.5t-106.5 -107.5h169v-131h-318v146q70 29 106.5 87.5t36.5 133.5q0 87 -54 148.5t-149 61.5q-99 0 -151 -61t-52 -149q0 -75 36.5 -133.5t106.5 -87.5v-146h-318v131h161q-61 38 -101.5 106.5t-40.5 151.5
q0 138 101.5 230.5t257.5 92.5z" />
    <glyph glyph-name="Iotadieresis" unicode="&#x3aa;" horiz-adv-x="304" 
d="M228 700v-700h-152v700h152zM-36 857q0 33 23 56t57 23t57.5 -23t23.5 -56t-23.5 -56t-57.5 -23t-57 23t-23 56zM179 857q0 33 23 56t57 23t57.5 -23t23.5 -56t-23.5 -56t-57.5 -23t-57 23t-23 56z" />
    <glyph glyph-name="Upsilondieresis" unicode="&#x3ab;" horiz-adv-x="685" 
d="M6 700h176l160 -311l161 311h176l-261 -461v-239h-152v239zM154 857q0 33 23 56t57 23t57.5 -23t23.5 -56t-23.5 -56t-57.5 -23t-57 23t-23 56zM369 857q0 33 23 56t57 23t57.5 -23t23.5 -56t-23.5 -56t-57.5 -23t-57 23t-23 56z" />
    <glyph glyph-name="alphatonos" unicode="&#x3ac;" horiz-adv-x="646" 
d="M437 769l-77 -199h-81l39 199h119zM627 117v-118q-33 -11 -64 -11q-92 0 -131 83q-26 -39 -67.5 -61t-88.5 -22q-106 0 -174 72.5t-68 185.5t68 185.5t176 72.5q43 0 82 -18t62 -47v53h139v-337q0 -20 13.5 -30.5t32.5 -10.5q9 0 20 3zM174 246q0 -60 33.5 -100t92.5 -40
q52 0 87 40t35 100t-34 100t-86 40q-58 0 -93 -38.5t-35 -101.5z" />
    <glyph glyph-name="epsilontonos" unicode="&#x3ad;" horiz-adv-x="491" 
d="M374 769l-77 -199h-81l39 199h119zM459 461l-42 -104q-83 37 -155 37q-32 0 -52.5 -12.5t-20.5 -36.5q0 -20 15.5 -32.5t38.5 -12.5h102v-101h-92q-78 0 -78 -49q0 -24 21.5 -37.5t55.5 -13.5q37 0 85 13.5t83 38.5l54 -91q-98 -72 -225 -72q-89 0 -151.5 40.5
t-62.5 109.5q0 40 21 71t56 46q-63 41 -63 106q0 67 62.5 105t149.5 38q98 0 198 -43z" />
    <glyph glyph-name="etatonos" unicode="&#x3ae;" horiz-adv-x="590" 
d="M203 492v-59q50 71 148 71q80 0 130 -50.5t50 -132.5v-522h-139v505q0 36 -25.5 59t-65.5 23q-42 0 -70 -25.5t-28 -66.5v-294h-139v492h139zM407 769l-77 -199h-81l39 199h119z" />
    <glyph glyph-name="iotatonos" unicode="&#x3af;" horiz-adv-x="295" 
d="M246 769l-77 -199h-81l39 199h119zM263 107l14 -113q-42 -6 -64 -6q-75 0 -114 38.5t-39 129.5v336h139v-335q0 -51 50 -51z" />
    <glyph glyph-name="upsilondieresistonos" unicode="&#x3b0;" horiz-adv-x="582" 
d="M33 641q0 31 22.5 53t53.5 22q32 0 54.5 -22t22.5 -53t-22.5 -53t-54.5 -22q-31 0 -53.5 22t-22.5 53zM396 641q0 31 22.5 53t53.5 22q32 0 54.5 -22t22.5 -53t-22.5 -53t-54.5 -22q-31 0 -53.5 22t-22.5 53zM385 769l-77 -199h-81l39 199h119zM291 -12
q-98 0 -165.5 53.5t-67.5 151.5v299h139v-302q0 -84 94 -84t94 84v302h139v-299q0 -98 -67.5 -151.5t-165.5 -53.5z" />
    <glyph glyph-name="alpha" unicode="&#x3b1;" horiz-adv-x="646" 
d="M627 117v-118q-33 -11 -64 -11q-92 0 -131 83q-26 -39 -67.5 -61t-88.5 -22q-106 0 -174 72.5t-68 185.5t68 185.5t176 72.5q43 0 82 -18t62 -47v53h139v-337q0 -20 13.5 -30.5t32.5 -10.5q9 0 20 3zM174 246q0 -60 33.5 -100t92.5 -40q52 0 87 40t35 100t-34 100t-86 40
q-58 0 -93 -38.5t-35 -101.5z" />
    <glyph glyph-name="beta" unicode="&#x3b2;" horiz-adv-x="603" 
d="M203 -201h-139v677q0 109 66 172.5t181 63.5q108 0 170 -53t62 -135q0 -49 -24.5 -91t-70.5 -66q56 -27 89 -74.5t33 -105.5q0 -82 -59 -141t-151 -59q-111 0 -157 70v-258zM329 301h-53v114h46q41 0 63.5 26.5t22.5 65.5q0 42 -28 67.5t-72 25.5q-48 0 -76.5 -30.5
t-28.5 -85.5v-260q0 -53 37.5 -85t84.5 -32q42 0 69.5 24.5t27.5 75.5q0 40 -24 67t-69 27z" />
    <glyph glyph-name="gamma" unicode="&#x3b3;" horiz-adv-x="547" 
d="M541 492l-198 -464v-229h-139v229l-199 464h152l116 -312l116 312h152z" />
    <glyph glyph-name="delta" unicode="&#x3b4;" horiz-adv-x="593" 
d="M503 667l-53 -114q-74 49 -157 49q-29 0 -48.5 -12t-19.5 -36q0 -11 6 -20t19.5 -16.5t25.5 -12.5t34.5 -13.5t34.5 -13.5q37 -15 60.5 -26.5t56 -33.5t51.5 -45.5t33 -60t14 -79.5q0 -108 -75.5 -176.5t-188.5 -68.5t-188.5 68.5t-75.5 176.5q0 68 38.5 119t100.5 80
q-81 48 -81 125q0 76 63 115.5t152 39.5q100 0 198 -45zM417 232q0 31 -10 54t-31.5 39.5t-41 26t-53.5 21.5q-46 -15 -76.5 -54t-30.5 -87q0 -60 34 -93.5t88 -33.5t87.5 33t33.5 94z" />
    <glyph glyph-name="epsilon" unicode="&#x3b5;" horiz-adv-x="491" 
d="M459 461l-42 -104q-83 37 -155 37q-32 0 -52.5 -12.5t-20.5 -36.5q0 -20 15.5 -32.5t38.5 -12.5h102v-101h-92q-78 0 -78 -49q0 -24 21.5 -37.5t55.5 -13.5q37 0 85 13.5t83 38.5l54 -91q-98 -72 -225 -72q-89 0 -151.5 40.5t-62.5 109.5q0 40 21 71t56 46
q-63 41 -63 106q0 67 62.5 105t149.5 38q98 0 198 -43z" />
    <glyph glyph-name="zeta" unicode="&#x3b6;" horiz-adv-x="461" 
d="M439 -21q0 -68 -69 -150l-107 57q37 50 37 73q0 26 -30 36q-12 4 -50 15t-56 17.5t-48 22.5t-45 33t-27 46t-12 66q0 82 70 178t207 213h-253v114h389v-124q-64 -56 -119 -112.5t-104 -130.5t-49 -124q0 -52 55 -74q19 -8 53 -17t57.5 -16.5t49 -22t38.5 -39.5t13 -61z
" />
    <glyph glyph-name="eta" unicode="&#x3b7;" horiz-adv-x="590" 
d="M203 492v-59q50 71 148 71q80 0 130 -50.5t50 -132.5v-522h-139v505q0 36 -25.5 59t-65.5 23q-42 0 -70 -25.5t-28 -66.5v-294h-139v492h139z" />
    <glyph glyph-name="theta" unicode="&#x3b8;" horiz-adv-x="605" 
d="M303 -12q-124 0 -192.5 97.5t-68.5 260.5t68.5 261t192.5 98t192 -98t68 -261t-68 -260.5t-192 -97.5zM303 99q57 0 87.5 52t32.5 142h-240q7 -194 120 -194zM303 595q-113 0 -120 -188h240q-7 188 -120 188z" />
    <glyph glyph-name="iota" unicode="&#x3b9;" horiz-adv-x="295" 
d="M263 107l14 -113q-42 -6 -64 -6q-75 0 -114 38.5t-39 129.5v336h139v-335q0 -51 50 -51z" />
    <glyph glyph-name="kappa" unicode="&#x3ba;" horiz-adv-x="547" 
d="M203 492v-182l165 182h178l-201 -214l204 -278h-169l-125 184l-52 -54v-130h-139v492h139z" />
    <glyph glyph-name="lambda" unicode="&#x3bb;" horiz-adv-x="553" 
d="M85 576l-31 110q54 18 107 18q66 0 105.5 -45t84.5 -162l195 -497h-153l-112 307l-128 -307h-148l212 468q-1 3 -7.5 20t-10.5 26.5t-12 25t-16 24t-19.5 15.5t-23.5 7q-11 0 -22 -2.5t-16 -5.5z" />
    <glyph glyph-name="uni03BC" unicode="&#x3bc;" horiz-adv-x="616" 
d="M592 117v-120q-28 -9 -59 -9q-85 0 -124 67q-48 -67 -128 -67q-59 0 -100 46l22 -47v-188h-139v693h139v-309q0 -34 25.5 -54.5t65.5 -20.5q42 0 69 23t29 64v297h139v-341q1 -18 14.5 -27.5t31.5 -9.5z" />
    <glyph glyph-name="nu" unicode="&#x3bd;" horiz-adv-x="546" 
d="M330 0h-114l-211 492h152l116 -312l116 312h152z" />
    <glyph glyph-name="xi" unicode="&#x3be;" horiz-adv-x="451" 
d="M178 215q0 -39 26 -62t63 -33.5t74 -23t63 -41.5t26 -78q0 -65 -70 -148l-107 57q35 46 35 64q0 27 -16 38t-82 33q-36 12 -60.5 24t-48 31.5t-35.5 48.5t-12 68q0 63 45 110t114 66q-61 4 -97 34t-36 72q0 70 84 111h-112v114h389v-114h-87q-49 0 -92 -19t-43 -63
q0 -29 24.5 -50.5t68.5 -21.5h104v-115h-87q-64 0 -97.5 -32t-33.5 -70z" />
    <glyph glyph-name="omicron" unicode="&#x3bf;" horiz-adv-x="594" 
d="M421 246q0 62 -34.5 101t-89.5 39t-89.5 -39t-34.5 -101t34.5 -101t89.5 -39t89.5 39t34.5 101zM561 246q0 -109 -76 -183.5t-188 -74.5t-188 74.5t-76 183.5t76 183.5t188 74.5t188 -74.5t76 -183.5z" />
    <glyph glyph-name="pi" unicode="&#x3c0;" horiz-adv-x="685" 
d="M643 109l6 -115q-42 -6 -79 -6q-75 0 -114 38.5t-39 129.5v222h-166v-378h-139v378h-88v114h618v-114h-86v-221q0 -29 13.5 -39.5t39.5 -10.5z" />
    <glyph glyph-name="rho" unicode="&#x3c1;" horiz-adv-x="614" 
d="M440 246q0 60 -34 100t-94 40q-52 0 -86 -40t-34 -100q0 -67 33.5 -103.5t88.5 -36.5q56 0 91 38.5t35 101.5zM53 -201v436q0 116 68.5 192.5t195.5 76.5q121 0 192 -72.5t71 -185.5t-68 -185.5t-173 -72.5q-43 0 -85 18.5t-62 49.5v-257h-139z" />
    <glyph glyph-name="sigma1" unicode="&#x3c2;" horiz-adv-x="490" 
d="M484 445l-80 -110q-42 48 -111 48q-52 0 -86.5 -34.5t-34.5 -89.5q0 -68 51 -100q22 -14 67 -30.5t77.5 -29.5t58.5 -43.5t26 -73.5q0 -70 -70 -153l-106 57q4 6 12 15.5t11.5 14.5t8 12t6.5 13t2 11q0 27 -17.5 40t-56.5 24q-99 29 -154 86t-55 154q0 104 73 176t187 72
q104 0 191 -59z" />
    <glyph glyph-name="sigma" unicode="&#x3c3;" horiz-adv-x="626" 
d="M421 241q0 63 -33 100t-91 37q-56 0 -90 -35.5t-34 -96.5q0 -62 34.5 -101t89.5 -39q58 0 91 37.5t33 97.5zM307 492h289v-114h-104q30 -18 49.5 -60.5t19.5 -83.5q0 -110 -75 -178t-189 -68q-112 0 -188 74.5t-76 183.5t76.5 177.5t197.5 68.5z" />
    <glyph glyph-name="tau" unicode="&#x3c4;" horiz-adv-x="451" 
d="M369 109l6 -115q-42 -6 -79 -6q-75 0 -114 38.5t-39 129.5v222h-130v114h419v-114h-150v-221q0 -29 13.5 -39.5t39.5 -10.5z" />
    <glyph glyph-name="upsilon" unicode="&#x3c5;" horiz-adv-x="582" 
d="M291 -12q-98 0 -165.5 53.5t-67.5 151.5v299h139v-302q0 -84 94 -84t94 84v302h139v-299q0 -98 -67.5 -151.5t-165.5 -53.5z" />
    <glyph glyph-name="phi" unicode="&#x3c6;" horiz-adv-x="749" 
d="M303 -201v201q-123 0 -196 68t-73 180q0 95 51.5 164t139.5 91l39 -110q-46 -22 -65.5 -55t-19.5 -92q0 -62 35 -101t89 -39v219q0 79 52.5 129t132.5 50q104 0 165 -67t61 -182q0 -117 -78 -186t-194 -69v-201h-139zM442 337v-231q129 0 129 145q0 51 -19 96t-62 45
q-20 0 -34 -14.5t-14 -40.5z" />
    <glyph glyph-name="chi" unicode="&#x3c7;" horiz-adv-x="558" 
d="M382 -201l-112 233l-113 -233h-159l199 354l-186 339h163l106 -225l110 225h156l-193 -344l192 -349h-163z" />
    <glyph glyph-name="psi" unicode="&#x3c8;" horiz-adv-x="789" 
d="M462 593v-489q134 8 134 145v243h139v-234q0 -131 -76.5 -196t-196.5 -72v-191h-133v190q-122 4 -198 67.5t-76 200.5v235h139v-243q0 -137 135 -145v489h133z" />
    <glyph glyph-name="omega" unicode="&#x3c9;" horiz-adv-x="788" 
d="M464 378v-188q9 -85 71 -85q74 0 74 121q0 62 -18.5 128.5t-37.5 101.5l-19 36h150q7 -14 18 -39.5t29.5 -94t18.5 -126.5q0 -116 -52 -180t-146 -64q-108 0 -159 99q-48 -99 -157 -99q-94 0 -146 64t-52 180q0 58 16.5 123t33.5 101l16 36h150q-8 -14 -20.5 -39
t-33.5 -95t-21 -132q0 -121 74 -121q64 0 72 94v179h139z" />
    <glyph glyph-name="iotadieresis" unicode="&#x3ca;" horiz-adv-x="295" 
d="M-58 659q0 31 22.5 53t53.5 22q32 0 54.5 -22t22.5 -53t-22.5 -53t-54.5 -22q-31 0 -53.5 22t-22.5 53zM165 659q0 31 22.5 53t53.5 22q32 0 54.5 -22t22.5 -53t-22.5 -53t-54.5 -22q-31 0 -53.5 22t-22.5 53zM263 107l14 -113q-42 -6 -64 -6q-75 0 -114 38.5t-39 129.5
v336h139v-335q0 -51 50 -51z" />
    <glyph glyph-name="upsilondieresis" unicode="&#x3cb;" horiz-adv-x="582" 
d="M103 659q0 31 22.5 53t53.5 22q32 0 54.5 -22t22.5 -53t-22.5 -53t-54.5 -22q-31 0 -53.5 22t-22.5 53zM326 659q0 31 22.5 53t53.5 22q32 0 54.5 -22t22.5 -53t-22.5 -53t-54.5 -22q-31 0 -53.5 22t-22.5 53zM291 -12q-98 0 -165.5 53.5t-67.5 151.5v299h139v-302
q0 -84 94 -84t94 84v302h139v-299q0 -98 -67.5 -151.5t-165.5 -53.5z" />
    <glyph glyph-name="omicrontonos" unicode="&#x3cc;" horiz-adv-x="594" 
d="M421 246q0 62 -34.5 101t-89.5 39t-89.5 -39t-34.5 -101t34.5 -101t89.5 -39t89.5 39t34.5 101zM561 246q0 -109 -76 -183.5t-188 -74.5t-188 74.5t-76 183.5t76 183.5t188 74.5t188 -74.5t76 -183.5zM413 769l-77 -199h-81l39 199h119z" />
    <glyph glyph-name="upsilontonos" unicode="&#x3cd;" horiz-adv-x="582" 
d="M394 769l-77 -199h-81l39 199h119zM291 -12q-98 0 -165.5 53.5t-67.5 151.5v299h139v-302q0 -84 94 -84t94 84v302h139v-299q0 -98 -67.5 -151.5t-165.5 -53.5z" />
    <glyph glyph-name="omegatonos" unicode="&#x3ce;" horiz-adv-x="788" 
d="M464 378v-188q9 -85 71 -85q74 0 74 121q0 62 -18.5 128.5t-37.5 101.5l-19 36h150q7 -14 18 -39.5t29.5 -94t18.5 -126.5q0 -116 -52 -180t-146 -64q-108 0 -159 99q-48 -99 -157 -99q-94 0 -146 64t-52 180q0 58 16.5 123t33.5 101l16 36h150q-8 -14 -20.5 -39
t-33.5 -95t-21 -132q0 -121 74 -121q64 0 72 94v179h139zM505 769l-77 -199h-81l39 199h119z" />
    <glyph glyph-name="uni03CF" unicode="&#x3cf;" horiz-adv-x="685" 
d="M228 700v-333l273 333h184l-265 -317l272 -383l-187 -198l-106 103l104 109l-179 254l-96 -115v-153h-152v700h152z" />
    <glyph glyph-name="uni03D7" unicode="&#x3d7;" horiz-adv-x="547" 
d="M277 -90l96 101l-118 173l-52 -54v-130h-139v492h139v-182l165 182h178l-201 -214l204 -278l-174 -185z" />
    <glyph glyph-name="uni0400" unicode="&#x400;" horiz-adv-x="603" 
d="M312 769l-175 178h136l137 -178h-98zM560 131v-131h-484v700h475v-131h-323v-152h298v-131h-298v-155h332z" />
    <glyph glyph-name="uni0401" unicode="&#x401;" horiz-adv-x="603" 
d="M560 131v-131h-484v700h475v-131h-323v-152h298v-131h-298v-155h332zM130 857q0 33 23 56t57 23t57.5 -23t23.5 -56t-23.5 -56t-57.5 -23t-57 23t-23 56zM345 857q0 33 23 56t57 23t57.5 -23t23.5 -56t-23.5 -56t-57.5 -23t-57 23t-23 56z" />
    <glyph glyph-name="uni0402" unicode="&#x402;" horiz-adv-x="728" 
d="M16 700h530v-131h-199v-158q55 61 148 61q92 0 144.5 -63.5t52.5 -168.5q0 -113 -60.5 -176.5t-164.5 -63.5h-30v131h10q39 0 64 29.5t25 75.5t-25 73.5t-66 27.5t-69.5 -28t-28.5 -70v-239h-152v569h-179v131z" />
    <glyph glyph-name="uni0403" unicode="&#x403;" horiz-adv-x="529" 
d="M76 700h437v-131h-285v-569h-152v700zM483 947l-175 -178h-98l137 178h136z" />
    <glyph glyph-name="uni0404" unicode="&#x404;" horiz-adv-x="683" 
d="M399 -12q-156 0 -260 102.5t-104 259.5t104 259.5t260 102.5q149 0 258 -107l-99 -100q-29 34 -71.5 53t-87.5 19q-75 0 -127.5 -43.5t-71.5 -114.5h323v-131h-325q17 -74 70.5 -119.5t130.5 -45.5q98 0 163 80l108 -88q-106 -127 -271 -127z" />
    <glyph glyph-name="uni0405" unicode="&#x405;" horiz-adv-x="614" 
d="M303 580q-42 0 -73.5 -17t-31.5 -56q0 -22 20 -38t46 -24t66 -17q13 -2 19 -4q40 -10 67.5 -18t62.5 -25.5t56 -39t36 -57t15 -79.5q0 -103 -77 -160t-184 -57q-83 0 -162.5 28.5t-139.5 82.5l84 110q98 -90 215 -90q111 0 111 80q0 14 -5 25.5t-16.5 20t-23.5 15
t-32 12.5t-35.5 10t-40.5 10t-41 10q-33 9 -58 18t-52 25.5t-44 36t-28.5 50t-11.5 67.5q0 100 75.5 156.5t179.5 56.5q140 0 261 -90l-74 -115q-94 73 -184 73z" />
    <glyph glyph-name="uni0406" unicode="&#x406;" horiz-adv-x="304" 
d="M228 700v-700h-152v700h152z" />
    <glyph glyph-name="uni0407" unicode="&#x407;" horiz-adv-x="304" 
d="M228 700v-700h-152v700h152zM-36 857q0 33 23 56t57 23t57.5 -23t23.5 -56t-23.5 -56t-57.5 -23t-57 23t-23 56zM179 857q0 33 23 56t57 23t57.5 -23t23.5 -56t-23.5 -56t-57.5 -23t-57 23t-23 56z" />
    <glyph glyph-name="uni0408" unicode="&#x408;" horiz-adv-x="512" 
d="M289 700h152v-497q0 -99 -62.5 -157t-170.5 -58q-127 0 -210 88l76 104q59 -57 125 -57q90 0 90 83v494z" />
    <glyph glyph-name="uni0409" unicode="&#x409;" horiz-adv-x="1054" 
d="M144 700h493v-239h140q110 0 182 -64.5t72 -165.5q0 -102 -72 -166.5t-182 -64.5h-292v569h-196l-14 -316q-7 -164 -54 -215q-45 -50 -126 -50q-42 0 -75 12v129q17 -7 39 -7q39 0 52 37q9 26 14 94q6 78 19 447zM637 330v-199h130q49 0 80 28t31 72q0 43 -31.5 71
t-79.5 28h-130z" />
    <glyph glyph-name="uni040A" unicode="&#x40a;" horiz-adv-x="1057" 
d="M76 700h152v-296h260v296h152v-239h140q111 0 182.5 -64.5t71.5 -165.5t-71.5 -166t-182.5 -65h-292v273h-260v-273h-152v700zM640 330v-199h130q49 0 80 28t31 72q0 43 -31 71t-80 28h-130z" />
    <glyph glyph-name="uni040B" unicode="&#x40b;" horiz-adv-x="733" 
d="M16 700h530v-131h-199v-158q55 61 150 61q84 0 137.5 -55t53.5 -140v-277h-152v252q0 37 -26.5 61t-66.5 24q-42 0 -69 -28t-27 -70v-239h-152v569h-179v131z" />
    <glyph glyph-name="uni040C" unicode="&#x40c;" horiz-adv-x="673" 
d="M574 947l-175 -178h-98l137 178h136zM76 700h152v-282h78l176 282h180l-217 -337l232 -363h-180l-183 287h-86v-287h-152v700z" />
    <glyph glyph-name="uni040D" unicode="&#x40d;" horiz-adv-x="739" 
d="M76 700h152v-453l293 453h142v-700h-152v453l-293 -453h-142v700zM358 769l-175 178h136l137 -178h-98z" />
    <glyph glyph-name="uni040E" unicode="&#x40e;" horiz-adv-x="661" 
d="M9 700h173l160 -342l155 342h172l-270 -549q-41 -83 -93.5 -123t-125.5 -40q-68 0 -112 29l47 122q25 -16 56 -16q66 0 88 71zM336 856q80 0 123 64l63 -50q-64 -92 -186 -92t-186 92l63 50q43 -64 123 -64z" />
    <glyph glyph-name="uni040F" unicode="&#x40f;" horiz-adv-x="722" 
d="M76 700h152v-569h266v569h152v-700h-214v-130h-142v130h-214v700z" />
    <glyph glyph-name="uni0410" unicode="&#x410;" 
d="M274 700h150l270 -700h-161l-48 133h-273l-47 -133h-161zM349 515l-90 -251h179z" />
    <glyph glyph-name="uni0411" unicode="&#x411;" horiz-adv-x="650" 
d="M76 700h475v-131h-323v-135h155q107 0 176 -59t69 -157t-69 -158t-176 -60h-307v700zM228 303v-172h145q44 0 73 24t29 63t-29 62t-73 23h-145z" />
    <glyph glyph-name="uni0412" unicode="&#x412;" horiz-adv-x="675" 
d="M76 0v700h308q102 0 164 -50t62 -133q0 -44 -25.5 -85.5t-64.5 -61.5q57 -21 89 -69t32 -106q0 -85 -63 -140t-158 -55h-344zM228 131h169q40 0 64.5 22.5t24.5 57.5q0 36 -25.5 59t-65.5 23h-167v-162zM228 424h156q34 0 57.5 21t23.5 52t-23 51.5t-57 20.5h-157v-145z
" />
    <glyph glyph-name="uni0413" unicode="&#x413;" horiz-adv-x="529" 
d="M76 700h437v-131h-285v-569h-152v700z" />
    <glyph glyph-name="uni0414" unicode="&#x414;" horiz-adv-x="789" 
d="M166 700h502v-569h92v-261h-142v130h-457v-130h-142v261h82q22 54 35.5 134.5t17 132.5t6.5 144q1 18 1 27zM310 569l-3 -65q-4 -83 -7 -129t-15.5 -120.5t-32.5 -123.5h264v438h-206z" />
    <glyph glyph-name="uni0415" unicode="&#x415;" horiz-adv-x="603" 
d="M560 131v-131h-484v700h475v-131h-323v-152h298v-131h-298v-155h332z" />
    <glyph glyph-name="uni0416" unicode="&#x416;" horiz-adv-x="998" 
d="M14 700h175l160 -283h74v283h152v-283h74l160 283h175l-200 -337l215 -363h-175l-168 290h-81v-290h-152v290h-81l-168 -290h-175l214 363z" />
    <glyph glyph-name="uni0417" unicode="&#x417;" horiz-adv-x="618" 
d="M103 518l-68 121q124 73 260 73q116 0 189.5 -49.5t73.5 -140.5q0 -99 -87 -150q53 -19 81 -63.5t28 -104.5q0 -106 -81.5 -161t-207.5 -55q-167 0 -278 84l70 121q94 -70 209 -70q135 0 135 85q0 45 -36 65.5t-93 20.5h-124v130h125q46 0 76.5 19.5t30.5 57.5t-32 57
t-85 19q-103 0 -186 -59z" />
    <glyph glyph-name="uni0418" unicode="&#x418;" horiz-adv-x="739" 
d="M76 700h152v-453l293 453h142v-700h-152v453l-293 -453h-142v700z" />
    <glyph glyph-name="uni0419" unicode="&#x419;" horiz-adv-x="739" 
d="M76 700h152v-453l293 453h142v-700h-152v453l-293 -453h-142v700zM378 856q80 0 123 64l63 -50q-64 -92 -186 -92t-186 92l63 50q43 -64 123 -64z" />
    <glyph glyph-name="uni041A" unicode="&#x41a;" horiz-adv-x="673" 
d="M76 700h152v-282h78l176 282h180l-217 -337l232 -363h-180l-183 287h-86v-287h-152v700z" />
    <glyph glyph-name="uni041B" unicode="&#x41b;" horiz-adv-x="728" 
d="M144 700h508v-700h-152v569h-211l-14 -316q-7 -164 -54 -215q-45 -50 -126 -50q-42 0 -75 12v129q17 -7 39 -7q39 0 52 37q9 26 14 94q6 78 19 447z" />
    <glyph glyph-name="uni041C" unicode="&#x41c;" horiz-adv-x="896" 
d="M498 0h-100l-170 470v-470h-152v700h209l163 -458l163 458h209v-700h-152v470z" />
    <glyph glyph-name="uni041D" unicode="&#x41d;" horiz-adv-x="739" 
d="M228 700v-296h283v296h152v-700h-152v273h-283v-273h-152v700h152z" />
    <glyph glyph-name="uni041E" unicode="&#x41e;" horiz-adv-x="798" 
d="M763 350q0 -157 -104 -259.5t-260 -102.5t-260 102.5t-104 259.5t104 259.5t260 102.5t260 -102.5t104 -259.5zM607 350q0 96 -57 161.5t-151 65.5t-151 -65.5t-57 -161.5t57 -161.5t151 -65.5t151 65.5t57 161.5z" />
    <glyph glyph-name="uni041F" unicode="&#x41f;" horiz-adv-x="722" 
d="M76 700h570v-700h-152v569h-266v-569h-152v700z" />
    <glyph glyph-name="uni0420" unicode="&#x420;" horiz-adv-x="641" 
d="M76 700h290q110 0 181 -66t71 -169t-71 -169.5t-181 -66.5h-138v-229h-152v700zM228 360h136q44 0 72.5 30t28.5 76q0 45 -28.5 74t-72.5 29h-136v-209z" />
    <glyph glyph-name="uni0421" unicode="&#x421;" horiz-adv-x="679" 
d="M399 -12q-156 0 -260 102.5t-104 259.5t104 259.5t260 102.5q149 0 258 -107l-99 -100q-29 34 -71.5 53t-87.5 19q-94 0 -151 -65.5t-57 -161.5t57 -161.5t151 -65.5q98 0 163 80l108 -88q-106 -127 -271 -127z" />
    <glyph glyph-name="uni0422" unicode="&#x422;" horiz-adv-x="580" 
d="M366 569v-569h-152v569h-199v131h550v-131h-199z" />
    <glyph glyph-name="uni0423" unicode="&#x423;" horiz-adv-x="661" 
d="M9 700h173l160 -342l155 342h172l-270 -549q-41 -83 -93.5 -123t-125.5 -40q-68 0 -112 29l47 122q25 -16 56 -16q66 0 88 71z" />
    <glyph glyph-name="uni0424" unicode="&#x424;" horiz-adv-x="936" 
d="M397 768h142v-78h10q151 0 251 -94.5t100 -244.5t-100 -245.5t-251 -95.5h-10v-77h-142v77h-10q-151 0 -251 95.5t-100 245.5t100 244.5t251 94.5h10v78zM539 555v-409h5q87 0 144 57.5t57 147.5t-57 147t-144 57h-5zM397 555h-5q-87 0 -144 -57t-57 -147t57 -147.5
t144 -57.5h5v409z" />
    <glyph glyph-name="uni0425" unicode="&#x425;" horiz-adv-x="659" 
d="M329 232l-152 -232h-182l247 357l-236 343h181l142 -218l142 218h182l-236 -343l247 -357h-183z" />
    <glyph glyph-name="uni0426" unicode="&#x426;" horiz-adv-x="769" 
d="M76 700h152v-569h266v569h152v-569h95v-261h-142v130h-523v700z" />
    <glyph glyph-name="uni0427" unicode="&#x427;" horiz-adv-x="667" 
d="M45 700h152v-228q0 -57 37.5 -93t98.5 -36q66 0 106 39v318h152v-700h-152v248q-76 -38 -152 -38q-108 0 -175 63t-67 169v258z" />
    <glyph glyph-name="uni0428" unicode="&#x428;" horiz-adv-x="1051" 
d="M76 700h152v-569h221v569h152v-569h222v569h152v-700h-899v700z" />
    <glyph glyph-name="uni0429" unicode="&#x429;" horiz-adv-x="1099" 
d="M76 700h152v-569h221v569h152v-569h222v569h152v-569h96v-261h-142v130h-853v700z" />
    <glyph glyph-name="uni042A" unicode="&#x42a;" horiz-adv-x="721" 
d="M14 700h295v-237h134q111 0 183 -63.5t72 -166.5q0 -104 -72.5 -168.5t-182.5 -64.5h-286v569h-143v131zM309 332v-201h124q49 0 80.5 28t31.5 74t-31.5 72.5t-80.5 26.5h-124z" />
    <glyph glyph-name="uni042B" unicode="&#x42b;" horiz-adv-x="924" 
d="M76 700h152v-237h120q111 0 183 -63.5t72 -166.5q0 -104 -72.5 -168.5t-182.5 -64.5h-272v700zM228 332v-201h110q49 0 80.5 28t31.5 74t-31.5 72.5t-80.5 26.5h-110zM696 700h152v-700h-152v700z" />
    <glyph glyph-name="uni042C" unicode="&#x42c;" horiz-adv-x="641" 
d="M76 700h152v-237h135q111 0 183 -63.5t72 -166.5q0 -104 -72.5 -168.5t-182.5 -64.5h-287v700zM228 332v-201h125q49 0 80.5 28t31.5 74t-31.5 72.5t-80.5 26.5h-125z" />
    <glyph glyph-name="uni042D" unicode="&#x42d;" horiz-adv-x="683" 
d="M284 -12q-165 0 -271 127l108 88q65 -80 163 -80q77 0 130.5 45.5t70.5 119.5h-325v131h323q-19 71 -71.5 114.5t-127.5 43.5q-45 0 -87.5 -19t-71.5 -53l-99 100q109 107 258 107q156 0 260 -102.5t104 -259.5t-104 -259.5t-260 -102.5z" />
    <glyph glyph-name="uni042E" unicode="&#x42e;" horiz-adv-x="1074" 
d="M76 700h152v-282h110q21 131 116.5 212.5t231.5 81.5q154 0 253.5 -102t99.5 -260t-99.5 -260t-253.5 -102q-137 0 -232.5 82t-115.5 216h-110v-286h-152v700zM685 577q-88 0 -144.5 -64t-56.5 -163t56.5 -163t144.5 -64q87 0 142.5 63.5t55.5 163.5t-55.5 163.5
t-142.5 63.5z" />
    <glyph glyph-name="uni042F" unicode="&#x42f;" horiz-adv-x="674" 
d="M309 700h289v-700h-152v245h-120l-130 -245h-173l154 279q-60 27 -94.5 79t-34.5 119q0 99 73 161t188 62zM446 569h-135q-49 0 -79.5 -26t-30.5 -68t29.5 -70.5t74.5 -28.5h141v193z" />
    <glyph glyph-name="uni0430" unicode="&#x430;" horiz-adv-x="552" 
d="M275 504q100 0 159 -49.5t59 -133.5v-321h-139v45q-55 -57 -142 -57q-78 0 -130.5 47.5t-52.5 117.5q0 75 60 120.5t159 45.5q49 0 106 -21v18q0 33 -27.5 51.5t-76.5 18.5q-38 0 -76.5 -10.5t-58.5 -26.5l-58 98q109 57 218 57zM250 90q42 0 73 22.5t31 53.5v46
q-42 16 -89 16q-45 0 -73.5 -20t-28.5 -51q0 -30 24 -48.5t63 -18.5z" />
    <glyph glyph-name="uni0431" unicode="&#x431;" horiz-adv-x="606" 
d="M488 720l32 -126q-40 -13 -107.5 -24.5t-86.5 -16.5q-121 -33 -144 -141q62 63 155 63q104 0 169 -65t65 -170q0 -112 -73 -182t-189 -70q-125 0 -195 84.5t-70 235.5q0 303 244 366q15 4 88.5 18.5t111.5 27.5zM311 357q-53 0 -85.5 -34t-32.5 -89q0 -56 33.5 -92
t85.5 -36t85.5 35t33.5 91q0 55 -33 90t-87 35z" />
    <glyph glyph-name="uni0432" unicode="&#x432;" horiz-adv-x="575" 
d="M64 492h292q68 0 114 -34t46 -93q0 -72 -64 -104q42 -16 65.5 -48.5t23.5 -75.5q0 -61 -45 -99t-112 -38h-320v492zM203 203v-105h135q26 0 43.5 14.5t17.5 38.5t-18 38t-45 14h-133zM203 394v-93h123q24 0 39.5 13t15.5 34t-15.5 33.5t-39.5 12.5h-123z" />
    <glyph glyph-name="uni0433" unicode="&#x433;" horiz-adv-x="435" 
d="M64 492h354v-118h-215v-374h-139v492z" />
    <glyph glyph-name="uni0434" unicode="&#x434;" horiz-adv-x="643" 
d="M129 492h414v-377h67v-225h-129v110h-334v-110h-129v225h54q57 118 57 315v62zM259 377v-14q0 -144 -48 -248h193v262h-145z" />
    <glyph glyph-name="uni0435" unicode="&#x435;" horiz-adv-x="563" 
d="M496 68q-36 -39 -90 -59.5t-106 -20.5q-115 0 -190.5 73.5t-75.5 186.5q0 109 71.5 182.5t177.5 73.5q107 0 177.5 -70.5t70.5 -177.5v-52h-360q11 -45 47.5 -72.5t86.5 -27.5q67 0 117 50zM286 390q-40 0 -71 -25t-41 -67h226q-7 41 -39.5 66.5t-74.5 25.5z" />
    <glyph glyph-name="uni0436" unicode="&#x436;" horiz-adv-x="825" 
d="M33 492h150l97 -187h63v187h139v-187h62l98 187h150l-127 -236l141 -256h-155l-101 190h-68v-190h-139v190h-68l-101 -190h-155l141 256z" />
    <glyph glyph-name="uni0437" unicode="&#x437;" horiz-adv-x="508" 
d="M82 347l-56 98q84 59 212 59q98 0 158 -37t60 -101q0 -62 -61 -102q37 -16 57.5 -48t20.5 -73q0 -72 -64 -113.5t-169 -41.5q-126 0 -219 59l54 99q59 -45 157 -45q48 0 74.5 14t26.5 39q0 49 -89 49h-124v98h134q28 0 46.5 13t18.5 32q0 21 -23.5 33t-65.5 12
q-76 0 -148 -44z" />
    <glyph glyph-name="uni0438" unicode="&#x438;" horiz-adv-x="595" 
d="M64 492h139v-297l194 297h134v-492h-139v297l-195 -297h-133v492z" />
    <glyph glyph-name="uni0439" unicode="&#x439;" horiz-adv-x="595" 
d="M64 492h139v-297l194 297h134v-492h-139v297l-195 -297h-133v492zM297 642q80 0 123 64l63 -50q-64 -92 -186 -92t-186 92l63 50q43 -64 123 -64z" />
    <glyph glyph-name="uni043A" unicode="&#x43a;" horiz-adv-x="561" 
d="M64 492h139v-187h60l125 187h155l-155 -228l169 -264h-160l-119 190h-75v-190h-139v492z" />
    <glyph glyph-name="uni043B" unicode="&#x43b;" horiz-adv-x="601" 
d="M114 492h423v-492h-139v377h-150l-8 -215q-6 -174 -151 -174q-34 0 -61 12v115q13 -5 25 -5q25 0 37 20.5t14 66.5z" />
    <glyph glyph-name="uni043C" unicode="&#x43c;" horiz-adv-x="769" 
d="M64 492h202l119 -315l116 315h204v-492h-139v314l-123 -314h-117l-123 314v-314h-139v492z" />
    <glyph glyph-name="uni043D" unicode="&#x43d;" horiz-adv-x="600" 
d="M64 492h139v-187h194v187h139v-492h-139v190h-194v-190h-139v492z" />
    <glyph glyph-name="uni043E" unicode="&#x43e;" horiz-adv-x="594" 
d="M421 246q0 62 -34.5 101t-89.5 39t-89.5 -39t-34.5 -101t34.5 -101t89.5 -39t89.5 39t34.5 101zM561 246q0 -109 -76 -183.5t-188 -74.5t-188 74.5t-76 183.5t76 183.5t188 74.5t188 -74.5t76 -183.5z" />
    <glyph glyph-name="uni043F" unicode="&#x43f;" horiz-adv-x="590" 
d="M64 492h462v-492h-139v374h-184v-374h-139v492z" />
    <glyph glyph-name="uni0440" unicode="&#x440;" horiz-adv-x="625" 
d="M203 56v-257h-139v693h139v-54q53 66 143 66q108 0 176.5 -72.5t68.5 -185.5t-68.5 -185.5t-173.5 -72.5q-43 0 -84.5 18.5t-61.5 49.5zM451 246q0 60 -34 100t-94 40q-52 0 -86 -40t-34 -100t35 -100t87 -40q56 0 91 38.5t35 101.5z" />
    <glyph glyph-name="uni0441" unicode="&#x441;" horiz-adv-x="510" 
d="M298 -12q-111 0 -188 73.5t-77 184.5q0 110 76 184t188 74q115 0 190 -78l-86 -86q-36 46 -103 46q-56 0 -90.5 -39t-34.5 -101t35.5 -101t91.5 -39q69 0 106 51l90 -81q-71 -88 -198 -88z" />
    <glyph glyph-name="uni0442" unicode="&#x442;" horiz-adv-x="491" 
d="M17 492h457v-118h-159v-374h-139v374h-159v118z" />
    <glyph glyph-name="uni0443" unicode="&#x443;" horiz-adv-x="547" 
d="M330 -1q-50 -115 -96 -162.5t-110 -47.5q-59 0 -107 28l49 109q22 -14 50 -14q35 0 55.5 28t38.5 75l-204 477h152l116 -313l116 313h152z" />
    <glyph glyph-name="uni0444" unicode="&#x444;" horiz-adv-x="834" 
d="M350 700h135v-231q36 30 101 30q101 0 156.5 -69t55.5 -184t-55 -184t-155 -69q-68 0 -103 34v-228h-135v228q-35 -34 -103 -34q-100 0 -155 69t-55 184t55.5 184t156.5 69q64 0 101 -30v231zM275 386q-44 0 -70 -38t-26 -102t26 -102t70 -38q42 0 64.5 37.5t22.5 102.5
t-22.5 102.5t-64.5 37.5zM561 386q-42 0 -65 -37t-23 -103q0 -65 23 -102.5t65 -37.5q44 0 69.5 37.5t25.5 101.5q0 65 -26 103t-69 38z" />
    <glyph glyph-name="uni0445" unicode="&#x445;" horiz-adv-x="514" 
d="M257 144l-97 -144h-155l176 252l-170 240h155l91 -136l91 136h155l-170 -240l176 -252h-155z" />
    <glyph glyph-name="uni0446" unicode="&#x446;" horiz-adv-x="640" 
d="M64 492h139v-377h184v377h139v-377h89v-225h-129v110h-422v492z" />
    <glyph glyph-name="uni0447" unicode="&#x447;" horiz-adv-x="562" 
d="M36 492h139v-151q0 -48 28 -75t75 -27q40 0 81 20v233h139v-492h-139v146q-59 -24 -118 -24q-94 0 -149.5 51.5t-55.5 142.5v176z" />
    <glyph glyph-name="uni0448" unicode="&#x448;" horiz-adv-x="851" 
d="M64 492h139v-377h153v377h139v-377h153v377h139v-492h-723v492z" />
    <glyph glyph-name="uni0449" unicode="&#x449;" horiz-adv-x="901" 
d="M64 492h139v-377h153v377h139v-377h153v377h139v-377h89v-225h-129v110h-683v492z" />
    <glyph glyph-name="uni044A" unicode="&#x44a;" horiz-adv-x="626" 
d="M17 492h259v-130h117q91 0 151 -49.5t60 -132.5t-60 -131.5t-151 -48.5h-256v377h-120v115zM276 247v-132h102q37 0 61.5 17t24.5 49t-24.5 49t-61.5 17h-102z" />
    <glyph glyph-name="uni044B" unicode="&#x44b;" horiz-adv-x="808" 
d="M605 492h139v-492h-139v492zM64 492h139v-130h107q91 0 151 -49.5t60 -132.5t-60 -131.5t-151 -48.5h-246v492zM203 247v-132h92q37 0 61.5 17t24.5 49t-24.5 49t-61.5 17h-92z" />
    <glyph glyph-name="uni044C" unicode="&#x44c;" horiz-adv-x="563" 
d="M64 492h139v-130h127q91 0 151 -49.5t60 -132.5t-60 -131.5t-151 -48.5h-266v492zM203 247v-132h112q37 0 61.5 17t24.5 49t-24.5 49t-61.5 17h-112z" />
    <glyph glyph-name="uni044D" unicode="&#x44d;" horiz-adv-x="515" 
d="M149 300h192q-11 43 -44 68.5t-79 25.5q-68 0 -116 -53l-75 85q79 78 196 78q114 0 186 -71.5t72 -184.5q0 -117 -72 -188.5t-190 -71.5q-127 0 -201 88l80 81q56 -59 121 -59q44 0 76 25.5t44 66.5h-190v110z" />
    <glyph glyph-name="uni044E" unicode="&#x44e;" horiz-adv-x="819" 
d="M64 492h139v-187h80q18 89 85.5 144t162.5 55q111 0 182.5 -73t71.5 -185t-71.5 -185t-182.5 -73q-96 0 -164 55.5t-85 146.5h-79v-190h-139v492zM530 386q-53 0 -85.5 -40.5t-32.5 -99.5t32.5 -99.5t85.5 -40.5t84 40t31 100t-31 100t-84 40z" />
    <glyph glyph-name="uni044F" unicode="&#x44f;" horiz-adv-x="577" 
d="M223 492h290v-492h-139v149h-105l-87 -149h-152l104 173q-94 43 -94 149q0 75 52 122.5t131 47.5zM374 379h-118q-34 0 -55 -18.5t-21 -42.5t20 -42.5t56 -18.5h118v122z" />
    <glyph glyph-name="uni0450" unicode="&#x450;" horiz-adv-x="563" 
d="M496 68q-36 -39 -90 -59.5t-106 -20.5q-115 0 -190.5 73.5t-75.5 186.5q0 109 71.5 182.5t177.5 73.5q107 0 177.5 -70.5t70.5 -177.5v-52h-360q11 -45 47.5 -72.5t86.5 -27.5q67 0 117 50zM286 390q-40 0 -71 -25t-41 -67h226q-7 41 -39.5 66.5t-74.5 25.5zM263 572
l-175 178h136l137 -178h-98z" />
    <glyph glyph-name="uni0451" unicode="&#x451;" horiz-adv-x="563" 
d="M496 68q-36 -39 -90 -59.5t-106 -20.5q-115 0 -190.5 73.5t-75.5 186.5q0 109 71.5 182.5t177.5 73.5q107 0 177.5 -70.5t70.5 -177.5v-52h-360q11 -45 47.5 -72.5t86.5 -27.5q67 0 117 50zM286 390q-40 0 -71 -25t-41 -67h226q-7 41 -39.5 66.5t-74.5 25.5zM94 659
q0 31 22.5 53t53.5 22q32 0 54.5 -22t22.5 -53t-22.5 -53t-54.5 -22q-31 0 -53.5 22t-22.5 53zM317 659q0 31 22.5 53t53.5 22q32 0 54.5 -22t22.5 -53t-22.5 -53t-54.5 -22q-31 0 -53.5 22t-22.5 53z" />
    <glyph glyph-name="uni0452" unicode="&#x452;" horiz-adv-x="590" 
d="M64 700h139v-70h135v-93h-135v-125q51 71 145 71q79 0 131 -50.5t52 -132.5v-331q0 -83 -43.5 -131.5t-120.5 -48.5q-41 0 -86 15l25 114q18 -7 35 -7q23 0 37 14t14 40v318q0 36 -26 59t-66 23q-43 0 -70 -26t-27 -66v-273h-139v537h-60v93h60v70z" />
    <glyph glyph-name="uni0453" unicode="&#x453;" horiz-adv-x="435" 
d="M64 492h354v-118h-215v-374h-139v492zM458 750l-175 -178h-98l137 178h136z" />
    <glyph glyph-name="uni0454" unicode="&#x454;" horiz-adv-x="515" 
d="M174 300h192v-110h-190q12 -41 44 -66.5t76 -25.5q65 0 121 59l80 -81q-74 -88 -201 -88q-118 0 -190 71.5t-72 188.5q0 113 72 184.5t186 71.5q116 0 196 -78l-75 -85q-48 53 -116 53q-46 0 -79 -25.5t-44 -68.5z" />
    <glyph glyph-name="uni0455" unicode="&#x455;" horiz-adv-x="490" 
d="M242 400q-74 0 -74 -45q0 -21 30 -32.5t73 -19t86 -20t73 -47t30 -88.5q0 -79 -59.5 -119.5t-141.5 -40.5q-133 0 -232 85l65 88q75 -69 167 -69q77 0 77 46q0 19 -21.5 31t-54 17t-70.5 15t-70.5 23.5t-54 44.5t-21.5 76q0 78 59.5 118.5t140.5 40.5q107 0 194 -67
l-62 -89q-63 52 -134 52z" />
    <glyph glyph-name="uni0456" unicode="&#x456;" horiz-adv-x="267" 
d="M203 492v-492h-139v492h139zM51 628q0 35 24 59.5t58 24.5q36 0 60 -24.5t24 -59.5t-24 -58.5t-60 -23.5q-34 0 -58 24t-24 58z" />
    <glyph glyph-name="uni0457" unicode="&#x457;" horiz-adv-x="267" 
d="M203 492v-492h-139v492h139zM-55 659q0 31 22.5 53t53.5 22q32 0 54.5 -22t22.5 -53t-22.5 -53t-54.5 -22q-31 0 -53.5 22t-22.5 53zM168 659q0 31 22.5 53t53.5 22q32 0 54.5 -22t22.5 -53t-22.5 -53t-54.5 -22q-31 0 -53.5 22t-22.5 53z" />
    <glyph glyph-name="uni0458" unicode="&#x458;" horiz-adv-x="275" 
d="M59 628q0 35 24 59.5t58 24.5q36 0 60 -24.5t24 -59.5t-24 -58.5t-60 -23.5q-34 0 -58 24t-24 58zM-39 -196l25 114q18 -7 35 -7q23 0 37 14t14 40v527h139v-523q0 -83 -43.5 -131.5t-120.5 -48.5q-41 0 -86 15z" />
    <glyph glyph-name="uni0459" unicode="&#x459;" horiz-adv-x="877" 
d="M114 492h413v-130h117q91 0 151 -49.5t60 -132.5t-60 -131.5t-151 -48.5h-256v377h-140l-8 -215q-6 -174 -151 -174q-34 0 -61 12v115q13 -5 25 -5q25 0 37 20.5t14 66.5zM527 247v-132h102q37 0 61.5 17t24.5 49t-24.5 49t-61.5 17h-102z" />
    <glyph glyph-name="uni045A" unicode="&#x45a;" horiz-adv-x="865" 
d="M64 492h139v-187h178v187h139v-130h112q91 0 151 -49.5t60 -132.5t-60 -131.5t-151 -48.5h-251v190h-178v-190h-139v492zM520 247v-132h97q37 0 61.5 17t24.5 49t-24.5 49t-61.5 17h-97z" />
    <glyph glyph-name="uni045B" unicode="&#x45b;" horiz-adv-x="590" 
d="M64 700h139v-70h135v-93h-135v-127q22 31 60 51t78 20q86 0 138 -50t52 -133v-298h-139v281q0 36 -26 59t-67 23t-68.5 -26t-27.5 -66v-271h-139v537h-60v93h60v70z" />
    <glyph glyph-name="uni045C" unicode="&#x45c;" horiz-adv-x="561" 
d="M64 492h139v-187h60l125 187h155l-155 -228l169 -264h-160l-119 190h-75v-190h-139v492zM503 750l-175 -178h-98l137 178h136z" />
    <glyph glyph-name="uni045D" unicode="&#x45d;" horiz-adv-x="595" 
d="M64 492h139v-297l194 297h134v-492h-139v297l-195 -297h-133v492zM278 572l-175 178h136l137 -178h-98z" />
    <glyph glyph-name="uni045E" unicode="&#x45e;" horiz-adv-x="547" 
d="M330 -1q-50 -115 -96 -162.5t-110 -47.5q-59 0 -107 28l49 109q22 -14 50 -14q35 0 55.5 28t38.5 75l-204 477h152l116 -313l116 313h152zM274 642q80 0 123 64l63 -50q-64 -92 -186 -92t-186 92l63 50q43 -64 123 -64z" />
    <glyph glyph-name="uni045F" unicode="&#x45f;" horiz-adv-x="590" 
d="M64 492h139v-378h184v378h139v-492h-166v-110h-129v110h-167v492z" />
    <glyph glyph-name="uni0490" unicode="&#x490;" horiz-adv-x="529" 
d="M76 700h295v130h142v-261h-285v-569h-152v700z" />
    <glyph glyph-name="uni0491" unicode="&#x491;" horiz-adv-x="435" 
d="M64 492h225v110h129v-228h-215v-374h-139v492z" />
    <glyph glyph-name="uni1E60" unicode="&#x1e60;" horiz-adv-x="614" 
d="M303 580q-42 0 -73.5 -17t-31.5 -56q0 -22 20 -38t46 -24t66 -17q13 -2 19 -4q40 -10 67.5 -18t62.5 -25.5t56 -39t36 -57t15 -79.5q0 -103 -77 -160t-184 -57q-83 0 -162.5 28.5t-139.5 82.5l84 110q98 -90 215 -90q111 0 111 80q0 14 -5 25.5t-16.5 20t-23.5 15
t-32 12.5t-35.5 10t-40.5 10t-41 10q-33 9 -58 18t-52 25.5t-44 36t-28.5 50t-11.5 67.5q0 100 75.5 156.5t179.5 56.5q140 0 261 -90l-74 -115q-94 73 -184 73zM227 857q0 33 23 56.5t56 23.5t56.5 -23.5t23.5 -56.5t-23.5 -56t-56.5 -23t-56 23t-23 56z" />
    <glyph glyph-name="uni1E61" unicode="&#x1e61;" horiz-adv-x="490" 
d="M242 400q-74 0 -74 -45q0 -21 30 -32.5t73 -19t86 -20t73 -47t30 -88.5q0 -79 -59.5 -119.5t-141.5 -40.5q-133 0 -232 85l65 88q75 -69 167 -69q77 0 77 46q0 19 -21.5 31t-54 17t-70.5 15t-70.5 23.5t-54 44.5t-21.5 76q0 78 59.5 118.5t140.5 40.5q107 0 194 -67
l-62 -89q-63 52 -134 52zM165 643q0 33 23 56.5t56 23.5t56.5 -23.5t23.5 -56.5t-23.5 -56t-56.5 -23t-56 23t-23 56z" />
    <glyph glyph-name="Wgrave" unicode="&#x1e80;" horiz-adv-x="964" 
d="M416 700h132l125 -456l119 456h163l-203 -700h-146l-125 449l-123 -449h-146l-203 700h163l119 -456zM444 769l-175 178h136l137 -178h-98z" />
    <glyph glyph-name="wgrave" unicode="&#x1e81;" horiz-adv-x="790" 
d="M347 572l-175 178h136l137 -178h-98zM454 492l91 -279l89 279h151l-182 -492h-101l-107 303l-107 -303h-101l-182 492h151l89 -279l91 279h118z" />
    <glyph glyph-name="Wacute" unicode="&#x1e82;" horiz-adv-x="964" 
d="M416 700h132l125 -456l119 456h163l-203 -700h-146l-125 449l-123 -449h-146l-203 700h163l119 -456zM697 947l-175 -178h-98l137 178h136z" />
    <glyph glyph-name="wacute" unicode="&#x1e83;" horiz-adv-x="790" 
d="M621 750l-175 -178h-98l137 178h136zM454 492l91 -279l89 279h151l-182 -492h-101l-107 303l-107 -303h-101l-182 492h151l89 -279l91 279h118z" />
    <glyph glyph-name="Wdieresis" unicode="&#x1e84;" horiz-adv-x="964" 
d="M416 700h132l125 -456l119 456h163l-203 -700h-146l-125 449l-123 -449h-146l-203 700h163l119 -456zM293 857q0 33 23 56t57 23t57.5 -23t23.5 -56t-23.5 -56t-57.5 -23t-57 23t-23 56zM508 857q0 33 23 56t57 23t57.5 -23t23.5 -56t-23.5 -56t-57.5 -23t-57 23t-23 56z
" />
    <glyph glyph-name="wdieresis" unicode="&#x1e85;" horiz-adv-x="790" 
d="M207 657q0 33 21.5 55t53.5 22q33 0 55.5 -22t22.5 -55q0 -31 -22.5 -52t-55.5 -21q-32 0 -53.5 21t-21.5 52zM430 657q0 33 21.5 55t53.5 22q34 0 56 -22t22 -55q0 -31 -22 -52t-56 -21q-32 0 -53.5 21t-21.5 52zM454 492l91 -279l89 279h151l-182 -492h-101l-107 303
l-107 -303h-101l-182 492h151l89 -279l91 279h118z" />
    <glyph glyph-name="uni1E9E" unicode="&#x1e9e;" horiz-adv-x="707" 
d="M629 578l-119 -181q69 -12 116 -63t47 -129q0 -93 -70 -155t-179 -62q-59 0 -118 19l28 127q41 -16 78 -16q53 0 80.5 24t27.5 62t-27 64.5t-93 26.5h-41v113l106 167h-115q-54 0 -91.5 -32t-37.5 -104v-439h-152v430q0 125 72 197.5t196 72.5h292v-122z" />
    <glyph glyph-name="uni1EA0" unicode="&#x1ea0;" 
d="M274 700h150l270 -700h-161l-48 133h-273l-47 -133h-161zM349 515l-90 -251h179zM266 -130q0 35 24 59.5t58 24.5q36 0 60 -24.5t24 -59.5t-24 -58.5t-60 -23.5q-34 0 -58 24t-24 58z" />
    <glyph glyph-name="uni1EA1" unicode="&#x1ea1;" horiz-adv-x="552" 
d="M275 504q100 0 159 -49.5t59 -133.5v-321h-139v45q-55 -57 -142 -57q-78 0 -130.5 47.5t-52.5 117.5q0 75 60 120.5t159 45.5q49 0 106 -21v18q0 33 -27.5 51.5t-76.5 18.5q-38 0 -76.5 -10.5t-58.5 -26.5l-58 98q109 57 218 57zM250 90q42 0 73 22.5t31 53.5v46
q-42 16 -89 16q-45 0 -73.5 -20t-28.5 -51q0 -30 24 -48.5t63 -18.5zM184 -130q0 35 24 59.5t58 24.5q36 0 60 -24.5t24 -59.5t-24 -58.5t-60 -23.5q-34 0 -58 24t-24 58z" />
    <glyph glyph-name="uni1EB8" unicode="&#x1eb8;" horiz-adv-x="603" 
d="M560 131v-131h-484v700h475v-131h-323v-152h298v-131h-298v-155h332zM242 -130q0 35 24 59.5t58 24.5q36 0 60 -24.5t24 -59.5t-24 -58.5t-60 -23.5q-34 0 -58 24t-24 58z" />
    <glyph glyph-name="uni1EB9" unicode="&#x1eb9;" horiz-adv-x="563" 
d="M496 68q-36 -39 -90 -59.5t-106 -20.5q-115 0 -190.5 73.5t-75.5 186.5q0 109 71.5 182.5t177.5 73.5q107 0 177.5 -70.5t70.5 -177.5v-52h-360q11 -45 47.5 -72.5t86.5 -27.5q67 0 117 50zM286 390q-40 0 -71 -25t-41 -67h226q-7 41 -39.5 66.5t-74.5 25.5zM204 -130
q0 35 24 59.5t58 24.5q36 0 60 -24.5t24 -59.5t-24 -58.5t-60 -23.5q-34 0 -58 24t-24 58z" />
    <glyph glyph-name="uni1EBC" unicode="&#x1ebc;" horiz-adv-x="603" 
d="M560 131v-131h-484v700h475v-131h-323v-152h298v-131h-298v-155h332zM379 778q-36 0 -84.5 25t-70.5 25t-36 -13.5t-29 -40.5l-60 41q54 103 129 103q36 0 87 -25t68 -25q22 0 36 13.5t29 40.5l61 -41q-54 -103 -130 -103z" />
    <glyph glyph-name="uni1EBD" unicode="&#x1ebd;" horiz-adv-x="563" 
d="M496 68q-36 -39 -90 -59.5t-106 -20.5q-115 0 -190.5 73.5t-75.5 186.5q0 109 71.5 182.5t177.5 73.5q107 0 177.5 -70.5t70.5 -177.5v-52h-360q11 -45 47.5 -72.5t86.5 -27.5q67 0 117 50zM286 390q-40 0 -71 -25t-41 -67h226q-7 41 -39.5 66.5t-74.5 25.5zM356 587
q-36 0 -84.5 25t-70.5 25t-36 -13.5t-29 -40.5l-60 41q54 103 129 103q35 0 86 -25t69 -25q22 0 36 13.5t29 40.5l61 -41q-54 -103 -130 -103z" />
    <glyph glyph-name="uni1ECA" unicode="&#x1eca;" horiz-adv-x="304" 
d="M228 700v-700h-152v700h152zM70 -130q0 35 24 59.5t58 24.5q36 0 60 -24.5t24 -59.5t-24 -58.5t-60 -23.5q-34 0 -58 24t-24 58z" />
    <glyph glyph-name="uni1ECB" unicode="&#x1ecb;" horiz-adv-x="267" 
d="M203 492v-492h-139v492h139zM51 628q0 35 24 59.5t58 24.5q36 0 60 -24.5t24 -59.5t-24 -58.5t-60 -23.5q-34 0 -58 24t-24 58zM51 -130q0 35 24 59.5t58 24.5q36 0 60 -24.5t24 -59.5t-24 -58.5t-60 -23.5q-34 0 -58 24t-24 58z" />
    <glyph glyph-name="uni1ECC" unicode="&#x1ecc;" horiz-adv-x="798" 
d="M763 350q0 -157 -104 -259.5t-260 -102.5t-260 102.5t-104 259.5t104 259.5t260 102.5t260 -102.5t104 -259.5zM607 350q0 96 -57 161.5t-151 65.5t-151 -65.5t-57 -161.5t57 -161.5t151 -65.5t151 65.5t57 161.5zM316 -130q0 35 24 59.5t58 24.5q36 0 60 -24.5t24 -59.5
t-24 -58.5t-60 -23.5q-34 0 -58 24t-24 58z" />
    <glyph glyph-name="uni1ECD" unicode="&#x1ecd;" horiz-adv-x="594" 
d="M421 246q0 62 -34.5 101t-89.5 39t-89.5 -39t-34.5 -101t34.5 -101t89.5 -39t89.5 39t34.5 101zM561 246q0 -109 -76 -183.5t-188 -74.5t-188 74.5t-76 183.5t76 183.5t188 74.5t188 -74.5t76 -183.5zM215 -130q0 35 24 59.5t58 24.5q36 0 60 -24.5t24 -59.5t-24 -58.5
t-60 -23.5q-34 0 -58 24t-24 58z" />
    <glyph glyph-name="uni1EE4" unicode="&#x1ee4;" horiz-adv-x="736" 
d="M368 -12q-133 0 -216 76t-83 197v439h152v-439q0 -61 41 -99.5t106 -38.5t106 38.5t41 99.5v439h152v-439q0 -121 -83 -197t-216 -76zM286 -130q0 35 24 59.5t58 24.5q36 0 60 -24.5t24 -59.5t-24 -58.5t-60 -23.5q-34 0 -58 24t-24 58z" />
    <glyph glyph-name="uni1EE5" unicode="&#x1ee5;" horiz-adv-x="590" 
d="M388 0v59q-22 -32 -63.5 -51.5t-84.5 -19.5q-80 0 -130 50t-50 132v322h139v-307q0 -36 25.5 -57.5t65.5 -21.5q42 0 69 23t29 64v299h139v-492h-139zM232 -130q0 35 24 59.5t58 24.5q36 0 60 -24.5t24 -59.5t-24 -58.5t-60 -23.5q-34 0 -58 24t-24 58z" />
    <glyph glyph-name="Ygrave" unicode="&#x1ef2;" horiz-adv-x="684" 
d="M291 769l-175 178h136l137 -178h-98zM6 700h176l160 -311l161 311h176l-261 -460v-240h-152v240z" />
    <glyph glyph-name="ygrave" unicode="&#x1ef3;" horiz-adv-x="547" 
d="M330 -1q-50 -115 -96 -162.5t-110 -47.5q-59 0 -107 28l49 109q22 -14 50 -14q35 0 55.5 28t38.5 75l-204 477h152l116 -313l116 313h152zM222 572l-175 178h136l137 -178h-98z" />
    <glyph glyph-name="uni1EF8" unicode="&#x1ef8;" horiz-adv-x="684" 
d="M6 700h176l160 -311l161 311h176l-261 -460v-240h-152v240zM417 795q-36 0 -84.5 25t-70.5 25t-36 -13.5t-29 -40.5l-60 41q54 103 129 103q36 0 87 -25t68 -25q22 0 36 13.5t29 40.5l61 -41q-54 -103 -130 -103z" />
    <glyph glyph-name="uni1EF9" unicode="&#x1ef9;" horiz-adv-x="547" 
d="M330 -1q-50 -115 -96 -162.5t-110 -47.5q-59 0 -107 28l49 109q22 -14 50 -14q35 0 55.5 28t38.5 75l-204 477h152l116 -313l116 313h152zM348 587q-36 0 -84.5 25t-70.5 25t-36 -13.5t-29 -40.5l-60 41q54 103 129 103q35 0 86 -25t69 -25q22 0 36 13.5t29 40.5l61 -41
q-54 -103 -130 -103z" />
    <glyph glyph-name="endash" unicode="&#x2013;" horiz-adv-x="628" 
d="M54 212v110h520v-110h-520z" />
    <glyph glyph-name="emdash" unicode="&#x2014;" horiz-adv-x="828" 
d="M54 212v110h720v-110h-720z" />
    <glyph glyph-name="uni2015" unicode="&#x2015;" horiz-adv-x="628" 
d="M54 212v110h520v-110h-520z" />
    <glyph glyph-name="quoteleft" unicode="&#x2018;" horiz-adv-x="240" 
d="M32 519q0 55 33 108t88 85l30 -41q-54 -30 -64 -80q37 0 62 -23.5t25 -58.5q0 -40 -25.5 -63t-58.5 -23q-36 0 -63 25t-27 71z" />
    <glyph glyph-name="quoteright" unicode="&#x2019;" horiz-adv-x="236" 
d="M208 616q0 -55 -33 -108t-88 -85l-30 41q54 30 64 80q-37 0 -62 23.5t-25 58.5q0 40 25.5 63t58.5 23q36 0 63 -25t27 -71z" />
    <glyph glyph-name="quotesinglbase" unicode="&#x201a;" horiz-adv-x="252" 
d="M213 60q0 -55 -33 -108t-88 -85l-30 41q54 30 64 80q-37 0 -62 23.5t-25 58.5q0 40 25.5 63t58.5 23q36 0 63 -25t27 -71z" />
    <glyph glyph-name="quotedblleft" unicode="&#x201c;" horiz-adv-x="463" 
d="M255 519q0 55 33 108t88 85l30 -41q-54 -30 -64 -80q37 0 62 -23.5t25 -58.5q0 -40 -25.5 -63t-58.5 -23q-36 0 -63 25t-27 71zM32 519q0 55 33 108t88 85l30 -41q-54 -30 -64 -80q37 0 62 -23.5t25 -58.5q0 -40 -25.5 -63t-58.5 -23q-36 0 -63 25t-27 71z" />
    <glyph glyph-name="quotedblright" unicode="&#x201d;" horiz-adv-x="459" 
d="M208 616q0 -55 -33 -108t-88 -85l-30 41q54 30 64 80q-37 0 -62 23.5t-25 58.5q0 40 25.5 63t58.5 23q36 0 63 -25t27 -71zM431 616q0 -55 -33 -108t-88 -85l-30 41q54 30 64 80q-37 0 -62 23.5t-25 58.5q0 40 25.5 63t58.5 23q36 0 63 -25t27 -71z" />
    <glyph glyph-name="quotedblbase" unicode="&#x201e;" horiz-adv-x="475" 
d="M213 60q0 -55 -33 -108t-88 -85l-30 41q54 30 64 80q-37 0 -62 23.5t-25 58.5q0 40 25.5 63t58.5 23q35 0 60.5 -25t29.5 -71zM436 60q0 -55 -33 -108t-88 -85l-30 41q54 30 64 80q-37 0 -62 23.5t-25 58.5q0 40 25.5 63t58.5 23q35 0 60.5 -25t29.5 -71z" />
    <glyph glyph-name="dagger" unicode="&#x2020;" horiz-adv-x="329" 
d="M192 561l8 -186h-71l9 186l-93 -6v62l93 -7l-9 102h71l-9 -102l93 7v-62z" />
    <glyph glyph-name="daggerdbl" unicode="&#x2021;" horiz-adv-x="329" 
d="M192 561v-128l92 6v-62l-93 7l9 -102h-71l9 102l-93 -7v62l93 -6v128l-93 -6v62l93 -7l-9 102h71l-9 -102l93 7v-62z" />
    <glyph glyph-name="bullet" unicode="&#x2022;" horiz-adv-x="367" 
d="M60 349q0 51 36.5 87.5t86.5 36.5q51 0 87.5 -36.5t36.5 -87.5q0 -50 -36.5 -86.5t-87.5 -36.5q-50 0 -86.5 36.5t-36.5 86.5z" />
    <glyph glyph-name="ellipsis" unicode="&#x2026;" horiz-adv-x="718" 
d="M37 75q0 36 26 62t62 26q37 0 63.5 -26t26.5 -62q0 -35 -26.5 -61t-63.5 -26q-36 0 -62 26t-26 61zM270 75q0 36 26 62t62 26q37 0 63.5 -26t26.5 -62q0 -35 -26.5 -61t-63.5 -26q-36 0 -62 26t-26 61zM503 75q0 36 26 62t62 26q37 0 63.5 -26t26.5 -62q0 -35 -26.5 -61
t-63.5 -26q-36 0 -62 26t-26 61z" />
    <glyph glyph-name="perthousand" unicode="&#x2030;" horiz-adv-x="1192" 
d="M105 0l493 700h102l-492 -700h-103zM603 239q-34 0 -56 -24.5t-22 -61.5t22 -61.5t56 -24.5t56 24.5t22 61.5q0 38 -22 62t-56 24zM603 -12q-73 0 -121.5 47t-48.5 118t48.5 118t121.5 47q74 0 121.5 -46.5t47.5 -118.5t-47.5 -118.5t-121.5 -46.5zM198 633
q-34 0 -56 -24.5t-22 -61.5t22 -61t56 -24t56 24t22 61q0 38 -22 62t-56 24zM198 382q-73 0 -121.5 47t-48.5 118t48.5 118t121.5 47q74 0 121.5 -46.5t47.5 -118.5t-47.5 -118.5t-121.5 -46.5zM997 239q-34 0 -56 -24.5t-22 -61.5t22 -61.5t56 -24.5t56 24.5t22 61.5
q0 38 -22 62t-56 24zM997 -12q-73 0 -121.5 47t-48.5 118t48.5 118t121.5 47q74 0 121.5 -46.5t47.5 -118.5t-47.5 -118.5t-121.5 -46.5z" />
    <glyph glyph-name="guilsinglleft" unicode="&#x2039;" horiz-adv-x="386" 
d="M28 347l180 222h140l-183 -222l183 -222h-140z" />
    <glyph glyph-name="guilsinglright" unicode="&#x203a;" horiz-adv-x="386" 
d="M178 569l180 -222l-180 -222h-140l183 222l-183 222h140z" />
    <glyph glyph-name="fraction" unicode="&#x2044;" horiz-adv-x="519" 
d="M-35 0l493 700h93l-485 -700h-101z" />
    <glyph glyph-name="zero.sups" unicode="&#x2070;" horiz-adv-x="452" 
d="M411 653q0 -98 -50.5 -157.5t-134.5 -59.5t-134.5 60t-50.5 157t50.5 157t134.5 60t134.5 -60t50.5 -157zM317 653q0 63 -24 99.5t-67 36.5t-67 -36.5t-24 -99.5t24 -99.5t67 -36.5t67 36.5t24 99.5z" />
    <glyph glyph-name="i.sups" unicode="&#x2071;" horiz-adv-x="239" 
d="M166 693v-332h-93v332h93zM64 784q0 23 16 39.5t39 16.5t39.5 -16.5t16.5 -39.5t-16.5 -39t-39.5 -16t-39 16.5t-16 38.5z" />
    <glyph glyph-name="four.sups" unicode="&#x2074;" horiz-adv-x="419" 
d="M23 542v78l185 244h110v-244h66v-78h-66v-98h-91v98h-204zM115 620h112v147z" />
    <glyph glyph-name="five.sups" unicode="&#x2075;" horiz-adv-x="404" 
d="M335 863v-79h-185l-10 -86q35 19 74 19q70 0 110 -40t40 -100q0 -61 -45 -101t-123 -40q-94 0 -162 65l46 63q50 -47 118 -47q34 0 53 17t19 43q0 28 -22 44.5t-59 16.5q-36 0 -67 -24l-67 36l24 213h256z" />
    <glyph glyph-name="six.sups" unicode="&#x2076;" horiz-adv-x="413" 
d="M42 647q0 101 50 162t135 61q80 0 131 -44l-45 -64q-36 27 -85 27q-41 0 -67.5 -32t-27.5 -85q10 19 36.5 32t56.5 13q65 0 105.5 -38t40.5 -98q0 -65 -43 -105t-111 -40q-85 0 -130.5 56t-45.5 155zM146 582q0 -29 18.5 -47t48.5 -18q29 0 47 18t18 47q0 28 -19 45.5
t-49 17.5q-29 0 -46.5 -17.5t-17.5 -45.5z" />
    <glyph glyph-name="seven.sups" unicode="&#x2077;" horiz-adv-x="356" 
d="M233 784h-207v79h304v-79l-178 -341h-100z" />
    <glyph glyph-name="eight.sups" unicode="&#x2078;" horiz-adv-x="418" 
d="M209 436q-75 0 -120 36t-45 92q0 68 66 102q-54 30 -54 89q0 53 41.5 84t111.5 31q71 0 112 -31t41 -84q0 -59 -55 -89q67 -34 67 -102q0 -56 -45 -92t-120 -36zM209 515q33 0 52.5 14.5t19.5 41.5q0 26 -19.5 41t-52.5 15q-32 0 -51.5 -15.5t-19.5 -40.5q0 -27 19 -41.5
t52 -14.5zM209 700q30 0 48 14t18 37q0 21 -18.5 34.5t-47.5 13.5t-47 -13.5t-18 -34.5q0 -23 18 -37t47 -14z" />
    <glyph glyph-name="nine.sups" unicode="&#x2079;" horiz-adv-x="413" 
d="M371 659q0 -101 -50 -162t-135 -61q-80 0 -131 44l45 64q36 -27 85 -27q41 0 67.5 32t27.5 85q-10 -19 -36.5 -32t-56.5 -13q-65 0 -105.5 38t-40.5 98q0 65 43 105t111 40q85 0 130.5 -56t45.5 -155zM267 724q0 29 -18.5 47t-48.5 18q-29 0 -47 -18t-18 -47
q0 -28 19 -45.5t49 -17.5q29 0 46.5 17.5t17.5 45.5z" />
    <glyph glyph-name="plus.sups" unicode="&#x207a;" horiz-adv-x="332" 
d="M204 769v-76h82v-80h-82v-77h-75v77h-83v80h83v76h75z" />
    <glyph glyph-name="minus.sups" unicode="&#x207b;" horiz-adv-x="343" 
d="M291 613h-239v80h239v-80z" />
    <glyph glyph-name="equal.sups" unicode="&#x207c;" horiz-adv-x="361" 
d="M300 683h-239v80h239v-80zM300 543h-239v80h239v-80z" />
    <glyph glyph-name="parenleft.sups" unicode="&#x207d;" horiz-adv-x="272" 
d="M129 593q0 -66 28 -124.5t75 -93.5l-49 -54q-63 43 -100.5 117.5t-37.5 154.5t37.5 154.5t100.5 117.5l49 -54q-47 -35 -75 -93.5t-28 -124.5z" />
    <glyph glyph-name="parenright.sups" unicode="&#x207e;" horiz-adv-x="273" 
d="M143 593q0 66 -27.5 125t-74.5 93l48 54q64 -43 101.5 -117.5t37.5 -154.5t-37.5 -154.5t-101.5 -117.5l-48 54q47 35 74.5 93.5t27.5 124.5z" />
    <glyph glyph-name="n.sups" unicode="&#x207f;" horiz-adv-x="426" 
d="M152 693v-40q34 48 98 48q54 0 88 -34.5t34 -89.5v-216h-94v204q0 24 -17.5 40t-43.5 16q-28 0 -46.5 -17.5t-18.5 -45.5v-197h-94v332h94z" />
    <glyph glyph-name="zero.subs" unicode="&#x2080;" horiz-adv-x="452" 
d="M411 3q0 -97 -50.5 -157t-134.5 -60t-134.5 60t-50.5 157t50.5 157t134.5 60t134.5 -60t50.5 -157zM317 3q0 63 -24 99.5t-67 36.5t-67 -36.5t-24 -99.5t24 -99.5t67 -36.5t67 36.5t24 99.5z" />
    <glyph glyph-name="one.subs" unicode="&#x2081;" horiz-adv-x="246" 
d="M34 95l-36 74l96 44h91v-420h-91v329z" />
    <glyph glyph-name="two.subs" unicode="&#x2082;" horiz-adv-x="386" 
d="M83 99l-43 68q70 53 150 53q67 0 108 -37.5t41 -92.5q0 -70 -86 -145q-29 -26 -92 -73h179v-79h-303v79q162 129 192 166q17 22 17 44q0 24 -16.5 40.5t-46.5 16.5q-51 0 -100 -40z" />
    <glyph glyph-name="three.subs" unicode="&#x2083;" horiz-adv-x="369" 
d="M169 -31h-55v79h67q24 0 39 12.5t15 33.5q0 45 -64 45q-54 0 -104 -36l-37 67q64 50 149 50q58 0 101.5 -28t43.5 -82q0 -60 -62 -100q35 -8 56 -36t21 -64q0 -55 -45.5 -89.5t-116.5 -34.5q-95 0 -161 62l47 64q52 -46 113 -46q73 0 73 51q0 52 -80 52z" />
    <glyph glyph-name="four.subs" unicode="&#x2084;" horiz-adv-x="419" 
d="M24 -109v78l185 244h110v-244h66v-78h-66v-98h-91v98h-204zM116 -31h112v147z" />
    <glyph glyph-name="five.subs" unicode="&#x2085;" horiz-adv-x="404" 
d="M335 213v-79h-185l-10 -86q35 19 77 19q67 0 107 -40t40 -99q0 -62 -44.5 -102t-119.5 -40q-98 0 -166 65l46 63q50 -47 114 -47q37 0 56.5 16.5t19.5 42.5q0 28 -22 45t-57 17q-36 0 -69 -24l-67 36l24 213h256z" />
    <glyph glyph-name="six.subs" unicode="&#x2086;" horiz-adv-x="413" 
d="M42 -4q0 102 49.5 163t138.5 61q78 0 128 -44l-45 -64q-35 27 -82 27q-44 0 -70 -30.5t-28 -86.5q26 45 98 45q60 0 100.5 -38t40.5 -100q0 -64 -43.5 -103.5t-112.5 -39.5q-82 0 -128 56t-46 154zM146 -68q0 -29 18.5 -47t47.5 -18t47.5 18t18.5 46t-19 46t-49 18
q-29 0 -46.5 -17.5t-17.5 -45.5z" />
    <glyph glyph-name="seven.subs" unicode="&#x2087;" horiz-adv-x="356" 
d="M235 134h-207v79h304v-79l-178 -341h-100z" />
    <glyph glyph-name="eight.subs" unicode="&#x2088;" horiz-adv-x="418" 
d="M209 -214q-75 0 -120 36t-45 92q0 68 66 102q-54 30 -54 90q0 52 41.5 83t111.5 31q71 0 112 -31t41 -83q0 -60 -55 -90q67 -34 67 -103q0 -56 -45 -91.5t-120 -35.5zM209 -135q33 0 52.5 14.5t19.5 40.5t-19.5 41.5t-52.5 15.5t-52 -15.5t-19 -41.5t19 -40.5t52 -14.5z
M209 50q30 0 48 14t18 36t-18 35.5t-48 13.5q-29 0 -47 -13.5t-18 -35.5t18 -36t47 -14z" />
    <glyph glyph-name="nine.subs" unicode="&#x2089;" horiz-adv-x="413" 
d="M371 9q0 -101 -50 -162t-135 -61q-80 0 -131 44l45 64q36 -27 85 -27q41 0 67.5 32t27.5 85q-10 -19 -36.5 -32t-56.5 -13q-65 0 -105.5 38t-40.5 98q0 65 43 105t111 40q85 0 130.5 -56t45.5 -155zM267 74q0 29 -18.5 47t-48.5 18q-29 0 -47 -18t-18 -47q0 -28 19 -45.5
t49 -17.5q29 0 46.5 17.5t17.5 45.5z" />
    <glyph glyph-name="plus.subs" unicode="&#x208a;" horiz-adv-x="332" 
d="M204 116v-76h82v-80h-82v-77h-75v77h-83v80h83v76h75z" />
    <glyph glyph-name="minus.subs" unicode="&#x208b;" horiz-adv-x="343" 
d="M291 -40h-239v80h239v-80z" />
    <glyph glyph-name="equal.subs" unicode="&#x208c;" horiz-adv-x="361" 
d="M300 30h-239v80h239v-80zM300 -110h-239v80h239v-80z" />
    <glyph glyph-name="parenleft.subs" unicode="&#x208d;" horiz-adv-x="272" 
d="M129 -57q0 -66 28 -124.5t75 -93.5l-49 -54q-63 43 -100.5 117.5t-37.5 154.5t37.5 154.5t100.5 117.5l49 -54q-47 -35 -75 -93.5t-28 -124.5z" />
    <glyph glyph-name="parenright.subs" unicode="&#x208e;" horiz-adv-x="273" 
d="M142 -57q0 66 -27.5 125t-74.5 93l48 54q64 -43 101.5 -117.5t37.5 -154.5t-37.5 -154.5t-101.5 -117.5l-48 54q47 35 74.5 93.5t27.5 124.5z" />
    <glyph glyph-name="colonmonetary" unicode="&#x20a1;" horiz-adv-x="705" 
d="M648 767l-51 -109q33 -21 67 -53l-99 -100q-18 18 -28 26l-188 -401q25 -7 57 -7q98 0 163 80l108 -88q-106 -127 -271 -127q-60 0 -116 17l-34 -72h-61l43 92q-27 13 -48 28l-56 -120h-61l73 156q-104 104 -104 261t103 259.5t261 102.5q12 0 32 -2l27 57h61l-31 -66
q36 -10 53 -18l39 84h61zM254 189q21 -23 44 -37l191 407q-24 11 -53 16zM197 350q0 -57 22 -106l155 330q-79 -11 -128 -73t-49 -151z" />
    <glyph glyph-name="franc" unicode="&#x20a3;" horiz-adv-x="612" 
d="M417 105h-166v-105h-152v105h-65v74h65v521h482v-131h-330v-166h301v-131h-301v-93h166v-74z" />
    <glyph glyph-name="lira" unicode="&#x20a4;" horiz-adv-x="602" 
d="M518 154l53 -121q-79 -45 -151 -45q-51 0 -112 22.5t-97 22.5q-47 0 -107 -37l-58 111q85 47 109 118h-107v74h118v1q0 25 -20 65h-98v74h63q-8 26 -8 52q0 97 64.5 159t175.5 62q133 0 229 -88l-78 -100q-66 53 -137 53q-51 0 -76.5 -28.5t-25.5 -67.5q0 -22 5 -42h191
v-74h-160q9 -27 9 -55v-11h151v-74h-164q-21 -59 -68 -95q33 16 66 16q30 0 76 -12.5t69 -12.5q42 0 88 33z" />
    <glyph glyph-name="uni20A6" unicode="&#x20a6;" horiz-adv-x="852" 
d="M817 238h-89v-238h-152l-157 238h-143v-238h-152v238h-88v71h88v80h-88v72h88v239h152l158 -239h142v239h152v-239h89v-72h-89v-80h89v-71zM319 389h-43v-80h96zM482 389l53 -80h41v80h-94z" />
    <glyph glyph-name="peseta" unicode="&#x20a7;" horiz-adv-x="764" 
d="M41 425v81h80v194h290q98 0 166.5 -53.5t82.5 -140.5h78v-81h-78q-14 -87 -82.5 -141.5t-166.5 -54.5h-138v-229h-152v425h-80zM273 360h136q33 0 58 17.5t36 47.5h-230v-65zM273 569v-63h230q-11 29 -36 46t-58 17h-136z" />
    <glyph glyph-name="uni20A8" unicode="&#x20a8;" horiz-adv-x="1177" 
d="M34 426v81h80v193h298q101 0 170 -53.5t83 -139.5h66v-81h-67q-22 -113 -128 -164l146 -262h-170l-125 235h-121v-235h-152v426h-80zM929 400q-74 0 -74 -45q0 -21 30 -32.5t73 -19t86 -20t73 -47t30 -88.5q0 -79 -59.5 -119.5t-141.5 -40.5q-133 0 -232 85l65 88
q75 -69 167 -69q77 0 77 46q0 19 -21.5 31t-54 17t-70.5 15t-70.5 23.5t-54 44.5t-21.5 76q0 78 59.5 118.5t140.5 40.5q107 0 194 -67l-62 -89q-63 52 -134 52zM266 569v-62h240q-12 28 -38.5 45t-59.5 17h-142zM266 366h142q33 0 59.5 16.5t37.5 43.5h-239v-60z" />
    <glyph glyph-name="uni20A9" unicode="&#x20a9;" horiz-adv-x="1042" 
d="M33 482v81h52l-39 137h163l36 -137h170l38 137h132l37 -137h171l36 137h163l-40 -137h58v-81h-81l-20 -69h101v-81h-125l-96 -332h-146l-93 332h-64l-91 -332h-146l-97 332h-119v81h96l-20 69h-76zM644 482l19 -69h91l18 69h-128zM266 482l18 -69h90l19 69h-127zM686 332
l24 -88l23 88h-47zM305 332l23 -88l24 88h-47zM518 449l-10 -36h20z" />
    <glyph glyph-name="uni20AA" unicode="&#x20aa;" horiz-adv-x="869" 
d="M597 386v-197h-129v186q0 39 -15 59.5t-63 20.5h-185v-455h-129v577h340q83 0 132 -50t49 -141zM272 191v197h129v-186q0 -39 15 -59.5t63 -20.5h185v455h129v-577h-340q-83 0 -132 50t-49 141z" />
    <glyph glyph-name="dong" unicode="&#x20ab;" horiz-adv-x="654" 
d="M622 557h-60v-557h-139v57q-20 -31 -61.5 -50t-84.5 -19q-106 0 -174 72.5t-68 185.5t68 185.5t176 72.5q43 0 82 -18t62 -47v118h-154v74h154v69h139v-69h60v-74zM175 246q0 -60 33.5 -100t92.5 -40q52 0 87 40t35 100t-34 100t-86 40q-58 0 -93 -38.5t-35 -101.5z
M502 -171h-363v81h363v-81z" />
    <glyph glyph-name="Euro" unicode="&#x20ac;" horiz-adv-x="784" 
d="M554 238h-253q25 -53 73 -84t111 -31q98 0 163 80l108 -88q-106 -127 -271 -127q-125 0 -219.5 68t-128.5 182h-104v81h89q-1 10 -1 31q0 19 1 29h-89v82h104q33 114 127.5 182.5t220.5 68.5q149 0 258 -107l-99 -100q-29 34 -71.5 53t-87.5 19q-63 0 -110.5 -31
t-73.5 -85h253v-82h-276q-1 -10 -1 -29q0 -11 2 -31h275v-81z" />
    <glyph glyph-name="uni20B1" unicode="&#x20b1;" horiz-adv-x="764" 
d="M40 483v51h80v166h290q90 0 155 -45.5t87 -120.5h85v-51h-76q1 -6 1 -18q0 -11 -1 -16h76v-51h-84q-22 -77 -87.5 -123t-155.5 -46h-138v-229h-152v398h-80v51h80v34h-80zM509 466q0 11 -1 17h-236v-34h236q1 5 1 17zM272 360h136q50 0 79 38h-215v-38zM272 569v-35h214
q-29 35 -78 35h-136z" />
    <glyph glyph-name="uni20B4" unicode="&#x20b4;" horiz-adv-x="633" 
d="M33 319h140q26 19 97 60h-237v82h337q13 21 13 46q0 38 -25.5 55.5t-56.5 17.5q-33 0 -72.5 -19t-69.5 -49l-69 115q97 85 224 85q92 0 155 -47.5t63 -145.5q0 -29 -12 -58h74v-82h-150q-11 -7 -99 -60h249v-81h-335q-8 -19 -8 -39q0 -44 26.5 -62t59.5 -18
q40 0 86.5 22.5t79.5 61.5l78 -110q-101 -105 -259 -105q-95 0 -159.5 47.5t-64.5 149.5q0 29 9 53h-74v81z" />
    <glyph glyph-name="uni20B9" unicode="&#x20b9;" horiz-adv-x="616" 
d="M46 429l31 81h231q-12 27 -38 43t-58 16h-166l50 131h492l-31 -81h-141q43 -47 53 -109h119l-31 -81h-89q-10 -55 -43.5 -98.5t-84.5 -68.5l146 -262h-170l-125 235h-145v131h166q34 0 61 17t38 46h-265z" />
    <glyph glyph-name="uni20BA" unicode="&#x20ba;" horiz-adv-x="659" 
d="M485 365l-199 -94v-140h17q48 0 89 16t65 38.5t41.5 45t23.5 38.5l7 16l106 -69q-3 -9 -10 -23.5t-34.5 -51.5t-62.5 -65.5t-99 -52t-139 -23.5h-156v200l-78 -36v95l78 36v83l-78 -36v95l78 36v227h152v-156l199 94v-95l-199 -94v-83l199 94v-95z" />
    <glyph glyph-name="uni20BC" unicode="&#x20bc;" horiz-adv-x="687" 
d="M306 0v351q-59 -2 -86 -38t-27 -110v-203h-160v204q0 143 76 219t197 79v198h73v-197q123 -1 198.5 -75t75.5 -223v-205h-160v203q0 75 -27.5 111t-86.5 37v-351h-73z" />
    <glyph glyph-name="uni20BD" unicode="&#x20bd;" horiz-adv-x="693" 
d="M48 97v74h74v58h-74v131h74v340h290q110 0 181 -66t71 -169t-71 -169.5t-181 -66.5h-138v-58h215v-74h-215v-97h-152v97h-74zM274 360h136q44 0 72.5 30t28.5 76q0 45 -28.5 74t-72.5 29h-136v-209z" />
    <glyph glyph-name="uni20BF" unicode="&#x20bf;" horiz-adv-x="675" 
d="M353 766h79v-69q82 -11 130.5 -59.5t48.5 -120.5q0 -44 -25.5 -85.5t-64.5 -61.5q57 -21 89 -69t32 -106q0 -82 -59.5 -137t-150.5 -58v-71h-79v71h-71v-71h-79v71h-126v700h126v66h79v-66h71v66zM229 131h169q40 0 64.5 22.5t24.5 57.5q0 36 -25.5 59t-65.5 23h-167
v-162zM229 424h156q34 0 57.5 21t23.5 52t-23 51.5t-57 20.5h-157v-145z" />
    <glyph glyph-name="uni2113" unicode="&#x2113;" horiz-adv-x="459" 
d="M49 178l-26 60q39 16 92 51v258q0 74 45 119.5t123 45.5q73 0 114.5 -44t41.5 -107q0 -71 -48.5 -131t-136.5 -128v-126q0 -30 20 -45.5t49 -15.5q31 0 58 18l43 -97q-58 -36 -129 -36q-76 0 -128 43.5t-52 123.5v42q-42 -22 -66 -31zM343 558q0 28 -13 44t-31 16
q-45 0 -45 -60v-158q89 84 89 158z" />
    <glyph glyph-name="uni2116" unicode="&#x2116;" horiz-adv-x="1246" 
d="M1214 381q0 -93 -62.5 -154t-156.5 -61t-156.5 61t-62.5 154q0 94 62.5 155t156.5 61t156.5 -61t62.5 -155zM1104 381q0 49 -30 83.5t-79 34.5q-47 0 -77.5 -34.5t-30.5 -83.5t30 -83t78 -34q49 0 79 34t30 83zM809 126h373v-63h-373v63zM682 700v-700h-152l-300 454
v-454h-152v700h152l300 -453v453h152z" />
    <glyph glyph-name="trademark" unicode="&#x2122;" horiz-adv-x="572" 
d="M150 656v-191h-50v191h-70v44h189v-44h-69zM405 465h-39l-55 150v-150h-50v235h68l57 -162l55 162h70v-235h-52v150z" />
    <glyph glyph-name="Omega" unicode="&#x2126;" horiz-adv-x="828" 
d="M414 712q157 0 258 -92t101 -231q0 -82 -43.5 -150.5t-106.5 -107.5h169v-131h-318v146q70 29 106.5 87.5t36.5 133.5q0 87 -54 148.5t-149 61.5q-99 0 -151 -61t-52 -149q0 -75 36.5 -133.5t106.5 -87.5v-146h-318v131h161q-61 38 -101.5 106.5t-40.5 151.5
q0 138 101.5 230.5t257.5 92.5z" />
    <glyph glyph-name="estimated" unicode="&#x212e;" horiz-adv-x="764" 
d="M393 26q54 0 110.5 18.5t85.5 37.5l29 18l26 -34q-13 -9 -36 -22t-89 -34.5t-126 -21.5q-163 0 -257 101t-94 266q0 152 100 254.5t251 102.5q150 0 246 -95.5t96 -246.5v-24h-541v-234q75 -86 199 -86zM393 674q-121 0 -199 -85v-205h389v221q-80 69 -190 69z" />
    <glyph glyph-name="onethird" unicode="&#x2153;" horiz-adv-x="850" 
d="M645 176h-55v79h67q25 0 39.5 12.5t14.5 35.5q0 20 -18 31.5t-45 11.5q-55 0 -105 -36l-37 67q66 50 157 50q57 0 95.5 -28.5t41.5 -70.5q5 -69 -62 -111q36 -8 57 -36t20 -64q0 -54 -45 -89t-113 -35q-99 0 -165 62l47 64q52 -46 117 -46q30 0 49 13.5t20 35.5
q-2 54 -80 54zM86 0l493 700h90l-493 -700h-90zM63 582l-36 74l96 44h91v-420h-91v329z" />
    <glyph glyph-name="twothirds" unicode="&#x2154;" horiz-adv-x="945" 
d="M186 0l493 700h90l-493 -700h-90zM745 176h-55v79h67q25 0 39.5 12.5t14.5 35.5q0 20 -18 31.5t-45 11.5q-55 0 -105 -36l-37 67q66 50 157 50q57 0 95.5 -28.5t41.5 -70.5q5 -69 -62 -111q36 -8 57 -36t20 -64q0 -54 -45 -89t-113 -35q-99 0 -165 62l47 64
q52 -46 117 -46q30 0 49 13.5t20 35.5q-2 54 -80 54zM80 586l-43 68q70 53 151 53q66 0 107 -37.5t41 -92.5q0 -38 -22 -76q-29 -48 -156 -142h179v-79h-303v79q162 129 192 166q18 21 18 45q0 23 -17 39.5t-45 16.5q-53 0 -102 -40z" />
    <glyph glyph-name="oneeighth" unicode="&#x215b;" horiz-adv-x="844" 
d="M643 -7q-75 0 -120 36t-45 92q0 68 66 102q-54 30 -54 89q0 53 41.5 84t111.5 31q71 0 112 -31t41 -84q0 -59 -55 -89q67 -33 67 -102q0 -56 -45 -92t-120 -36zM86 0l493 700h90l-493 -700h-90zM63 582l-36 74l96 44h91v-420h-91v329zM643 72q33 0 52.5 14.5t19.5 41.5
q0 26 -19.5 41t-52.5 15q-32 0 -51.5 -15.5t-19.5 -40.5q0 -27 19 -41.5t52 -14.5zM643 257q30 0 48 14t18 37q0 21 -18.5 34.5t-47.5 13.5t-47 -13.5t-18 -34.5q0 -23 18 -37t47 -14z" />
    <glyph glyph-name="threeeighths" unicode="&#x215c;" horiz-adv-x="937" 
d="M738 -7q-75 0 -120 36t-45 92q0 68 66 102q-54 30 -54 89q0 53 41.5 84t111.5 31q71 0 112 -31t41 -84q0 -59 -55 -89q67 -33 67 -102q0 -56 -45 -92t-120 -36zM180 456h-55v79h67q25 0 39.5 12.5t14.5 35.5q0 20 -18 31.5t-45 11.5q-55 0 -105 -36l-37 67q66 50 157 50
q57 0 95.5 -28.5t41.5 -70.5q5 -69 -62 -111q36 -8 57 -36t20 -64q0 -54 -45 -89t-113 -35q-99 0 -165 62l47 64q52 -46 117 -46q30 0 49 13.5t20 35.5q-2 54 -80 54zM181 0l493 700h90l-493 -700h-90zM738 72q33 0 52.5 14.5t19.5 41.5q0 26 -19.5 41t-52.5 15
q-32 0 -51.5 -15.5t-19.5 -40.5q0 -27 19 -41.5t52 -14.5zM738 257q30 0 48 14t18 37q0 21 -18.5 34.5t-47.5 13.5t-47 -13.5t-18 -34.5q0 -23 18 -37t47 -14z" />
    <glyph glyph-name="fiveeighths" unicode="&#x215d;" horiz-adv-x="929" 
d="M731 -7q-75 0 -120 36t-45 92q0 68 66 102q-54 30 -54 89q0 53 41.5 84t111.5 31q71 0 112 -31t41 -84q0 -59 -55 -89q67 -33 67 -102q0 -56 -45 -92t-120 -36zM329 700v-79h-185l-10 -86q35 19 74 19q70 0 110 -40t40 -100q0 -61 -45 -101t-123 -40q-94 0 -162 65l46 63
q50 -47 118 -47q34 0 53 17t19 43q0 28 -22 44.5t-59 16.5q-36 0 -67 -24l-67 36l24 213h256zM174 0l493 700h90l-493 -700h-90zM731 72q33 0 52.5 14.5t19.5 41.5q0 26 -19.5 41t-52.5 15q-32 0 -51.5 -15.5t-19.5 -40.5q0 -27 19 -41.5t52 -14.5zM731 257q30 0 48 14
t18 37q0 21 -18.5 34.5t-47.5 13.5t-47 -13.5t-18 -34.5q0 -23 18 -37t47 -14z" />
    <glyph glyph-name="seveneighths" unicode="&#x215e;" horiz-adv-x="825" 
d="M629 -7q-75 0 -120 36t-45 92q0 68 66 102q-54 30 -54 89q0 53 41.5 84t111.5 31q71 0 112 -31t41 -84q0 -59 -55 -89q67 -33 67 -102q0 -56 -45 -92t-120 -36zM72 0l493 700h90l-493 -700h-90zM237 621h-207v79h304v-79l-178 -341h-100zM629 72q33 0 52.5 14.5
t19.5 41.5q0 26 -19.5 41t-52.5 15q-32 0 -51.5 -15.5t-19.5 -40.5q0 -27 19 -41.5t52 -14.5zM629 257q30 0 48 14t18 37q0 21 -18.5 34.5t-47.5 13.5t-47 -13.5t-18 -34.5q0 -23 18 -37t47 -14z" />
    <glyph glyph-name="arrowleft" unicode="&#x2190;" horiz-adv-x="730" 
d="M673 377v-195h-329l13 -152l-308 249l308 249l-13 -151h329z" />
    <glyph glyph-name="arrowup" unicode="&#x2191;" horiz-adv-x="584" 
d="M390 0h-195v329l-152 -13l249 308l249 -308l-151 12v-328z" />
    <glyph glyph-name="arrowright" unicode="&#x2192;" horiz-adv-x="730" 
d="M373 528l308 -249l-308 -249l13 152h-329v195h328z" />
    <glyph glyph-name="arrowdown" unicode="&#x2193;" horiz-adv-x="584" 
d="M195 624h195v-329l151 13l-249 -308l-249 308l152 -13v329z" />
    <glyph glyph-name="partialdiff" unicode="&#x2202;" horiz-adv-x="600" 
d="M293 483q47 0 94 -19q-16 58 -71 95.5t-136 37.5q-44 0 -91 -11l-15 112q62 12 114 12q180 0 274.5 -123.5t94.5 -318.5q0 -124 -66.5 -202t-193.5 -78q-114 0 -188.5 71t-74.5 179q0 109 72.5 177t186.5 68zM427 239q0 67 -35.5 101.5t-94.5 34.5q-56 0 -92 -38.5
t-36 -98.5q0 -59 36 -97t92 -38q58 0 94 36.5t36 99.5z" />
    <glyph glyph-name="Delta" unicode="&#x2206;" horiz-adv-x="734" 
d="M21 0l267 700h161l264 -700h-692zM366 531l-141 -400h279z" />
    <glyph glyph-name="product" unicode="&#x220f;" horiz-adv-x="741" 
d="M77 700h587v-900h-152v765h-283v-765h-152v900z" />
    <glyph glyph-name="summation" unicode="&#x2211;" horiz-adv-x="584" 
d="M40 569v131h503v-131h-330l227 -314l-223 -324h336v-131h-518v116l236 334z" />
    <glyph glyph-name="minus" unicode="&#x2212;" horiz-adv-x="549" 
d="M493 287h-437v99h437v-99z" />
    <glyph glyph-name="uni2215" unicode="&#x2215;" horiz-adv-x="523" 
d="M-33 0l493 700h93l-485 -700h-101z" />
    <glyph glyph-name="uni2219" unicode="&#x2219;" horiz-adv-x="353" 
d="M91 249q0 35 25 59.5t60 24.5q36 0 61 -24.5t25 -59.5t-25 -59.5t-61 -24.5q-35 0 -60 24.5t-25 59.5z" />
    <glyph glyph-name="radical" unicode="&#x221a;" horiz-adv-x="688" 
d="M5 378v114h274v-407l321 616h126l-470 -902h-120v579h-131z" />
    <glyph glyph-name="infinity" unicode="&#x221e;" horiz-adv-x="762" 
d="M623 348q0 46 -26.5 75.5t-68.5 29.5q-43 0 -69.5 -29.5t-26.5 -75.5t26.5 -75.5t69.5 -29.5q42 0 68.5 29.5t26.5 75.5zM330 348q0 46 -26.5 75.5t-68.5 29.5q-43 0 -69.5 -29.5t-26.5 -75.5t26.5 -75.5t69.5 -29.5q42 0 68.5 29.5t26.5 75.5zM528 541q85 0 140.5 -55
t55.5 -138t-55.5 -138t-140.5 -55q-28 0 -53 8t-41.5 20t-28.5 24t-17 20l-6 8h-1q-2 -3 -5.5 -8.5t-17 -19.5t-29 -24.5t-41 -19t-53.5 -8.5q-85 0 -141 55t-56 138t56 138t141 55q28 0 53 -8t41.5 -20t28.5 -24t18 -20l5 -8h1q2 3 5.5 8.5t17 19.5t29 24.5t41 19t53.5 8.5
z" />
    <glyph glyph-name="integral" unicode="&#x222b;" horiz-adv-x="361" 
d="M124 677q0 69 41.5 110.5t110.5 41.5h90v-107h-78q-51 0 -51 -56v-670q0 -69 -41.5 -110.5t-110.5 -41.5h-90v107h78q51 0 51 56v670z" />
    <glyph glyph-name="approxequal" unicode="&#x2248;" horiz-adv-x="566" 
d="M508 407q-52 25 -108 25q-38 0 -116.5 -26.5t-121.5 -26.5q-59 0 -106 28v95q45 -28 96 -28q43 0 130.5 27t130.5 27q51 0 95 -26v-95zM508 177q-52 25 -108 25q-38 0 -116.5 -26.5t-121.5 -26.5q-59 0 -106 28v95q45 -28 96 -28q43 0 130.5 27t130.5 27q51 0 95 -26v-95
z" />
    <glyph glyph-name="notequal" unicode="&#x2260;" horiz-adv-x="519" 
d="M461 174h-250l-61 -101h-99l62 101h-59v99h121l81 130h-202v99h263l63 101h93l-62 -101h50v-99h-110l-79 -130h189v-99z" />
    <glyph glyph-name="lessequal" unicode="&#x2264;" horiz-adv-x="581" 
d="M165 400l363 -158v-117l-487 217v116l487 217v-117zM528 0h-487v99h487v-99z" />
    <glyph glyph-name="greaterequal" unicode="&#x2265;" horiz-adv-x="581" 
d="M53 242l363 158l-363 158v117l487 -217v-116l-487 -217v117zM540 0h-487v99h487v-99z" />
    <glyph glyph-name="uni24C5" unicode="&#x24c5;" horiz-adv-x="792" 
d="M34 350q0 150 106 256t256 106t256 -106t106 -256t-106 -256t-256 -106t-256 106t-106 256zM88 350q0 -128 90.5 -220.5t217.5 -92.5t217.5 92.5t90.5 220.5t-90.5 220.5t-217.5 92.5t-217.5 -92.5t-90.5 -220.5zM258 566h178q66 0 108.5 -38.5t42.5 -101.5
q0 -62 -43 -101t-108 -39h-120v-159h-58v439zM316 330h118q42 0 68 28.5t26 68.5t-26.5 67.5t-67.5 27.5h-118v-192z" />
    <glyph glyph-name="lozenge" unicode="&#x25ca;" horiz-adv-x="459" 
d="M222 700h14l194 -350l-194 -349h-14l-193 349zM230 630l-155 -280q29 -53 77 -138.5t78 -140.5l154 279q-19 34 -48.5 88t-54 99t-51.5 93z" />
    <glyph glyph-name="sbstarburst" unicode="&#x2738;" horiz-adv-x="780" 
d="M332 605l57 95l60 -95l94 60l11 -110l110 13l-39 -104l105 -35l-79 -79l79 -77l-105 -35l39 -105l-110 13l-11 -110l-94 61l-60 -95l-57 95l-94 -61l-11 110l-110 -13l39 105l-106 35l80 77l-80 79l106 35l-39 104l110 -13l11 110z" />
    <glyph glyph-name="sbcircle" unicode="&#x274d;" horiz-adv-x="800" 
d="M50 350q0 145 102.5 247.5t247.5 102.5t247.5 -102.5t102.5 -247.5t-102.5 -247.5t-247.5 -102.5t-247.5 102.5t-102.5 247.5z" />
    <glyph glyph-name="sbleft" unicode="&#x2776;" horiz-adv-x="1322" 
d="M1272 604v-508q0 -40 -28.5 -68t-67.5 -28h-123v-11q0 -39 18.5 -79t36.5 -61.5t36 -38.5q4 -4 4 -9q0 -11 -12 -11l-7 1q-126 37 -295 209h-688q-39 0 -67.5 28t-28.5 68v508q0 40 28.5 68t67.5 28h1030q39 0 67.5 -28t28.5 -68z" />
    <glyph glyph-name="sbright" unicode="&#x2777;" horiz-adv-x="1322" 
d="M50 96v508q0 40 28.5 68t67.5 28h1030q39 0 67.5 -28t28.5 -68v-508q0 -40 -28.5 -68t-67.5 -28h-688q-169 -172 -295 -209q-4 -1 -7 -1q-12 0 -12 11q0 5 4 9q18 17 36 38.5t36.5 61.5t18.5 79v11h-123q-39 0 -67.5 28t-28.5 68z" />
    <glyph glyph-name="sbleft1" unicode="&#x2778;" horiz-adv-x="1844" 
d="M1171 0h-984q-57 0 -97 40t-40 98v425q0 57 40.5 97t96.5 40h1468q58 0 98.5 -40t40.5 -97v-425q0 -58 -40.5 -98t-98.5 -40h-232v-12q0 -63 35 -120t69 -87q7 -7 7 -10q0 -13 -17 -13l-7 1q-139 38 -339 241z" />
    <glyph glyph-name="sbright1" unicode="&#x2779;" horiz-adv-x="1844" 
d="M1657 0h-984q-200 -203 -339 -241q-3 -1 -7 -1q-17 0 -17 13q0 3 7 10q34 30 69 87t35 120v12h-232q-58 0 -98.5 40t-40.5 98v425q0 57 40.5 97t98.5 40h1468q56 0 96.5 -40t40.5 -97v-425q0 -58 -40 -98t-97 -40z" />
    <glyph glyph-name="sbleft2" unicode="&#x277a;" horiz-adv-x="1322" 
d="M1272 0h-219v-11q0 -39 18.5 -79t36.5 -61.5t36 -38.5q4 -4 4 -9q0 -11 -12 -11l-7 1q-126 37 -295 209h-784v700h1222v-700z" />
    <glyph glyph-name="sbright2" unicode="&#x277b;" horiz-adv-x="1322" 
d="M269 0h-219v700h1222v-700h-784q-169 -172 -295 -209q-4 -1 -7 -1q-12 0 -12 11q0 5 4 9q18 17 36 38.5t36.5 61.5t18.5 79v11z" />
    <glyph glyph-name="sbleft3" unicode="&#x277c;" horiz-adv-x="1844" 
d="M1171 0h-1121v700h1744v-700h-371v-12q0 -63 35 -120t69 -87q7 -7 7 -10q0 -13 -17 -13l-7 1q-139 38 -339 241z" />
    <glyph glyph-name="sbright3" unicode="&#x277d;" horiz-adv-x="1844" 
d="M1794 0h-1121q-200 -203 -339 -241q-3 -1 -7 -1q-17 0 -17 13q0 3 7 10q34 30 69 87t35 120v12h-371v700h1744v-700z" />
    <glyph glyph-name="sbleft4" unicode="&#x277e;" horiz-adv-x="1235" 
d="M1010 -141q4 -4 4 -9q0 -11 -12 -11l-7 1q-108 31 -249 166q-63 -9 -129 -9q-154 0 -284.5 47t-206.5 128.5t-76 177.5t76 177t206.5 128t284.5 47t285 -47t207 -128t76 -177q0 -93 -72 -172t-194 -127v-8q0 -56 30.5 -107t60.5 -77z" />
    <glyph glyph-name="sbright4" unicode="&#x277f;" horiz-adv-x="1235" 
d="M225 -141q30 26 60.5 77t30.5 107v8q-122 48 -194 127t-72 172q0 96 76 177t207 128t285 47t284.5 -47t206.5 -128t76 -177t-76 -177.5t-206.5 -128.5t-284.5 -47q-66 0 -129 9q-141 -135 -249 -166q-4 -1 -7 -1q-12 0 -12 11q0 5 4 9z" />
    <glyph glyph-name="nacute.sc.ss01" unicode="&#xe000;" horiz-adv-x="685" 
d="M619 590v-590h-138l-241 361v-361h-138v473h-87v117h225l241 -361v361h138zM542 814l-175 -178h-98l137 178h136z" />
    <glyph glyph-name="n.sc.ss01" unicode="&#xe001;" horiz-adv-x="685" 
d="M15 473v117h225l241 -361v361h138v-590h-138l-241 361v-361h-138v473h-87z" />
    <glyph glyph-name="uni013C.sc" unicode="&#xe002;" horiz-adv-x="490" 
d="M207 -102q0 30 20.5 50t49.5 20q31 0 49.5 -22t18.5 -53q0 -84 -93 -148l-32 37q42 28 48 46q-27 2 -44 22t-17 48zM66 0v590h138v-473h270v-117h-408z" />
    <glyph glyph-name="ograve.sc.ss05" unicode="&#xe003;" horiz-adv-x="682" 
d="M651 295q0 -132 -88.5 -218.5t-221.5 -86.5t-221.5 86.5t-88.5 218.5t88.5 218.5t221.5 86.5t221.5 -86.5t88.5 -218.5zM509 295q0 77 -46.5 129.5t-121.5 52.5t-121.5 -52.5t-46.5 -129.5t46.5 -129.5t121.5 -52.5t121.5 52.5t46.5 129.5zM293 635l-175 178h136
l137 -178h-98zM484 338l-143 -129l-141 129h284z" />
    <glyph glyph-name="m.sc.ss01" unicode="&#xe004;" horiz-adv-x="794" 
d="M15 473v117h268l132 -366l132 366h181v-590h-138v361q-30 -83 -72.5 -198.5t-59.5 -162.5h-86q-17 47 -59.5 162.5t-72.5 198.5v-361h-138v473h-87z" />
    <glyph glyph-name="ohungarumlaut.sc.ss05" unicode="&#xe005;" horiz-adv-x="682" 
d="M651 295q0 -132 -88.5 -218.5t-221.5 -86.5t-221.5 86.5t-88.5 218.5t88.5 218.5t221.5 86.5t221.5 -86.5t88.5 -218.5zM509 295q0 77 -46.5 129.5t-121.5 52.5t-121.5 -52.5t-46.5 -129.5t46.5 -129.5t121.5 -52.5t121.5 52.5t46.5 129.5zM398 813l-123 -178h-95l85 178
h133zM588 813l-123 -178h-95l85 178h133zM484 338l-143 -129l-141 129h284z" />
    <glyph glyph-name="lslash.sc.ss01" unicode="&#xe006;" horiz-adv-x="553" 
d="M24 161v116l66 31v282h138v-217l79 38v-116l-79 -38v-140h156v103h138v-220h-432v192z" />
    <glyph glyph-name="uni0137.sc.ss07" unicode="&#xe007;" horiz-adv-x="590" 
d="M247 -102q0 30 20.5 50t48.5 20q31 0 49.5 -22t18.5 -53q0 -86 -92 -148l-33 37q42 25 49 46q-27 2 -44 22t-17 48zM204 590v-266l220 266h167l-231 -274l305 -411h-161l-229 312l-71 -85v-132h-138v590h138z" />
    <glyph glyph-name="uni0137.sc.ss06" unicode="&#xe008;" horiz-adv-x="614" 
d="M204 590v-265l220 265h167l-231 -273l125 -166q24 -32 54 -32q9 0 16 2.5t9 4.5l3 3l52 -102q-37 -37 -97 -37q-44 0 -73 15.5t-62 55.5q-41 53 -115 152l-68 -82v-131h-138v590h138zM247 -102q0 30 20.5 50t48.5 20q31 0 49.5 -22t18.5 -53q0 -86 -92 -148l-33 37
q42 25 49 46q-27 2 -44 22t-17 48z" />
    <glyph glyph-name="uni0137.sc.ss05" unicode="&#xe009;" horiz-adv-x="650" 
d="M240 590v-265l220 265h167l-231 -273l125 -166q24 -32 54 -32q9 0 16 2.5t9 4.5l3 3l52 -102q-37 -37 -97 -37q-44 0 -73 15.5t-62 55.5q-41 53 -115 152l-68 -82v-131h-138v473h-87v117h225zM283 -102q0 30 20.5 50t48.5 20q31 0 49.5 -22t18.5 -53q0 -86 -92 -148
l-33 37q42 25 49 46q-27 2 -44 22t-17 48z" />
    <glyph glyph-name="ldot.sc.ss01" unicode="&#xe00a;" horiz-adv-x="529" 
d="M66 0v590h138v-473h156v103h138v-220h-432zM258 350q0 35 24 59.5t58 24.5q36 0 60 -24.5t24 -59.5t-24 -58.5t-60 -23.5q-34 0 -58 24t-24 58z" />
    <glyph glyph-name="lcaron.sc.ss01" unicode="&#xe00b;" horiz-adv-x="532" 
d="M66 0v590h138v-473h156v103h138v-220h-432zM263 555q0 33 22.5 55t53.5 22q34 0 54.5 -24t20.5 -59q0 -100 -103 -169l-29 33q49 29 56 64q-32 0 -53.5 22.5t-21.5 55.5z" />
    <glyph glyph-name="lacute.sc.ss01" unicode="&#xe00c;" horiz-adv-x="529" 
d="M66 0v590h138v-473h156v103h138v-220h-432zM474 814l-175 -178h-98l137 178h136z" />
    <glyph glyph-name="uni0137.sc.ss04" unicode="&#xe00d;" horiz-adv-x="605" 
d="M204 590v-265l220 265h167l-228 -270l102 -141q45 -62 103 -62h19v-117h-75q-84 0 -134 70l-103 146l-71 -85v-131h-138v590h138zM247 -102q0 30 20.5 50t48.5 20q31 0 49.5 -22t18.5 -53q0 -86 -92 -148l-33 37q42 25 49 46q-27 2 -44 22t-17 48z" />
    <glyph glyph-name="ncaron.sc.ss01" unicode="&#xe00e;" horiz-adv-x="685" 
d="M15 473v117h225l241 -361v361h138v-590h-138l-241 361v-361h-138v473h-87zM360 701l89 111h88l-123 -178h-108l-123 178h88z" />
    <glyph glyph-name="uni0137.sc.ss03" unicode="&#xe00f;" horiz-adv-x="641" 
d="M240 590v-265l220 265h167l-228 -270l102 -141q45 -62 103 -62h19v-117h-75q-84 0 -134 70l-103 146l-71 -85v-131h-138v473h-87v117h225zM283 -102q0 30 20.5 50t48.5 20q31 0 49.5 -22t18.5 -53q0 -86 -92 -148l-33 37q42 25 49 46q-27 2 -44 22t-17 48z" />
    <glyph glyph-name="w.sc.ss01" unicode="&#xe010;" horiz-adv-x="877" 
d="M-7 473v117h217l94 -360l101 360h120l101 -360l94 360h149l-172 -590h-132l-100 354l-100 -354h-132l-138 473h-102z" />
    <glyph glyph-name="uni0137.sc.ss01" unicode="&#xe011;" horiz-adv-x="627" 
d="M240 590v-265l220 265h167l-229 -271l234 -319h-165l-156 216l-71 -85v-131h-138v473h-87v117h225zM283 -102q0 30 20.5 50t48.5 20q31 0 49.5 -22t18.5 -53q0 -86 -92 -148l-33 37q42 25 49 46q-27 2 -44 22t-17 48z" />
    <glyph glyph-name="k.sc.ss07" unicode="&#xe012;" horiz-adv-x="590" 
d="M204 590v-266l220 266h167l-231 -274l305 -411h-161l-229 312l-71 -85v-132h-138v590h138z" />
    <glyph glyph-name="wacute.sc.ss01" unicode="&#xe013;" horiz-adv-x="877" 
d="M-7 473v117h217l94 -360l101 360h120l101 -360l94 360h149l-172 -590h-132l-100 354l-100 -354h-132l-138 473h-102zM680 814l-175 -178h-98l137 178h136z" />
    <glyph glyph-name="k.sc.ss06" unicode="&#xe014;" horiz-adv-x="614" 
d="M204 590v-265l220 265h167l-231 -273l125 -166q24 -32 54 -32q9 0 16 2.5t9 4.5l3 3l52 -102q-37 -37 -97 -37q-44 0 -73 15.5t-62 55.5q-41 53 -115 152l-68 -82v-131h-138v590h138z" />
    <glyph glyph-name="k.sc.ss05" unicode="&#xe015;" horiz-adv-x="650" 
d="M240 590v-265l220 265h167l-231 -273l125 -166q24 -32 54 -32q9 0 16 2.5t9 4.5l3 3l52 -102q-37 -37 -97 -37q-44 0 -73 15.5t-62 55.5q-41 53 -115 152l-68 -82v-131h-138v473h-87v117h225z" />
    <glyph glyph-name="wcircumflex.sc.ss01" unicode="&#xe016;" horiz-adv-x="877" 
d="M-7 473v117h217l94 -360l101 360h120l101 -360l94 360h149l-172 -590h-132l-100 354l-100 -354h-132l-138 473h-102zM554 635l-89 111l-89 -111h-88l123 178h108l123 -178h-88z" />
    <glyph glyph-name="k.sc.ss04" unicode="&#xe017;" horiz-adv-x="605" 
d="M204 590v-265l220 265h167l-228 -270l102 -141q45 -62 103 -62h19v-117h-75q-84 0 -134 70l-103 146l-71 -85v-131h-138v590h138z" />
    <glyph glyph-name="k.sc.ss03" unicode="&#xe018;" horiz-adv-x="641" 
d="M240 590v-265l220 265h167l-228 -270l102 -141q45 -62 103 -62h19v-117h-75q-84 0 -134 70l-103 146l-71 -85v-131h-138v473h-87v117h225z" />
    <glyph glyph-name="wdieresis.sc.ss01" unicode="&#xe019;" horiz-adv-x="877" 
d="M-7 473v117h217l94 -360l101 360h120l101 -360l94 360h149l-172 -590h-132l-100 354l-100 -354h-132l-138 473h-102zM277 713q0 31 22.5 53t53.5 22q32 0 54.5 -22t22.5 -53t-22.5 -53t-54.5 -22q-31 0 -53.5 22t-22.5 53zM500 713q0 31 22.5 53t53.5 22q32 0 54.5 -22
t22.5 -53t-22.5 -53t-54.5 -22q-31 0 -53.5 22t-22.5 53z" />
    <glyph glyph-name="k.sc.ss01" unicode="&#xe01a;" horiz-adv-x="627" 
d="M240 590v-265l220 265h167l-229 -271l234 -319h-165l-156 216l-71 -85v-131h-138v473h-87v117h225z" />
    <glyph glyph-name="uni0137.sc" unicode="&#xe01b;" horiz-adv-x="591" 
d="M204 590v-265l220 265h167l-229 -271l234 -319h-165l-156 216l-71 -85v-131h-138v590h138zM247 -102q0 30 20.5 50t48.5 20q31 0 49.5 -22t18.5 -53q0 -86 -92 -148l-33 37q42 25 49 46q-27 2 -44 22t-17 48z" />
    <glyph glyph-name="wgrave.sc.ss01" unicode="&#xe01c;" horiz-adv-x="877" 
d="M-7 473v117h217l94 -360l101 360h120l101 -360l94 360h149l-172 -590h-132l-100 354l-100 -354h-132l-138 473h-102zM427 635l-175 178h136l137 -178h-98z" />
    <glyph glyph-name="jcircumflex.sc.ss01" unicode="&#xe01d;" horiz-adv-x="455" 
d="M108 473v117h285v-416q0 -85 -54 -134.5t-147 -49.5q-107 0 -183 79l70 94q53 -50 106 -50q70 0 70 63v297h-147zM289 635l-89 111l-89 -111h-88l123 178h108l123 -178h-88z" />
    <glyph glyph-name="l.sc.ss01" unicode="&#xe01e;" horiz-adv-x="529" 
d="M66 0v590h138v-473h156v103h138v-220h-432z" />
    <glyph glyph-name="x.sc.ss07" unicode="&#xe01f;" horiz-adv-x="568" 
d="M285 186l-123 -186h-164l208 301l-199 289h164l114 -173l114 173h164l-199 -289l270 -396h-163z" />
    <glyph glyph-name="x.sc.ss08" unicode="&#xe020;" horiz-adv-x="570" 
d="M285 186l-123 -186h-164l208 301l-199 289h164l114 -173l114 173h164l-199 -289l312 -448h-162z" />
    <glyph glyph-name="x.ss07" unicode="&#xe021;" horiz-adv-x="514" 
d="M257 144l-97 -144h-155l176 252l-170 240h155l91 -136l91 136h155l-170 -240l259 -370h-154z" />
    <glyph glyph-name="x.ss08" unicode="&#xe022;" horiz-adv-x="514" 
d="M257 144l-97 -144h-155l176 252l-170 240h155l91 -136l91 136h155l-170 -240l293 -423h-154z" />
    <glyph glyph-name="j.sc.ss01" unicode="&#xe023;" horiz-adv-x="455" 
d="M108 473v117h285v-416q0 -85 -54 -134.5t-147 -49.5q-107 0 -183 79l70 94q53 -50 106 -50q70 0 70 63v297h-147z" />
    <glyph glyph-name="uni0136.ss07" unicode="&#xe024;" horiz-adv-x="682" 
d="M292 -130q0 33 22.5 55t53.5 22q34 0 54.5 -24t20.5 -59q0 -100 -103 -169l-29 33q49 29 56 64q-32 0 -53.5 22.5t-21.5 55.5zM228 700v-333l273 333h184l-279 -333l372 -480h-178l-286 373l-86 -102v-158h-152v700h152z" />
    <glyph glyph-name="uni0136.ss06" unicode="&#xe025;" horiz-adv-x="699" 
d="M228 700v-333l273 333h184l-273 -327q119 -175 142 -205q30 -39 59 -39q9 0 18 3t13 6l4 3l55 -111q-5 -5 -13.5 -11.5t-36 -18t-55.5 -11.5q-51 0 -83 18t-68 63q-34 41 -131 189l-88 -106v-153h-152v700h152zM292 -130q0 33 22.5 55t53.5 22q34 0 54.5 -24t20.5 -59
q0 -100 -103 -169l-29 33q49 29 56 64q-32 0 -53.5 22.5t-21.5 55.5z" />
    <glyph glyph-name="ntilde.sc.ss01" unicode="&#xe026;" horiz-adv-x="685" 
d="M15 473v117h225l241 -361v361h138v-590h-138l-241 361v-361h-138v473h-87zM435 641q-36 0 -84.5 25t-70.5 25t-36 -13.5t-29 -40.5l-60 41q54 103 129 103q35 0 86.5 -25t68.5 -25q22 0 36 13.5t29 40.5l61 -41q-54 -103 -130 -103z" />
    <glyph glyph-name="numbersign.sc" unicode="&#xe027;" horiz-adv-x="687" 
d="M89 371l25 88h119l38 131h102l-38 -131h110l38 131h102l-38 -131h117l-25 -88h-117l-43 -153h118l-24 -88h-119l-37 -130h-102l37 130h-111l-37 -130h-101l37 130h-117l23 88h119l43 153h-119zM310 371l-44 -153h111l43 153h-110z" />
    <glyph glyph-name="uni0136.ss05" unicode="&#xe028;" horiz-adv-x="740" 
d="M269 700v-333l273 333h184l-273 -327q119 -175 142 -205q30 -39 59 -39q9 0 18 3t13 6l4 3l55 -111q-5 -5 -13.5 -11.5t-36 -18t-55.5 -11.5q-51 0 -83 18t-68 63q-34 41 -131 189l-88 -106v-153h-152v569h-102v131h254zM333 -130q0 33 22.5 55t53.5 22q34 0 54.5 -24
t20.5 -59q0 -100 -103 -169l-29 33q49 29 56 64q-32 0 -53.5 22.5t-21.5 55.5z" />
    <glyph glyph-name="idotaccent" unicode="&#xe029;" horiz-adv-x="267" 
d="M203 492v-492h-139v492h139zM51 628q0 35 24 59.5t58 24.5q36 0 60 -24.5t24 -59.5t-24 -58.5t-60 -23.5q-34 0 -58 24t-24 58z" />
    <glyph glyph-name="o.sc.ss05" unicode="&#xe02a;" horiz-adv-x="682" 
d="M651 295q0 -132 -88.5 -218.5t-221.5 -86.5t-221.5 86.5t-88.5 218.5t88.5 218.5t221.5 86.5t221.5 -86.5t88.5 -218.5zM509 295q0 77 -46.5 129.5t-121.5 52.5t-121.5 -52.5t-46.5 -129.5t46.5 -129.5t121.5 -52.5t121.5 52.5t46.5 129.5zM484 338l-143 -129l-141 129
h284z" />
    <glyph glyph-name="uni021B.sc" unicode="&#xe02b;" horiz-adv-x="500" 
d="M185 -102q0 30 20 50t49 20q31 0 50 -22t19 -53q0 -84 -94 -148l-31 37q39 26 47 46q-27 2 -43.5 22t-16.5 48zM319 473v-473h-138v473h-166v117h470v-117h-166z" />
    <glyph glyph-name="yen.sc" unicode="&#xe02c;" horiz-adv-x="635" 
d="M539 128h-153v-128h-140v128h-143v76h143v42h-143v76h95l-179 268h159l138 -214l139 214h159l-180 -268h105v-76h-153v-42h153v-76z" />
    <glyph glyph-name="oacute.sc.ss05" unicode="&#xe02d;" horiz-adv-x="682" 
d="M651 295q0 -132 -88.5 -218.5t-221.5 -86.5t-221.5 86.5t-88.5 218.5t88.5 218.5t221.5 86.5t221.5 -86.5t88.5 -218.5zM509 295q0 77 -46.5 129.5t-121.5 52.5t-121.5 -52.5t-46.5 -129.5t46.5 -129.5t121.5 -52.5t121.5 52.5t46.5 129.5zM562 814l-175 -178h-98
l137 178h136zM484 338l-143 -129l-141 129h284z" />
    <glyph glyph-name="uni0219.sc" unicode="&#xe02e;" horiz-adv-x="524" 
d="M22 82l76 98q85 -71 182 -71q34 0 58 14.5t24 45.5q0 23 -24 38t-59.5 22t-77.5 19.5t-77.5 29t-59.5 53t-24 89.5q0 85 65.5 132.5t155.5 47.5q109 0 214 -71l-67 -104q-75 55 -148 55q-33 0 -58 -14t-25 -44q0 -22 24 -36.5t59.5 -21.5t77 -19.5t77 -29t59.5 -52.5
t24 -88q0 -90 -64.5 -137.5t-157.5 -47.5q-143 0 -254 92zM207 -102q0 30 20.5 50t48.5 20q31 0 49.5 -22t18.5 -53q0 -86 -92 -148l-33 37q42 25 49 46q-27 2 -44 22t-17 48z" />
    <glyph glyph-name="uni0136.ss04" unicode="&#xe02f;" horiz-adv-x="705" 
d="M228 700v-333l273 333h184l-263 -315l133 -186q48 -68 113 -68h22v-131h-80q-95 0 -150 78l-135 191l-97 -116v-153h-152v700h152zM292 -130q0 33 22.5 55t53.5 22q34 0 54.5 -24t20.5 -59q0 -100 -103 -169l-29 33q49 29 56 64q-32 0 -53.5 22.5t-21.5 55.5z" />
    <glyph glyph-name="uni0136.ss03" unicode="&#xe030;" horiz-adv-x="746" 
d="M269 700v-333l273 333h184l-263 -315l133 -186q48 -68 113 -68h22v-131h-80q-95 0 -150 78l-135 191l-97 -116v-153h-152v569h-102v131h254zM333 -130q0 33 22.5 55t53.5 22q34 0 54.5 -24t20.5 -59q0 -100 -103 -169l-29 33q49 29 56 64q-32 0 -53.5 22.5t-21.5 55.5z
" />
    <glyph glyph-name="z.sc.ss01" unicode="&#xe031;" horiz-adv-x="550" 
d="M507 220v-220h-475v117l290 356h-279v117h452v-117l-290 -356h164v103h138z" />
    <glyph glyph-name="z.sc.ss03" unicode="&#xe032;" horiz-adv-x="537" 
d="M32 117l290 356h-279v117h452v-117l-295 -362q126 -8 308 -118q75 -45 127 -64.5t102 -19.5q33 0 53 8t48 27l66 -100q-82 -62 -181 -62q-107 0 -197 57q-155 96 -231.5 128.5t-150.5 32.5h-112v117z" />
    <glyph glyph-name="uni0136.ss01" unicode="&#xe033;" horiz-adv-x="726" 
d="M269 700v-333l273 333h184l-265 -317l272 -383h-184l-184 268l-96 -115v-153h-152v569h-102v131h254zM333 -130q0 33 22.5 55t53.5 22q34 0 54.5 -24t20.5 -59q0 -100 -103 -169l-29 33q49 29 56 64q-32 0 -53.5 22.5t-21.5 55.5z" />
    <glyph glyph-name="one.sc" unicode="&#xe034;" horiz-adv-x="343" 
d="M56 415l-55 110l143 65h133v-590h-140v451z" />
    <glyph glyph-name="zacute.sc.ss01" unicode="&#xe035;" horiz-adv-x="550" 
d="M507 220v-220h-475v117l290 356h-279v117h452v-117l-290 -356h164v103h138zM466 814l-175 -178h-98l137 178h136z" />
    <glyph glyph-name="zacute.sc.ss03" unicode="&#xe036;" horiz-adv-x="537" 
d="M466 814l-175 -178h-98l137 178h136zM32 117l290 356h-279v117h452v-117l-295 -362q126 -8 308 -118q75 -45 127 -64.5t102 -19.5q33 0 53 8t48 27l66 -100q-82 -62 -181 -62q-107 0 -197 57q-155 96 -231.5 128.5t-150.5 32.5h-112v117z" />
    <glyph glyph-name="hcircumflex.sc.ss02" unicode="&#xe037;" horiz-adv-x="670" 
d="M242 590v-240h224v240h138v-590h-138v233h-224v-233h-138v233h-87v117h87v240h138zM443 635l-89 111l-89 -111h-88l123 178h108l123 -178h-88z" />
    <glyph glyph-name="uni0123.sc" unicode="&#xe038;" horiz-adv-x="628" 
d="M341 -10q-134 0 -222 86.5t-88 218.5t88 218.5t222 86.5q126 0 224 -95l-92 -91q-57 63 -132 63q-74 0 -121 -51t-47 -131t47 -131t121 -51q64 0 110 37v74h-140v117h278v-242q-44 -52 -111 -80.5t-137 -28.5zM272 -102q0 30 20 50t49 20q31 0 50 -22t19 -53
q0 -84 -94 -148l-31 37q39 26 47 46q-26 2 -43 22t-17 48z" />
    <glyph glyph-name="zcaron.sc.ss01" unicode="&#xe039;" horiz-adv-x="550" 
d="M507 220v-220h-475v117l290 356h-279v117h452v-117l-290 -356h164v103h138zM271 701l89 111h88l-123 -178h-108l-123 178h88z" />
    <glyph glyph-name="zcaron.sc.ss03" unicode="&#xe03a;" horiz-adv-x="537" 
d="M271 701l89 111h88l-123 -178h-108l-123 178h88zM32 117l290 356h-279v117h452v-117l-295 -362q126 -8 308 -118q75 -45 127 -64.5t102 -19.5q33 0 53 8t48 27l66 -100q-82 -62 -181 -62q-107 0 -197 57q-155 96 -231.5 128.5t-150.5 32.5h-112v117z" />
    <glyph glyph-name="omacron.sc.ss05" unicode="&#xe03b;" horiz-adv-x="682" 
d="M499 648h-315v79h315v-79zM651 295q0 -132 -88.5 -218.5t-221.5 -86.5t-221.5 86.5t-88.5 218.5t88.5 218.5t221.5 86.5t221.5 -86.5t88.5 -218.5zM509 295q0 77 -46.5 129.5t-121.5 52.5t-121.5 -52.5t-46.5 -129.5t46.5 -129.5t121.5 -52.5t121.5 52.5t46.5 129.5z
M484 338l-143 -129l-141 129h284z" />
    <glyph glyph-name="nine.sc" unicode="&#xe03c;" horiz-adv-x="541" 
d="M506 303q0 -141 -71.5 -227t-192.5 -86q-114 0 -191 64l70 100q56 -41 119 -41q52 0 86.5 36.5t39.5 100.5q-20 -21 -54 -34.5t-68 -13.5q-95 0 -152.5 53.5t-57.5 138.5q0 92 61.5 149t159.5 57q120 0 185.5 -78.5t65.5 -218.5zM349 393q0 36 -24.5 60t-63.5 24
q-37 0 -61 -23.5t-24 -60.5q0 -35 25.5 -58t64.5 -23q38 0 60.5 23t22.5 58z" />
    <glyph glyph-name="zdotaccent.sc.ss01" unicode="&#xe03d;" horiz-adv-x="550" 
d="M507 220v-220h-475v117l290 356h-279v117h452v-117l-290 -356h164v103h138zM185 722q0 33 23 56.5t56 23.5t56.5 -23.5t23.5 -56.5t-23.5 -56t-56.5 -23t-56 23t-23 56z" />
    <glyph glyph-name="zdotaccent.sc.ss03" unicode="&#xe03e;" horiz-adv-x="537" 
d="M185 722q0 33 23 56.5t56 23.5t56.5 -23.5t23.5 -56.5t-23.5 -56t-56.5 -23t-56 23t-23 56zM32 117l290 356h-279v117h452v-117l-295 -362q126 -8 308 -118q75 -45 127 -64.5t102 -19.5q33 0 53 8t48 27l66 -100q-82 -62 -181 -62q-107 0 -197 57q-155 96 -231.5 128.5
t-150.5 32.5h-112v117z" />
    <glyph glyph-name="h.sc.ss02" unicode="&#xe03f;" horiz-adv-x="670" 
d="M242 590v-240h224v240h138v-590h-138v233h-224v-233h-138v233h-87v117h87v240h138z" />
    <glyph glyph-name="obreve.sc.ss05" unicode="&#xe040;" horiz-adv-x="682" 
d="M651 295q0 -132 -88.5 -218.5t-221.5 -86.5t-221.5 86.5t-88.5 218.5t88.5 218.5t221.5 86.5t221.5 -86.5t88.5 -218.5zM509 295q0 77 -46.5 129.5t-121.5 52.5t-121.5 -52.5t-46.5 -129.5t46.5 -129.5t121.5 -52.5t121.5 52.5t46.5 129.5zM341 721q80 0 123 64l63 -50
q-64 -92 -186 -92t-186 92l63 50q43 -64 123 -64zM484 338l-143 -129l-141 129h284z" />
    <glyph glyph-name="uni0163.sc" unicode="&#xe041;" horiz-adv-x="500" 
d="M185 -102q0 30 20 50t49 20q31 0 50 -22t19 -53q0 -84 -94 -148l-31 37q39 26 47 46q-27 2 -43.5 22t-16.5 48zM319 473v-473h-138v473h-166v117h470v-117h-166z" />
    <glyph glyph-name="otilde.sc.ss05" unicode="&#xe042;" horiz-adv-x="682" 
d="M416 641q-36 0 -84.5 25t-70.5 25t-36 -13.5t-29 -40.5l-60 41q54 103 129 103q35 0 86 -25t69 -25q22 0 36 13.5t29 40.5l61 -41q-54 -103 -130 -103zM651 295q0 -132 -88.5 -218.5t-221.5 -86.5t-221.5 86.5t-88.5 218.5t88.5 218.5t221.5 86.5t221.5 -86.5
t88.5 -218.5zM509 295q0 77 -46.5 129.5t-121.5 52.5t-121.5 -52.5t-46.5 -129.5t46.5 -129.5t121.5 -52.5t121.5 52.5t46.5 129.5zM484 338l-143 -129l-141 129h284z" />
    <glyph glyph-name="ocircumflex.sc.ss05" unicode="&#xe043;" horiz-adv-x="682" 
d="M651 295q0 -132 -88.5 -218.5t-221.5 -86.5t-221.5 86.5t-88.5 218.5t88.5 218.5t221.5 86.5t221.5 -86.5t88.5 -218.5zM509 295q0 77 -46.5 129.5t-121.5 52.5t-121.5 -52.5t-46.5 -129.5t46.5 -129.5t121.5 -52.5t121.5 52.5t46.5 129.5zM430 635l-89 111l-89 -111h-88
l123 178h108l123 -178h-88zM484 338l-143 -129l-141 129h284z" />
    <glyph glyph-name="p.sc.ss01" unicode="&#xe044;" horiz-adv-x="588" 
d="M15 473v117h334q101 0 160 -60t59 -141t-59 -140.5t-160 -59.5h-109v-189h-138v473h-87zM240 306h108q36 0 58 25t22 59t-22 58.5t-58 24.5h-108v-167z" />
    <glyph glyph-name="uni0157.sc.ss07" unicode="&#xe045;" horiz-adv-x="584" 
d="M237 -102q0 30 20.5 50t48.5 20q31 0 49.5 -22t18.5 -53q0 -86 -92 -148l-33 37q42 25 49 46q-27 2 -44 22t-17 48zM66 590h251q103 0 163.5 -59t60.5 -138q0 -55 -32 -103t-88 -74l205 -311h-154l-179 289h-89v-194h-138v590zM204 311h113q39 0 61.5 24t22.5 57
q0 32 -23 56.5t-61 24.5h-113v-162z" />
    <glyph glyph-name="ordfeminine.sc" unicode="&#xe046;" horiz-adv-x="392" 
d="M196 693q66 0 104.5 -32.5t38.5 -88.5v-211h-92v29q-36 -36 -92 -36q-52 0 -86.5 31t-34.5 77q0 49 39.5 79t104.5 30q33 0 69 -14v13q0 21 -17.5 33.5t-50.5 12.5q-57 0 -89 -25l-37 64q68 38 143 38zM179 421q27 0 46.5 13t21.5 33v34q-27 10 -58 10q-29 0 -48 -13
t-19 -34q0 -19 15.5 -31t41.5 -12z" />
    <glyph glyph-name="uni0157.sc.ss06" unicode="&#xe047;" horiz-adv-x="618" 
d="M66 590h251q103 0 163.5 -59t60.5 -138q0 -52 -28.5 -99t-79.5 -73l51 -70q24 -32 54 -32q9 0 16 2.5t10 4.5l2 3l52 -102q-37 -37 -97 -37q-44 0 -73 15.5t-62 55.5q-5 7 -94 133h-88v-194h-138v590zM204 311h113q39 0 61.5 24t22.5 57q0 32 -23 56.5t-61 24.5h-113
v-162zM237 -102q0 30 20.5 50t48.5 20q31 0 49.5 -22t18.5 -53q0 -86 -92 -148l-33 37q42 25 49 46q-27 2 -44 22t-17 48z" />
    <glyph glyph-name="hbar.sc.ss02" unicode="&#xe048;" horiz-adv-x="681" 
d="M608 590v-91h56v-73h-56v-426h-138v233h-224v-233h-138v233h-87v117h87v76h-56v73h56v91h138v-91h224v91h138zM246 426v-76h224v76h-224z" />
    <glyph glyph-name="p.sc.ss02" unicode="&#xe049;" horiz-adv-x="590" 
d="M17 189v117h87v284h247q101 0 160 -60t59 -141t-59 -140.5t-160 -59.5h-109v-189h-138v189h-87zM242 306h108q36 0 58 25t22 59t-22 58.5t-58 24.5h-108v-167z" />
    <glyph glyph-name="uni0157.sc.ss05" unicode="&#xe04a;" horiz-adv-x="654" 
d="M15 473v117h338q103 0 163.5 -59t60.5 -138q0 -52 -28.5 -99t-79.5 -73l51 -70q24 -32 54 -32q9 0 16 2.5t10 4.5l2 3l52 -102q-37 -37 -97 -37q-44 0 -73 15.5t-62 55.5q-5 7 -94 133h-88v-194h-138v473h-87zM240 311h113q39 0 61.5 24t22.5 57q0 32 -23 56.5t-61 24.5
h-113v-162zM273 -102q0 30 20.5 50t48.5 20q31 0 49.5 -22t18.5 -53q0 -86 -92 -148l-33 37q42 25 49 46q-27 2 -44 22t-17 48z" />
    <glyph glyph-name="percent.sc" unicode="&#xe04b;" horiz-adv-x="683" 
d="M106 12l404 566h72l-403 -566h-73zM512 198q-26 0 -43 -18.5t-17 -46.5q0 -29 17 -47.5t43 -18.5t42.5 18.5t16.5 47.5q0 28 -17 46.5t-42 18.5zM512 -10q-64 0 -106.5 41t-42.5 102q0 60 42.5 100.5t106.5 40.5q63 0 104.5 -40t41.5 -101q0 -62 -41.5 -102.5
t-104.5 -40.5zM173 523q-26 0 -42.5 -18.5t-16.5 -47.5q0 -28 16.5 -46t42.5 -18t43 18t17 46q0 29 -17 47.5t-43 18.5zM173 316q-64 0 -106 40.5t-42 100.5q0 62 42 102.5t106 40.5t105.5 -40.5t41.5 -102.5q0 -61 -41.5 -101t-105.5 -40z" />
    <glyph glyph-name="perthousand.sc" unicode="&#xe04c;" horiz-adv-x="1029" 
d="M106 12l404 566h72l-403 -566h-73zM512 198q-26 0 -43 -18.5t-17 -46.5q0 -29 17 -47.5t43 -18.5t42.5 18.5t16.5 47.5q0 28 -17 46.5t-42 18.5zM512 -10q-64 0 -106.5 41t-42.5 102q0 60 42.5 100.5t106.5 40.5q63 0 104.5 -40t41.5 -101q0 -62 -41.5 -102.5
t-104.5 -40.5zM173 523q-26 0 -42.5 -18.5t-16.5 -47.5q0 -28 16.5 -46t42.5 -18t43 18t17 46q0 29 -17 47.5t-43 18.5zM173 316q-64 0 -106 40.5t-42 100.5q0 62 42 102.5t106 40.5t105.5 -40.5t41.5 -102.5q0 -61 -41.5 -101t-105.5 -40zM859 198q-26 0 -43 -18.5
t-17 -46.5q0 -29 17 -47.5t43 -18.5t42.5 18.5t16.5 47.5q0 28 -17 46.5t-42 18.5zM859 -10q-64 0 -106.5 41t-42.5 102q0 60 42.5 100.5t106.5 40.5q63 0 104.5 -40t41.5 -101q0 -62 -41.5 -102.5t-104.5 -40.5z" />
    <glyph glyph-name="uni0157.sc.ss04" unicode="&#xe04d;" horiz-adv-x="606" 
d="M66 590h251q103 0 163.5 -59t60.5 -138q0 -54 -30 -101.5t-84 -73.5l29 -39q46 -62 103 -62h19v-117h-75q-84 0 -134 70l-87 124h-78v-194h-138v590zM204 311h113q39 0 61.5 24t22.5 57q0 32 -23 56.5t-61 24.5h-113v-162zM237 -102q0 30 20.5 50t48.5 20q31 0 49.5 -22
t18.5 -53q0 -86 -92 -148l-33 37q42 25 49 46q-27 2 -44 22t-17 48z" />
    <glyph glyph-name="uni0157.sc.ss03" unicode="&#xe04e;" horiz-adv-x="642" 
d="M15 473v117h338q103 0 163.5 -59t60.5 -138q0 -54 -30 -101.5t-84 -73.5l29 -39q46 -62 103 -62h19v-117h-75q-84 0 -134 70l-87 124h-78v-194h-138v473h-87zM240 311h113q39 0 61.5 24t22.5 57q0 32 -23 56.5t-61 24.5h-113v-162zM273 -102q0 30 20.5 50t48.5 20
q31 0 49.5 -22t18.5 -53q0 -86 -92 -148l-33 37q42 25 49 46q-27 2 -44 22t-17 48z" />
    <glyph glyph-name="uni0157.sc.ss02" unicode="&#xe04f;" horiz-adv-x="619" 
d="M104 590h251q103 0 163.5 -59t60.5 -138q0 -53 -29 -100.5t-82 -73.5l125 -219h-152l-106 194h-93v-194h-138v194h-87v117h87v279zM242 311h113q39 0 61.5 24t22.5 57q0 32 -23 56.5t-61 24.5h-113v-162zM275 -102q0 30 20.5 50t48.5 20q31 0 49.5 -22t18.5 -53
q0 -86 -92 -148l-33 37q42 25 49 46q-27 2 -44 22t-17 48z" />
    <glyph glyph-name="r.sc.ss01" unicode="&#xe050;" horiz-adv-x="617" 
d="M15 590h338q103 0 163.5 -59t60.5 -138q0 -53 -29 -100.5t-82 -73.5l125 -219h-152l-106 194h-93v-194h-138v473h-87v117zM240 311h113q39 0 61.5 24t22.5 57q0 32 -23 56.5t-61 24.5h-113v-162z" />
    <glyph glyph-name="two.sc" unicode="&#xe051;" horiz-adv-x="506" 
d="M98 418l-65 105q103 77 217 77q95 0 154 -53.5t59 -131.5q0 -56 -32 -108q-41 -64 -204 -187h237v-120h-433v117q221 178 267 231q23 26 23 58q0 30 -22 50.5t-62 20.5q-63 0 -139 -59z" />
    <glyph glyph-name="r.sc.ss02" unicode="&#xe052;" horiz-adv-x="619" 
d="M104 590h251q103 0 163.5 -59t60.5 -138q0 -53 -29 -100.5t-82 -73.5l125 -219h-152l-106 194h-93v-194h-138v194h-87v117h87v279zM242 311h113q39 0 61.5 24t22.5 57q0 32 -23 56.5t-61 24.5h-113v-162z" />
    <glyph glyph-name="uni0157.sc.ss01" unicode="&#xe053;" horiz-adv-x="617" 
d="M15 590h338q103 0 163.5 -59t60.5 -138q0 -53 -29 -100.5t-82 -73.5l125 -219h-152l-106 194h-93v-194h-138v473h-87v117zM240 311h113q39 0 61.5 24t22.5 57q0 32 -23 56.5t-61 24.5h-113v-162zM273 -102q0 30 20.5 50t48.5 20q31 0 49.5 -22t18.5 -53q0 -86 -92 -148
l-33 37q42 25 49 46q-27 2 -44 22t-17 48z" />
    <glyph glyph-name="r.sc.ss03" unicode="&#xe054;" horiz-adv-x="642" 
d="M15 473v117h338q103 0 163.5 -59t60.5 -138q0 -54 -30 -101.5t-84 -73.5l29 -39q46 -62 103 -62h19v-117h-75q-84 0 -134 70l-87 124h-78v-194h-138v473h-87zM240 311h113q39 0 61.5 24t22.5 57q0 32 -23 56.5t-61 24.5h-113v-162z" />
    <glyph glyph-name="r.sc.ss04" unicode="&#xe055;" horiz-adv-x="606" 
d="M66 590h251q103 0 163.5 -59t60.5 -138q0 -54 -30 -101.5t-84 -73.5l29 -39q46 -62 103 -62h19v-117h-75q-84 0 -134 70l-87 124h-78v-194h-138v590zM204 311h113q39 0 61.5 24t22.5 57q0 32 -23 56.5t-61 24.5h-113v-162z" />
    <glyph glyph-name="uni0157.sc" unicode="&#xe056;" horiz-adv-x="581" 
d="M66 590h251q103 0 163.5 -59t60.5 -138q0 -53 -29 -100.5t-82 -73.5l125 -219h-152l-106 194h-93v-194h-138v590zM204 311h113q39 0 61.5 24t22.5 57q0 32 -23 56.5t-61 24.5h-113v-162zM237 -102q0 30 20.5 50t48.5 20q31 0 49.5 -22t18.5 -53q0 -86 -92 -148l-33 37
q42 25 49 46q-27 2 -44 22t-17 48z" />
    <glyph glyph-name="r.sc.ss05" unicode="&#xe057;" horiz-adv-x="654" 
d="M15 473v117h338q103 0 163.5 -59t60.5 -138q0 -52 -28.5 -99t-79.5 -73l51 -70q24 -32 54 -32q9 0 16 2.5t10 4.5l2 3l52 -102q-37 -37 -97 -37q-44 0 -73 15.5t-62 55.5q-5 7 -94 133h-88v-194h-138v473h-87zM240 311h113q39 0 61.5 24t22.5 57q0 32 -23 56.5t-61 24.5
h-113v-162z" />
    <glyph glyph-name="odieresis.sc.ss05" unicode="&#xe058;" horiz-adv-x="682" 
d="M651 295q0 -132 -88.5 -218.5t-221.5 -86.5t-221.5 86.5t-88.5 218.5t88.5 218.5t221.5 86.5t221.5 -86.5t88.5 -218.5zM509 295q0 77 -46.5 129.5t-121.5 52.5t-121.5 -52.5t-46.5 -129.5t46.5 -129.5t121.5 -52.5t121.5 52.5t46.5 129.5zM484 338l-143 -129l-141 129
h284zM153 713q0 31 22.5 53t53.5 22q32 0 54.5 -22t22.5 -53t-22.5 -53t-54.5 -22q-31 0 -53.5 22t-22.5 53zM376 713q0 31 22.5 53t53.5 22q32 0 54.5 -22t22.5 -53t-22.5 -53t-54.5 -22q-31 0 -53.5 22t-22.5 53z" />
    <glyph glyph-name="uni0156.ss07" unicode="&#xe059;" horiz-adv-x="676" 
d="M280 -130q0 33 22.5 55t53.5 22q34 0 54.5 -24t20.5 -59q0 -100 -103 -169l-29 33q49 29 56 64q-32 0 -53.5 22.5t-21.5 55.5zM553 -113l-209 348h-116v-235h-152v700h298q112 0 184 -64.5t72 -165.5q0 -70 -37.5 -126t-101.5 -85l231 -372h-169zM228 366h142
q46 0 76 28.5t30 72.5q0 43 -30.5 72.5t-75.5 29.5h-142v-203z" />
    <glyph glyph-name="uni0156.ss06" unicode="&#xe05a;" horiz-adv-x="710" 
d="M76 700h298q112 0 184 -64.5t72 -165.5q0 -71 -37.5 -127t-102.5 -84q40 -59 65 -91q30 -39 59 -39q9 0 18 3t13 6l4 3l55 -111q-5 -5 -13.5 -11.5t-36 -18t-55.5 -11.5q-51 0 -83 18t-68 63q-30 37 -113 165h-107v-235h-152v700zM228 366h142q46 0 76 28.5t30 72.5
q0 43 -30.5 72.5t-75.5 29.5h-142v-203zM280 -130q0 33 22.5 55t53.5 22q34 0 54.5 -24t20.5 -59q0 -100 -103 -169l-29 33q49 29 56 64q-32 0 -53.5 22.5t-21.5 55.5z" />
    <glyph glyph-name="r.sc.ss06" unicode="&#xe05b;" horiz-adv-x="618" 
d="M66 590h251q103 0 163.5 -59t60.5 -138q0 -52 -28.5 -99t-79.5 -73l51 -70q24 -32 54 -32q9 0 16 2.5t10 4.5l2 3l52 -102q-37 -37 -97 -37q-44 0 -73 15.5t-62 55.5q-5 7 -94 133h-88v-194h-138v590zM204 311h113q39 0 61.5 24t22.5 57q0 32 -23 56.5t-61 24.5h-113
v-162z" />
    </font>
</defs>
</svg>
